<svg width="256" height="256" viewBox="0 0 256 256" fill="none" xmlns="http://www.w3.org/2000/svg">
<rect width="256" height="256" rx="35" fill="#121212"/>
<path d="M128.5 37C128.5 37 197.873 91.3437 197.873 148.665C197.873 186.958 166.814 218 128.5 218C90.1865 218 59.127 186.958 59.127 148.665C59.127 91.3437 128.5 37 128.5 37Z" fill="url(#paint0_linear_143012188)"/>
<path opacity="0.7" d="M197.872 148.353C197.872 148.244 197.864 148.135 197.864 148.033C197.864 148.189 197.872 148.345 197.872 148.501C197.872 148.439 197.872 148.384 197.872 148.353Z" fill="url(#paint1_linear_143012188)"/>
<path d="M197.872 148.665C197.872 148.61 197.872 148.548 197.872 148.493C197.856 149.25 197.755 151.674 197.622 154.605C197.786 152.648 197.872 150.668 197.872 148.665Z" fill="url(#paint2_linear_143012188)"/>
<path opacity="0.7" d="M128.499 218C164.808 218 194.604 190.115 197.615 154.605C197.755 151.674 197.856 149.242 197.864 148.494C197.864 148.338 197.856 148.182 197.856 148.026C197.63 140.332 189.471 132.7 183.918 128.638C174.605 121.84 162.881 117.677 151.213 117.958C142.406 118.168 133.507 120.975 126.338 126.112C119.116 131.289 113.539 138.25 106.573 143.707C105.661 144.424 104.717 145.095 103.742 145.718C96.6517 150.216 88.2979 153.148 79.8427 153.148C72.3937 153.148 65.3582 151.386 59.126 148.268C59.126 148.4 59.1182 148.533 59.1182 148.657C59.126 186.957 90.1855 218 128.499 218Z" fill="url(#paint3_linear_143012188)"/>
<g opacity="0.7">
<path opacity="0.7" d="M128.499 218C166.813 218 197.872 186.957 197.872 148.665C197.872 138.617 195.735 128.661 192.217 119.073C165.463 125.761 150.199 160.421 120.021 155.9C105.716 153.756 95.17 139.334 95.2246 125.231C95.2558 116.711 98.9998 108.361 105.068 102.445C79.024 102.468 59.3135 123.134 59.3135 148.626C59.3135 151.175 59.4227 154.036 59.6411 157.123C63.8141 191.424 93.0484 218 128.499 218Z" fill="url(#paint4_linear_143012188)"/>
</g>
<path d="M151.627 102.374C151.627 96.0288 156.806 90.8836 163.187 90.8836C156.798 90.8836 151.627 85.7385 151.627 79.3928C151.627 85.7385 146.448 90.8836 140.067 90.8836C146.448 90.8836 151.627 96.0288 151.627 102.374Z" fill="white"/>
<path d="M197.889 156.952C218.34 166.751 207.662 174.04 206.172 174.952C205.962 175.116 205.735 175.264 205.478 175.389C205.455 175.404 205.423 175.412 205.4 175.428C200.775 177.509 194.394 179.466 186.953 181.087C170.807 184.611 150.051 186.552 128.508 186.552C106.964 186.552 86.2085 184.611 70.0625 181.087C62.6213 179.466 56.2488 177.509 51.6156 175.428L51.5376 175.389C51.2724 175.272 51.0384 175.116 50.8278 174.944C49.2912 174.001 38.73 166.728 59.127 156.952C44.7282 161.068 36 166.478 36 172.411C36 185.32 77.4101 195.79 128.5 195.79C179.59 195.79 221 185.32 221 172.411C221 166.478 212.272 161.068 197.889 156.952Z" fill="white"/>
<path d="M197.873 156.944L197.881 156.952C197.881 156.952 197.881 156.944 197.873 156.944Z" fill="white"/>
<path d="M59.1271 156.944C59.1271 156.944 59.1191 156.944 59.1191 156.952C59.1191 156.952 59.1191 156.944 59.1271 156.944Z" fill="white"/>
<defs>
<linearGradient id="paint0_linear_143012188" x1="59.1251" y1="127.5" x2="197.875" y2="127.5" gradientUnits="userSpaceOnUse">
<stop offset="0.3289" stop-color="#D0EBFF"/>
<stop offset="0.7029" stop-color="#88D4FF"/>
</linearGradient>
<linearGradient id="paint1_linear_143012188" x1="62.913" y1="70.3012" x2="231.282" y2="167.455" gradientUnits="userSpaceOnUse">
<stop offset="0.4396" stop-color="#67C5E1"/>
<stop offset="0.6453" stop-color="#E68AE6"/>
</linearGradient>
<linearGradient id="paint2_linear_143012188" x1="59.1271" y1="151.551" x2="197.874" y2="151.551" gradientUnits="userSpaceOnUse">
<stop offset="0.3289" stop-color="#D0EBFF"/>
<stop offset="0.7029" stop-color="#88D4FF"/>
</linearGradient>
<linearGradient id="paint3_linear_143012188" x1="39.3225" y1="111.054" x2="207.691" y2="208.315" gradientUnits="userSpaceOnUse">
<stop offset="0.4396" stop-color="#67C5E1"/>
<stop offset="0.6453" stop-color="#E68AE6"/>
</linearGradient>
<linearGradient id="paint4_linear_143012188" x1="128.595" y1="102.439" x2="128.595" y2="218" gradientUnits="userSpaceOnUse">
<stop offset="0.0782" stop-color="#7CCBE9"/>
<stop offset="0.2381" stop-color="#009FE8"/>
<stop offset="0.4097" stop-color="#1554E1"/>
<stop offset="0.6645" stop-color="#000020"/>
</linearGradient>
</defs>
</svg>
