<svg width="1070" height="511" viewBox="0 0 1070 511" fill="none" xmlns="http://www.w3.org/2000/svg">
<g clip-path="url(#clip0_1694_13507)">
<path d="M5.36744 493.049C8.3318 493.049 10.7349 490.646 10.7349 487.68C10.7349 484.715 8.3318 482.312 5.36744 482.312C2.40309 482.312 0 484.715 0 487.68C0 490.646 2.40309 493.049 5.36744 493.049Z" fill="white"/>
<path opacity="0.6" d="M161.426 11.6325C161.426 8.67058 163.644 6.26349 166.391 6.26349C163.653 6.26349 161.426 3.85641 161.426 0.894531C161.426 3.85641 159.207 6.26349 156.461 6.26349C159.207 6.26349 161.426 8.67058 161.426 11.6325Z" fill="white"/>
<path opacity="0.55" d="M289.368 40.9287C292.777 40.9287 295.54 38.1644 295.54 34.7544C295.54 31.3444 292.777 28.5801 289.368 28.5801C285.959 28.5801 283.195 31.3444 283.195 34.7544C283.195 38.1644 285.959 40.9287 289.368 40.9287Z" fill="url(#paint0_linear_1694_13507)"/>
</g>
<g clip-path="url(#clip1_1694_13507)">
<path opacity="0.36" d="M704.639 381.25C902.105 381.25 1062.18 323.251 1062.18 251.706C1062.18 180.161 902.105 122.162 704.639 122.162C507.173 122.162 347.096 180.161 347.096 251.706C347.096 323.251 507.173 381.25 704.639 381.25Z" stroke="url(#paint1_linear_1694_13507)" stroke-width="3.0318" stroke-miterlimit="10"/>
<path opacity="0.5" d="M695.074 119.961C488.016 119.961 320.158 187.869 320.158 271.634C320.158 355.399 488.016 423.307 695.074 423.307C902.132 423.307 1069.99 355.399 1069.99 271.634C1069.99 187.869 902.141 119.961 695.074 119.961ZM695.074 392.006C530.446 392.006 396.984 337.789 396.984 270.9C396.984 204.012 530.446 149.794 695.074 149.794C859.703 149.794 993.164 204.021 993.164 270.9C993.164 337.78 859.703 392.006 695.074 392.006Z" fill="url(#paint2_linear_1694_13507)"/>
<g opacity="0.74">
<path opacity="0.74" d="M832.813 473.605C856.186 473.605 875.135 454.651 875.135 431.271C875.135 407.89 856.186 388.937 832.813 388.937C809.439 388.937 790.49 407.89 790.49 431.271C790.49 454.651 809.439 473.605 832.813 473.605Z" fill="url(#paint3_linear_1694_13507)"/>
<path opacity="0.69" d="M870.591 406.028C885.289 406.019 881.103 413.276 880.485 414.234C880.414 414.386 880.315 414.538 880.199 414.681C880.19 414.699 880.172 414.708 880.163 414.726C878.043 417.24 874.867 420.175 870.976 423.209C862.531 429.804 850.947 436.756 838.351 442.805C825.755 448.854 813.079 453.543 802.657 456.013C797.854 457.149 793.578 457.794 790.285 457.874H790.232C790.044 457.874 789.865 457.856 789.695 457.812C788.532 457.686 780.311 456.398 789.489 444.962C782.243 451.405 778.656 457.024 780.32 460.487C783.943 468.039 811.084 462.545 840.945 448.201C870.806 433.866 892.07 416.122 888.447 408.569C886.783 405.115 880.154 404.399 870.591 406.028Z" fill="white"/>
</g>
<path d="M629.869 511C632.834 511 635.237 508.596 635.237 505.631C635.237 502.665 632.834 500.262 629.869 500.262C626.905 500.262 624.502 502.665 624.502 505.631C624.502 508.596 626.905 511 629.869 511Z" fill="white"/>
<path opacity="0.79" d="M453.639 349.931C456.603 349.931 459.006 347.528 459.006 344.562C459.006 341.597 456.603 339.193 453.639 339.193C450.675 339.193 448.271 341.597 448.271 344.562C448.271 347.528 450.675 349.931 453.639 349.931Z" fill="#00A99D"/>
<path opacity="0.76" d="M946.549 181.703C948.031 181.703 949.232 180.502 949.232 179.019C949.232 177.537 948.031 176.335 946.549 176.335C945.067 176.335 943.865 177.537 943.865 179.019C943.865 180.502 945.067 181.703 946.549 181.703Z" fill="white"/>
<path opacity="0.75" d="M569.039 39.4251C570.521 39.4251 571.722 38.2233 571.722 36.7409C571.722 35.2584 570.521 34.0566 569.039 34.0566C567.557 34.0566 566.355 35.2584 566.355 36.7409C566.355 38.2233 567.557 39.4251 569.039 39.4251Z" fill="white"/>
<path opacity="0.6" d="M526.099 485.945C527.582 485.945 528.783 484.743 528.783 483.26C528.783 481.778 527.582 480.576 526.099 480.576C524.617 480.576 523.416 481.778 523.416 483.26C523.416 484.743 524.617 485.945 526.099 485.945Z" fill="white"/>
<path opacity="0.6" d="M250.078 511C250.078 508.038 252.297 505.631 255.043 505.631C252.306 505.631 250.078 503.224 250.078 500.262C250.078 503.224 247.86 505.631 245.113 505.631C247.851 505.631 250.078 508.038 250.078 511Z" fill="white"/>
<path opacity="0.8" d="M704.638 329.529C834.309 329.529 939.428 295.636 939.428 253.826C939.428 212.017 834.309 178.124 704.638 178.124C574.967 178.124 469.848 212.017 469.848 253.826C469.848 295.636 574.967 329.529 704.638 329.529Z" stroke="url(#paint4_linear_1694_13507)" stroke-width="1.8781" stroke-miterlimit="10"/>
<g filter="url(#filter0_f_1694_13507)">
<path d="M704.03 38.4775C704.03 38.4775 803.328 116.927 803.328 199.675C803.328 254.958 758.866 299.767 704.03 299.767C649.195 299.767 604.732 254.949 604.732 199.675C604.723 116.927 704.03 38.4775 704.03 38.4775Z" fill="#391AB3" fill-opacity="0.9"/>
</g>
<path d="M703.861 39.4258C703.861 39.4258 803.194 117.303 803.194 199.448C803.194 254.327 758.716 298.809 703.861 298.809C649.006 298.809 604.527 254.319 604.527 199.448C604.518 117.303 703.861 39.4258 703.861 39.4258Z" fill="url(#paint5_linear_1694_13507)"/>
<path opacity="0.7" d="M803.196 198.999C803.196 198.847 803.187 198.695 803.178 198.534C803.178 198.758 803.187 198.981 803.187 199.205C803.196 199.125 803.196 199.053 803.196 198.999Z" fill="url(#paint6_linear_1694_13507)"/>
<path d="M803.196 199.447C803.196 199.366 803.196 199.286 803.187 199.205C803.169 200.288 803.017 203.768 802.82 207.965C803.071 205.155 803.196 202.319 803.196 199.447Z" fill="url(#paint7_linear_1694_13507)"/>
<path opacity="0.7" d="M703.862 298.808C755.854 298.808 798.508 258.854 802.828 207.966C803.025 203.76 803.168 200.279 803.195 199.205C803.195 198.982 803.186 198.758 803.186 198.534C802.864 187.51 791.181 176.566 783.228 170.75C769.89 161.005 753.108 155.046 736.397 155.439C723.793 155.744 711.045 159.761 700.775 167.126C690.434 174.535 682.446 184.521 672.48 192.342C671.174 193.362 669.823 194.337 668.428 195.223C658.283 201.675 646.314 205.872 634.21 205.872C623.547 205.872 613.474 203.348 604.546 198.874C604.546 199.062 604.537 199.25 604.537 199.438C604.519 254.327 648.997 298.808 703.862 298.808Z" fill="url(#paint8_linear_1694_13507)"/>
<g opacity="0.7">
<path opacity="0.7" d="M703.862 298.809C758.726 298.809 803.196 254.318 803.196 199.447C803.196 185.05 800.136 170.777 795.1 157.033C756.794 166.616 734.94 216.288 691.723 209.8C671.237 206.722 656.136 186.061 656.217 165.847C656.262 153.641 661.62 141.677 670.315 133.194C633.03 133.221 604.797 162.84 604.797 199.385C604.797 203.036 604.949 207.134 605.262 211.563C611.238 260.725 653.104 298.809 703.862 298.809Z" fill="url(#paint9_linear_1694_13507)"/>
</g>
<path d="M736.969 133.115C736.969 124.014 744.385 116.641 753.527 116.641C744.385 116.641 736.969 109.267 736.969 100.167C736.969 109.267 729.553 116.641 720.41 116.641C729.562 116.641 736.969 124.014 736.969 133.115Z" fill="white"/>
<path d="M803.212 211.322C832.492 225.362 817.203 235.805 815.074 237.12C814.779 237.353 814.448 237.568 814.072 237.738C814.037 237.755 813.992 237.773 813.956 237.791C807.327 240.771 798.203 243.581 787.548 245.898C764.432 250.945 734.706 253.728 703.861 253.728C673.016 253.728 643.289 250.945 620.173 245.898C609.519 243.572 600.394 240.771 593.766 237.791L593.649 237.738C593.265 237.568 592.934 237.344 592.629 237.102C590.438 235.751 575.302 225.326 604.509 211.322C583.916 217.228 571.41 224.986 571.41 233.478C571.41 251.983 630.711 266.98 703.861 266.98C777.01 266.98 836.311 251.983 836.311 233.478C836.311 224.986 823.805 217.228 803.212 211.322Z" fill="white"/>
<path d="M803.193 211.313C803.193 211.313 803.202 211.322 803.211 211.322C803.202 211.322 803.202 211.322 803.193 211.313Z" fill="white"/>
<path d="M604.518 211.313C604.509 211.313 604.509 211.322 604.5 211.322C604.509 211.322 604.518 211.322 604.518 211.313Z" fill="white"/>
<path opacity="0.6" d="M560.64 207.6C560.64 198.956 565.73 191.941 572.01 191.941C565.73 191.941 560.64 184.934 560.64 176.281C560.64 184.925 555.549 191.941 549.27 191.941C555.549 191.941 560.64 198.947 560.64 207.6Z" fill="white"/>
<path opacity="0.72" d="M487.328 288.654H490.701L495.514 282.891L495.907 276.063L489.645 268.717L478.901 269.987L474.67 276.448L476.396 285.423L480.422 288.645L487.328 288.654Z" fill="url(#paint10_linear_1694_13507)"/>
<path d="M1046.44 214.786C1059.04 214.786 1069.25 204.57 1069.25 191.968C1069.25 179.365 1059.04 169.149 1046.44 169.149C1033.84 169.149 1023.62 179.365 1023.62 191.968C1023.62 204.57 1033.84 214.786 1046.44 214.786Z" fill="url(#paint11_radial_1694_13507)"/>
<path d="M576.839 458.662C596.181 458.662 611.862 442.977 611.862 423.629C611.862 404.281 596.181 388.597 576.839 388.597C557.497 388.597 541.816 404.281 541.816 423.629C541.816 442.977 557.497 458.662 576.839 458.662Z" fill="url(#paint12_radial_1694_13507)"/>
<path opacity="0.6" d="M910.194 161.347C918.134 161.347 924.57 154.909 924.57 146.967C924.57 139.025 918.134 132.587 910.194 132.587C902.255 132.587 895.818 139.025 895.818 146.967C895.818 154.909 902.255 161.347 910.194 161.347Z" fill="url(#paint13_radial_1694_13507)"/>
<g opacity="0.66">
<g opacity="0.66" filter="url(#filter1_f_1694_13507)">
<path opacity="0.71" d="M516.812 160.336C529.959 160.336 540.617 149.675 540.617 136.524C540.617 123.374 529.959 112.713 516.812 112.713C503.666 112.713 493.008 123.374 493.008 136.524C493.008 149.675 503.666 160.336 516.812 160.336Z" fill="url(#paint14_linear_1694_13507)"/>
<path opacity="0.66" d="M516.812 160.336C529.959 160.336 540.617 149.675 540.617 136.524C540.617 123.374 529.959 112.713 516.812 112.713C503.666 112.713 493.008 123.374 493.008 136.524C493.008 149.675 503.666 160.336 516.812 160.336Z" fill="url(#paint15_radial_1694_13507)"/>
</g>
</g>
<path opacity="0.73" d="M910.194 152.336C913.158 152.336 915.561 149.932 915.561 146.967C915.561 144.001 913.158 141.598 910.194 141.598C907.229 141.598 904.826 144.001 904.826 146.967C904.826 149.932 907.229 152.336 910.194 152.336Z" fill="#ECD6FC"/>
<path opacity="0.9" d="M896.506 309.664C896.506 296.277 903.922 285.432 913.064 285.432C903.922 285.432 896.506 274.587 896.506 261.2C896.506 274.587 889.09 285.432 879.947 285.432C889.09 285.432 896.506 296.277 896.506 309.664Z" fill="white"/>
<path opacity="0.55" d="M406.673 440.308C416.307 440.308 424.117 432.496 424.117 422.859C424.117 413.222 416.307 405.41 406.673 405.41C397.039 405.41 389.229 413.222 389.229 422.859C389.229 432.496 397.039 440.308 406.673 440.308Z" fill="url(#paint16_linear_1694_13507)"/>
<path opacity="0.55" d="M842.303 12.3486C845.712 12.3486 848.476 9.58428 848.476 6.17431C848.476 2.76433 845.712 0 842.303 0C838.894 0 836.131 2.76433 836.131 6.17431C836.131 9.58428 838.894 12.3486 842.303 12.3486Z" fill="url(#paint17_linear_1694_13507)"/>
<g filter="url(#filter2_f_1694_13507)">
<path d="M580.084 353.588L566.77 362.542L563.903 370.31L563.405 378.574L567.493 387.066L583.836 394.45L595.319 388.626L600.866 377.07L600.051 369.031L596.083 359.962L580.084 353.588Z" fill="url(#paint18_linear_1694_13507)" fill-opacity="0.9"/>
</g>
</g>
<defs>
<filter id="filter0_f_1694_13507" x="544.732" y="-21.5225" width="318.596" height="381.289" filterUnits="userSpaceOnUse" color-interpolation-filters="sRGB">
<feFlood flood-opacity="0" result="BackgroundImageFix"/>
<feBlend mode="normal" in="SourceGraphic" in2="BackgroundImageFix" result="shape"/>
<feGaussianBlur stdDeviation="30" result="effect1_foregroundBlur_1694_13507"/>
</filter>
<filter id="filter1_f_1694_13507" x="489.008" y="108.713" width="55.6094" height="55.623" filterUnits="userSpaceOnUse" color-interpolation-filters="sRGB">
<feFlood flood-opacity="0" result="BackgroundImageFix"/>
<feBlend mode="normal" in="SourceGraphic" in2="BackgroundImageFix" result="shape"/>
<feGaussianBlur stdDeviation="2" result="effect1_foregroundBlur_1694_13507"/>
</filter>
<filter id="filter2_f_1694_13507" x="562.404" y="352.588" width="39.4629" height="42.8623" filterUnits="userSpaceOnUse" color-interpolation-filters="sRGB">
<feFlood flood-opacity="0" result="BackgroundImageFix"/>
<feBlend mode="normal" in="SourceGraphic" in2="BackgroundImageFix" result="shape"/>
<feGaussianBlur stdDeviation="0.5" result="effect1_foregroundBlur_1694_13507"/>
</filter>
<linearGradient id="paint0_linear_1694_13507" x1="294.209" y1="30.9895" x2="284.441" y2="38.5458" gradientUnits="userSpaceOnUse">
<stop offset="0.099" stop-color="white" stop-opacity="0.4"/>
<stop offset="0.9438" stop-color="white"/>
</linearGradient>
<linearGradient id="paint1_linear_1694_13507" x1="345.737" y1="251.704" x2="1063.54" y2="251.704" gradientUnits="userSpaceOnUse">
<stop offset="0.2113" stop-color="white"/>
<stop offset="0.7518" stop-color="#A96880"/>
</linearGradient>
<linearGradient id="paint2_linear_1694_13507" x1="320.161" y1="271.634" x2="1070" y2="271.634" gradientUnits="userSpaceOnUse">
<stop offset="0.0209" stop-color="#572779"/>
<stop offset="0.38" stop-color="#1554E1"/>
<stop offset="0.6504" stop-color="#0A2779"/>
</linearGradient>
<linearGradient id="paint3_linear_1694_13507" x1="790.482" y1="431.271" x2="875.143" y2="431.271" gradientUnits="userSpaceOnUse">
<stop offset="0.1037" stop-color="#326BB3"/>
<stop offset="0.1235" stop-color="#356FB4"/>
<stop offset="0.3365" stop-color="#4F94C2"/>
<stop offset="0.5339" stop-color="#62B0CC"/>
<stop offset="0.7082" stop-color="#6DC0D2"/>
<stop offset="0.8409" stop-color="#71C6D4"/>
</linearGradient>
<linearGradient id="paint4_linear_1694_13507" x1="940.265" y1="253.822" x2="469.008" y2="253.822" gradientUnits="userSpaceOnUse">
<stop offset="0.0994" stop-color="#009FE8"/>
<stop offset="0.3259" stop-color="#46A6E9"/>
<stop offset="0.5579" stop-color="#1554E1"/>
<stop offset="0.8261" stop-color="#0D3498"/>
</linearGradient>
<linearGradient id="paint5_linear_1694_13507" x1="604.523" y1="169.119" x2="803.197" y2="169.119" gradientUnits="userSpaceOnUse">
<stop offset="0.3289" stop-color="#D0EBFF"/>
<stop offset="0.7029" stop-color="#88D4FF"/>
</linearGradient>
<linearGradient id="paint6_linear_1694_13507" x1="610.591" y1="87.2555" x2="851.259" y2="225.684" gradientUnits="userSpaceOnUse">
<stop offset="0.4396" stop-color="#67C5E1"/>
<stop offset="0.6453" stop-color="#E68AE6"/>
</linearGradient>
<linearGradient id="paint7_linear_1694_13507" x1="604.551" y1="203.585" x2="803.199" y2="203.585" gradientUnits="userSpaceOnUse">
<stop offset="0.3289" stop-color="#D0EBFF"/>
<stop offset="0.7029" stop-color="#88D4FF"/>
</linearGradient>
<linearGradient id="paint8_linear_1694_13507" x1="576.17" y1="145.55" x2="817.354" y2="284.759" gradientUnits="userSpaceOnUse">
<stop offset="0.4396" stop-color="#67C5E1"/>
<stop offset="0.6453" stop-color="#E68AE6"/>
</linearGradient>
<linearGradient id="paint9_linear_1694_13507" x1="703.997" y1="133.205" x2="703.997" y2="298.813" gradientUnits="userSpaceOnUse">
<stop offset="0.0782" stop-color="#7CCBE9"/>
<stop offset="0.2381" stop-color="#009FE8"/>
<stop offset="0.4097" stop-color="#1554E1"/>
<stop offset="0.6645" stop-color="#000020"/>
</linearGradient>
<linearGradient id="paint10_linear_1694_13507" x1="479.455" y1="288.041" x2="491.458" y2="269.955" gradientUnits="userSpaceOnUse">
<stop offset="0.0782" stop-color="#7CCBE9"/>
<stop offset="0.431" stop-color="#009FE8"/>
<stop offset="0.6252" stop-color="#1554E1"/>
</linearGradient>
<radialGradient id="paint11_radial_1694_13507" cx="0" cy="0" r="1" gradientUnits="userSpaceOnUse" gradientTransform="translate(1046.45 192.007) rotate(-33.8072) scale(22.814 22.8165)">
<stop offset="0.1035" stop-opacity="0.1"/>
<stop offset="0.995" stop-color="white" stop-opacity="0.4"/>
</radialGradient>
<radialGradient id="paint12_radial_1694_13507" cx="0" cy="0" r="1" gradientUnits="userSpaceOnUse" gradientTransform="translate(576.829 423.655) rotate(46.3249) scale(35.0395 35.0391)">
<stop offset="0.1035" stop-opacity="0.1"/>
<stop offset="0.995" stop-color="white" stop-opacity="0.4"/>
</radialGradient>
<radialGradient id="paint13_radial_1694_13507" cx="0" cy="0" r="1" gradientUnits="userSpaceOnUse" gradientTransform="translate(910.199 146.982) rotate(46.3248) scale(14.3799 14.3797)">
<stop offset="0.338532" stop-color="white"/>
<stop offset="0.979195" stop-opacity="0.1"/>
</radialGradient>
<linearGradient id="paint14_linear_1694_13507" x1="525.541" y1="158.67" x2="508.036" y2="114.382" gradientUnits="userSpaceOnUse">
<stop offset="0.2658" stop-color="#67E0E1"/>
<stop offset="0.7171" stop-color="#E671A1"/>
</linearGradient>
<radialGradient id="paint15_radial_1694_13507" cx="0" cy="0" r="1" gradientUnits="userSpaceOnUse" gradientTransform="translate(516.818 136.55) rotate(-101.499) scale(23.8166 23.8104)">
<stop offset="0.1035" stop-opacity="0.1"/>
<stop offset="0.995" stop-color="white" stop-opacity="0.4"/>
</radialGradient>
<linearGradient id="paint16_linear_1694_13507" x1="420.445" y1="412.186" x2="392.846" y2="433.536" gradientUnits="userSpaceOnUse">
<stop offset="0.099" stop-color="white" stop-opacity="0.4"/>
<stop offset="0.9438" stop-color="white"/>
</linearGradient>
<linearGradient id="paint17_linear_1694_13507" x1="847.167" y1="2.37477" x2="837.399" y2="9.93117" gradientUnits="userSpaceOnUse">
<stop offset="0.099" stop-color="white" stop-opacity="0.4"/>
<stop offset="0.9438" stop-color="white"/>
</linearGradient>
<linearGradient id="paint18_linear_1694_13507" x1="582.509" y1="346.804" x2="598.875" y2="352.696" gradientUnits="userSpaceOnUse">
<stop stop-color="#1554E1"/>
<stop offset="0.755224" stop-color="#653EFF"/>
</linearGradient>
<clipPath id="clip0_1694_13507">
<rect width="295.54" height="492.155" fill="white" transform="translate(0 0.894531)"/>
</clipPath>
<clipPath id="clip1_1694_13507">
<rect width="824.887" height="511" fill="white" transform="translate(245.113)"/>
</clipPath>
</defs>
</svg>
