<svg width="546" height="126" viewBox="0 0 546 126" fill="none" xmlns="http://www.w3.org/2000/svg">
<path d="M12.18 39.214C9.282 39.214 7.35 36.148 7.35 30.394C7.35 24.682 9.282 21.616 12.18 21.616C15.036 21.616 17.01 24.682 17.01 30.394C17.01 36.148 15.036 39.214 12.18 39.214ZM12.18 16.618C6.3 16.618 2.016 21.91 2.016 30.394C2.016 38.92 6.3 44.254 12.18 44.254C18.018 44.254 22.344 38.92 22.344 30.394C22.344 21.91 18.018 16.618 12.18 16.618ZM37.716 28.504H32.088V13.93H26.544V52.612H32.088V33.082H37.716V28.504ZM75.4287 34.342H70.3047C71.6067 28.042 71.6067 23.548 71.6067 19.558V16.072H44.5167V20.482H66.2727C66.2727 21.742 66.2727 23.044 66.1887 24.43L43.2567 25.144L43.8867 29.848L65.8107 28.714C65.6007 30.436 65.3067 32.326 64.8447 34.342H40.4847V38.836H55.1427V52.528H60.6867V38.836H75.4287V34.342ZM89.4534 39.214C86.5554 39.214 84.6234 36.148 84.6234 30.394C84.6234 24.682 86.5554 21.616 89.4534 21.616C92.3094 21.616 94.2834 24.682 94.2834 30.394C94.2834 36.148 92.3094 39.214 89.4534 39.214ZM89.4534 16.618C83.5734 16.618 79.2894 21.91 79.2894 30.394C79.2894 38.92 83.5734 44.254 89.4534 44.254C95.2914 44.254 99.6174 38.92 99.6174 30.394C99.6174 21.91 95.2914 16.618 89.4534 16.618ZM114.989 28.504H109.361V13.93H103.817V52.612H109.361V33.082H114.989V28.504ZM161.042 32.116C152.306 30.646 147.518 24.64 147.518 18.97V16.198H141.596V18.97C141.596 24.514 136.766 30.646 128.072 32.116L130.424 36.778C137.144 35.476 142.058 31.696 144.536 26.782C147.014 31.696 151.97 35.434 158.69 36.778L161.042 32.116ZM127.232 43.414V47.908H162.26V43.414H127.232ZM173.471 22.708H176.327V39.088C175.403 39.172 174.395 39.214 173.471 39.214V22.708ZM181.283 22.708H183.761V18.298H166.163V22.708H168.515V39.34C167.423 39.34 166.415 39.34 165.491 39.34L166.079 43.834C170.867 43.834 178.679 43.708 184.685 42.406L184.307 38.416C183.383 38.542 182.333 38.626 181.283 38.752V22.708ZM186.491 28.042H182.795V32.872H186.491V50.848H191.657V14.728H186.491V28.042ZM194.177 13.93V52.654H199.427V13.93H194.177ZM231.007 13.888V52.696H236.551V13.888H231.007ZM215.761 16.618C209.923 16.618 205.597 21.91 205.597 30.394C205.597 38.92 209.923 44.254 215.761 44.254C221.599 44.254 225.925 38.92 225.925 30.394C225.925 21.91 221.599 16.618 215.761 16.618ZM215.761 21.616C218.617 21.616 220.591 24.682 220.591 30.394C220.591 36.148 218.617 39.214 215.761 39.214C212.905 39.214 210.931 36.148 210.931 30.394C210.931 24.682 212.905 21.616 215.761 21.616ZM276.952 32.116C268.216 30.646 263.428 24.64 263.428 18.97V16.198H257.506V18.97C257.506 24.514 252.676 30.646 243.982 32.116L246.334 36.778C253.054 35.476 257.968 31.696 260.446 26.782C262.924 31.696 267.88 35.434 274.6 36.778L276.952 32.116ZM243.142 43.414V47.908H278.17V43.414H243.142ZM290.473 39.55C288.373 39.55 287.113 36.652 287.113 30.688C287.113 24.766 288.373 21.868 290.473 21.868C292.615 21.868 293.833 24.766 293.833 30.688C293.833 36.652 292.615 39.55 290.473 39.55ZM301.855 28.168H298.789C298.159 20.944 295.051 16.66 290.473 16.66C285.349 16.66 282.115 21.952 282.115 30.688C282.115 39.466 285.349 44.758 290.473 44.758C295.177 44.758 298.327 40.222 298.831 32.662H301.855V50.89H307.021V14.56H301.855V28.168ZM309.709 13.888V52.57H314.959V13.888H309.709ZM334.947 16.912H329.361V22.498C329.361 29.848 326.421 37.366 319.869 40.39L323.313 44.842C327.639 42.658 330.537 38.626 332.217 33.67C333.813 38.332 336.627 42.112 340.869 44.17L344.145 39.76C337.761 36.904 334.947 29.806 334.947 22.498V16.912ZM347.337 13.888V26.026H339.903V30.478H347.337V52.696H352.881V13.888H347.337Z" fill="url(#paint0_linear_1479_12957)"/>
<path d="M14.154 82.29H8.82V88.8C8.82 95.394 6.762 102.324 1.092 105.768L4.41 109.926C7.896 107.826 10.164 104.13 11.508 99.846C12.726 103.752 14.784 107.028 18.06 109.044L21.084 104.76C15.834 101.274 14.154 94.848 14.154 88.59V82.29ZM21.882 91.992H17.01V96.486H21.882V115.89H27.048V79.56H21.882V91.992ZM29.736 78.93V117.612H34.986V78.93H29.736ZM63.2487 96.066C57.1587 94.176 54.5547 89.64 54.5547 84.978V81.03H48.9267V84.516C48.9267 89.766 46.3227 94.932 39.8547 97.074L42.7527 101.442C47.1627 99.888 50.1447 96.906 51.8247 93.126C53.4627 96.402 56.2767 99.006 60.3507 100.35L63.2487 96.066ZM58.2507 113.328C53.2947 113.328 50.6487 112.32 50.6487 110.136C50.6487 107.994 53.2947 106.986 58.2507 106.986C63.1647 106.986 65.8107 107.994 65.8107 110.136C65.8107 112.32 63.1647 113.328 58.2507 113.328ZM58.2507 102.702C50.1867 102.702 45.1467 105.474 45.1467 110.136C45.1467 114.84 50.1867 117.612 58.2507 117.612C66.2727 117.612 71.3127 114.84 71.3127 110.136C71.3127 105.474 66.2727 102.702 58.2507 102.702ZM70.8927 87.918V78.972H65.3487V101.82H70.8927V92.496H76.0167V87.918H70.8927ZM91.5114 81.492C85.4634 81.492 80.8854 85.482 80.8854 91.026C80.8854 96.612 85.4634 100.56 91.5114 100.56C97.5594 100.56 102.179 96.612 102.179 91.026C102.179 85.482 97.5594 81.492 91.5114 81.492ZM91.5114 86.238C94.4934 86.238 96.7614 88.002 96.7614 91.026C96.7614 94.05 94.4934 95.814 91.5114 95.814C88.5294 95.814 86.2614 94.05 86.2614 91.026C86.2614 88.002 88.5294 86.238 91.5114 86.238ZM105.791 78.888V117.696H111.335V78.888H105.791ZM79.9614 109.842C86.6394 109.842 95.7114 109.758 104.027 108.078L103.691 104.088C95.5434 105.306 86.0514 105.348 79.2474 105.348L79.9614 109.842ZM136.346 86.154H153.02V96.402H136.346V86.154ZM147.476 108.624V100.77H158.438V81.786H130.928V100.77H141.932V108.624H127.232V113.118H162.26V108.624H147.476ZM197.033 90.48H175.655V84.726H196.739V80.316H170.153V94.89H197.033V90.48ZM175.571 105.348H170.027V116.94H197.327V112.53H175.571V105.348ZM165.911 98.04V102.45H200.897V98.04H165.911ZM216.037 114H224.899C234.055 114 239.935 108.792 239.935 98.334C239.935 87.834 234.055 82.878 224.563 82.878H216.037V114ZM222.253 109.002V87.876H224.185C229.981 87.876 233.593 90.732 233.593 98.334C233.593 105.894 229.981 109.002 224.185 109.002H222.253ZM255.763 114.588C258.661 114.588 261.643 113.58 263.953 111.984L261.853 108.204C260.173 109.254 258.493 109.842 256.561 109.842C253.075 109.842 250.555 107.826 250.051 103.962H264.541C264.709 103.416 264.835 102.282 264.835 101.106C264.835 94.638 261.475 89.892 255.007 89.892C249.421 89.892 244.045 94.638 244.045 102.24C244.045 110.01 249.169 114.588 255.763 114.588ZM249.967 99.846C250.429 96.444 252.613 94.68 255.091 94.68C258.115 94.68 259.543 96.696 259.543 99.846H249.967ZM270.424 114H276.64V101.4H287.686V96.192H276.64V88.086H289.576V82.878H270.424V114ZM294.488 114H300.662V90.48H294.488V114ZM297.596 86.7C299.696 86.7 301.166 85.356 301.166 83.298C301.166 81.282 299.696 79.938 297.596 79.938C295.454 79.938 293.984 81.282 293.984 83.298C293.984 85.356 295.454 86.7 297.596 86.7ZM331.016 85.23H310.1V94.47H337.148V90.732H315.56V88.716H336.476V79.602H310.016V83.34H331.016V85.23ZM315.224 111.438H336.602V102.24H309.68V105.978H331.1V107.952H309.722V117.276H337.652V113.538H315.224V111.438ZM305.732 96.318V100.308H340.76V96.318H305.732ZM367.996 96.402H360.436V86.49H367.996V96.402ZM373.456 82.122H355.018V100.77H373.456V82.122ZM364.93 104.382H359.386V116.94H385.72V112.53H364.93V104.382ZM384.334 90.102V78.93H378.79V107.154H384.334V94.638H389.458V90.102H384.334ZM399.241 82.584H393.697V108.12H397.057C402.685 108.12 408.901 107.784 415.327 106.44L414.781 101.904C409.363 102.954 404.113 103.374 399.241 103.5V82.584ZM428.221 93.504H422.803V78.888H417.259V117.528H422.803V98.082H428.221V93.504ZM440.356 91.698H456.904V97.116H440.356V91.698ZM451.402 108.624V101.526H462.364V81.324H456.904V87.33H440.356V81.324H434.854V101.526H445.858V108.624H431.158V113.118H466.186V108.624H451.402ZM482.142 82.29H476.808V88.8C476.808 95.394 474.75 102.324 469.08 105.768L472.398 109.926C475.884 107.826 478.152 104.13 479.496 99.846C480.714 103.752 482.772 107.028 486.048 109.044L489.072 104.76C483.822 101.274 482.142 94.848 482.142 88.59V82.29ZM489.87 91.992H484.998V96.486H489.87V115.89H495.036V79.56H489.87V91.992ZM497.724 78.93V117.612H502.974V78.93H497.724ZM521.661 101.232C523.005 101.484 524.391 101.61 525.903 101.61C527.415 101.61 528.843 101.484 530.187 101.232V108.624H521.661V101.232ZM525.903 85.188C531.279 85.188 534.891 87.372 534.891 91.236C534.891 95.058 531.279 97.284 525.903 97.284C520.527 97.284 516.957 95.058 516.957 91.236C516.957 87.372 520.527 85.188 525.903 85.188ZM535.689 108.624V99.174C538.587 97.368 540.351 94.596 540.351 91.236C540.351 84.894 534.261 80.82 525.903 80.82C517.587 80.82 511.497 84.894 511.497 91.236C511.455 94.596 513.219 97.368 516.159 99.174V108.624H508.431V113.118H543.459V108.624H535.689Z" fill="white"/>
<defs>
<linearGradient id="paint0_linear_1479_12957" x1="-26.6968" y1="30.5" x2="263.019" y2="48.9625" gradientUnits="userSpaceOnUse">
<stop stop-color="#2DC2E2"/>
<stop offset="1" stop-color="white"/>
</linearGradient>
</defs>
</svg>
