<svg width="327" height="229" viewBox="0 0 327 229" fill="none" xmlns="http://www.w3.org/2000/svg">
<path opacity="0.36" d="M167.636 172.584C253.423 172.584 322.968 147.394 322.968 116.321C322.968 85.2476 253.423 60.0576 167.636 60.0576C81.849 60.0576 12.3047 85.2476 12.3047 116.321C12.3047 147.394 81.849 172.584 167.636 172.584Z" stroke="url(#paint0_linear_1532_12197)" stroke-width="1.17828" stroke-miterlimit="10"/>
<path opacity="0.5" d="M163.482 59.1006C73.5279 59.1006 0.603516 88.5945 0.603516 124.975C0.603516 161.356 73.5279 190.849 163.482 190.849C253.437 190.849 326.361 161.356 326.361 124.975C326.361 88.5945 253.441 59.1006 163.482 59.1006ZM163.482 177.255C91.961 177.255 33.9799 153.707 33.9799 124.656C33.9799 95.6055 91.961 72.0578 163.482 72.0578C235.004 72.0578 292.985 95.6094 292.985 124.656C292.985 153.703 235.004 177.255 163.482 177.255Z" fill="url(#paint1_linear_1532_12197)"/>
<g opacity="0.74">
<path opacity="0.74" d="M223.32 212.696C233.475 212.696 241.707 204.464 241.707 194.309C241.707 184.155 233.475 175.923 223.32 175.923C213.166 175.923 204.934 184.155 204.934 194.309C204.934 204.464 213.166 212.696 223.32 212.696Z" fill="url(#paint2_linear_1532_12197)"/>
<path opacity="0.69" d="M239.732 183.346C246.117 183.342 244.299 186.494 244.03 186.91C243.999 186.976 243.957 187.042 243.906 187.104C243.902 187.112 243.894 187.116 243.891 187.124C242.969 188.216 241.59 189.49 239.899 190.808C236.23 193.672 231.198 196.692 225.726 199.319C220.253 201.946 214.746 203.983 210.219 205.055C208.132 205.549 206.274 205.829 204.844 205.864H204.821C204.739 205.864 204.661 205.856 204.587 205.837C204.082 205.782 200.511 205.223 204.498 200.256C201.35 203.054 199.792 205.495 200.514 206.999C202.088 210.279 213.88 207.893 226.853 201.663C239.825 195.437 249.063 187.73 247.489 184.45C246.766 182.95 243.887 182.639 239.732 183.346Z" fill="white"/>
</g>
<path d="M135.154 228.937C136.442 228.937 137.486 227.893 137.486 226.605C137.486 225.317 136.442 224.273 135.154 224.273C133.866 224.273 132.822 225.317 132.822 226.605C132.822 227.893 133.866 228.937 135.154 228.937Z" fill="white"/>
<path opacity="0.79" d="M58.5916 158.982C59.8794 158.982 60.9234 157.938 60.9234 156.65C60.9234 155.362 59.8794 154.318 58.5916 154.318C57.3038 154.318 56.2598 155.362 56.2598 156.65C56.2598 157.938 57.3038 158.982 58.5916 158.982Z" fill="#00A99D"/>
<path opacity="0.76" d="M272.732 85.9168C273.376 85.9168 273.898 85.3948 273.898 84.7509C273.898 84.107 273.376 83.585 272.732 83.585C272.088 83.585 271.566 84.107 271.566 84.7509C271.566 85.3948 272.088 85.9168 272.732 85.9168Z" fill="white"/>
<path opacity="0.75" d="M108.726 24.1238C109.37 24.1238 109.892 23.6018 109.892 22.9579C109.892 22.314 109.37 21.792 108.726 21.792C108.083 21.792 107.561 22.314 107.561 22.9579C107.561 23.6018 108.083 24.1238 108.726 24.1238Z" fill="white"/>
<path opacity="0.6" d="M90.0722 218.054C90.7161 218.054 91.2381 217.532 91.2381 216.889C91.2381 216.245 90.7161 215.723 90.0722 215.723C89.4282 215.723 88.9062 216.245 88.9062 216.889C88.9062 217.532 89.4282 218.054 90.0722 218.054Z" fill="white"/>
<path opacity="0.8" d="M167.637 150.12C223.971 150.12 269.64 135.4 269.64 117.241C269.64 99.0827 223.971 84.3623 167.637 84.3623C111.303 84.3623 65.6348 99.0827 65.6348 117.241C65.6348 135.4 111.303 150.12 167.637 150.12Z" stroke="url(#paint3_linear_1532_12197)" stroke-width="0.729904" stroke-miterlimit="10"/>
<g filter="url(#filter0_f_1532_12197)">
<path d="M167.371 23.7129C167.371 23.7129 210.51 57.7847 210.51 93.724C210.51 117.734 191.194 137.196 167.371 137.196C143.549 137.196 124.232 117.731 124.232 93.724C124.229 57.7847 167.371 23.7129 167.371 23.7129Z" fill="#221FD3" fill-opacity="0.9"/>
</g>
<path d="M167.299 24.124C167.299 24.124 210.454 57.9473 210.454 93.6245C210.454 117.46 191.13 136.779 167.299 136.779C143.468 136.779 124.145 117.456 124.145 93.6245C124.141 57.9473 167.299 24.124 167.299 24.124Z" fill="url(#paint4_linear_1532_12197)"/>
<path opacity="0.7" d="M210.453 93.4316C210.453 93.3655 210.449 93.2994 210.445 93.2295C210.445 93.3267 210.449 93.4238 210.449 93.521C210.453 93.486 210.453 93.4549 210.453 93.4316Z" fill="url(#paint5_linear_1532_12197)"/>
<path d="M210.452 93.6254C210.452 93.5905 210.452 93.5555 210.448 93.5205C210.441 93.9908 210.375 95.5026 210.289 97.3253C210.398 96.105 210.452 94.873 210.452 93.6254Z" fill="url(#paint6_linear_1532_12197)"/>
<path opacity="0.7" d="M167.297 136.78C189.885 136.78 208.415 119.427 210.292 97.325C210.378 95.4984 210.44 93.9866 210.452 93.5203C210.452 93.4231 210.448 93.3259 210.448 93.2288C210.308 88.4407 205.232 83.6877 201.777 81.1615C195.983 76.9292 188.692 74.3409 181.432 74.5119C175.956 74.644 170.418 76.389 165.956 79.5875C161.464 82.8055 157.993 87.1427 153.664 90.5394C153.096 90.9824 152.509 91.4061 151.903 91.7908C147.496 94.5929 142.296 96.4156 137.038 96.4156C132.405 96.4156 128.029 95.3197 124.15 93.3765C124.15 93.4581 124.146 93.5397 124.146 93.6213C124.139 117.46 143.462 136.78 167.297 136.78Z" fill="url(#paint7_linear_1532_12197)"/>
<g opacity="0.7">
<path opacity="0.7" d="M167.298 136.78C191.133 136.78 210.452 117.457 210.452 93.6255C210.452 87.3723 209.123 81.1735 206.935 75.2039C190.294 79.3663 180.799 100.94 162.024 98.122C153.124 96.7851 146.564 87.8114 146.599 79.032C146.618 73.731 148.946 68.5349 152.724 64.8506C136.525 64.8622 124.26 77.7262 124.26 93.5983C124.26 95.1839 124.326 96.9639 124.462 98.8876C127.058 120.24 145.246 136.78 167.298 136.78Z" fill="url(#paint8_linear_1532_12197)"/>
</g>
<path d="M181.682 64.8146C181.682 60.8621 184.904 57.6597 188.876 57.6597C184.904 57.6597 181.682 54.4573 181.682 50.5049C181.682 54.4573 178.46 57.6597 174.488 57.6597C178.464 57.6597 181.682 60.8621 181.682 64.8146Z" fill="white"/>
<path d="M210.46 98.7822C223.18 104.88 216.538 109.415 215.614 109.987C215.485 110.088 215.341 110.181 215.178 110.255C215.163 110.263 215.143 110.27 215.128 110.278C212.248 111.572 208.284 112.793 203.655 113.799C193.613 115.991 180.698 117.2 167.298 117.2C153.898 117.2 140.983 115.991 130.941 113.799C126.312 112.789 122.348 111.572 119.468 110.278L119.417 110.255C119.25 110.181 119.107 110.084 118.974 109.979C118.022 109.392 111.446 104.864 124.136 98.7822C115.189 101.347 109.756 104.717 109.756 108.405C109.756 116.442 135.519 122.956 167.298 122.956C199.077 122.956 224.84 116.442 224.84 108.405C224.84 104.717 219.407 101.347 210.46 98.7822Z" fill="white"/>
<path d="M210.451 98.7773C210.451 98.7773 210.455 98.7809 210.458 98.7809C210.455 98.7809 210.455 98.7809 210.451 98.7773Z" fill="white"/>
<path d="M124.14 98.7773C124.136 98.7773 124.136 98.7809 124.133 98.7809C124.136 98.7809 124.14 98.7809 124.14 98.7773Z" fill="white"/>
<path opacity="0.6" d="M105.078 97.1639C105.078 93.4097 107.29 90.3627 110.018 90.3627C107.29 90.3627 105.078 87.3197 105.078 83.5615C105.078 87.3158 102.867 90.3627 100.139 90.3627C102.867 90.3627 105.078 93.4058 105.078 97.1639Z" fill="white"/>
<path opacity="0.72" d="M73.2278 132.368H74.6929L76.7838 129.865L76.9548 126.9L74.2344 123.709L69.5668 124.261L67.7285 127.067L68.4786 130.965L70.2275 132.364L73.2278 132.368Z" fill="url(#paint9_linear_1532_12197)"/>
<path d="M308.127 101.285C313.6 101.285 318.037 96.8485 318.037 91.3752C318.037 85.9018 313.6 81.4648 308.127 81.4648C302.654 81.4648 298.217 85.9018 298.217 91.3752C298.217 96.8485 302.654 101.285 308.127 101.285Z" fill="url(#paint10_radial_1532_12197)"/>
<path d="M110.215 186.43C118.618 186.43 125.43 179.618 125.43 171.215C125.43 162.812 118.618 156 110.215 156C101.812 156 95 162.812 95 171.215C95 179.618 101.812 186.43 110.215 186.43Z" fill="url(#paint11_radial_1532_12197)"/>
<path opacity="0.6" d="M256.939 77.0758C260.388 77.0758 263.184 74.2797 263.184 70.8304C263.184 67.3811 260.388 64.585 256.939 64.585C253.49 64.585 250.693 67.3811 250.693 70.8304C250.693 74.2797 253.49 77.0758 256.939 77.0758Z" fill="url(#paint12_radial_1532_12197)"/>
<g opacity="0.66">
<g opacity="0.66" filter="url(#filter1_f_1532_12197)">
<path opacity="0.71" d="M86.037 76.6375C91.7486 76.6375 96.3787 72.0074 96.3787 66.2958C96.3787 60.5842 91.7486 55.9541 86.037 55.9541C80.3255 55.9541 75.6953 60.5842 75.6953 66.2958C75.6953 72.0074 80.3255 76.6375 86.037 76.6375Z" fill="url(#paint13_linear_1532_12197)"/>
<path opacity="0.66" d="M86.037 76.6375C91.7486 76.6375 96.3787 72.0074 96.3787 66.2958C96.3787 60.5842 91.7486 55.9541 86.037 55.9541C80.3255 55.9541 75.6953 60.5842 75.6953 66.2958C75.6953 72.0074 80.3255 76.6375 86.037 76.6375Z" fill="url(#paint14_radial_1532_12197)"/>
</g>
</g>
<path opacity="0.73" d="M256.937 73.1627C258.225 73.1627 259.269 72.1187 259.269 70.8309C259.269 69.543 258.225 68.499 256.937 68.499C255.649 68.499 254.605 69.543 254.605 70.8309C254.605 72.1187 255.649 73.1627 256.937 73.1627Z" fill="#ECD6FC"/>
<path opacity="0.9" d="M250.993 141.493C250.993 135.679 254.214 130.969 258.186 130.969C254.214 130.969 250.993 126.258 250.993 120.444C250.993 126.258 247.771 130.969 243.799 130.969C247.771 130.969 250.993 135.679 250.993 141.493Z" fill="white"/>
<path opacity="0.55" d="M38.1898 198.235C42.3753 198.235 45.7683 194.842 45.7683 190.657C45.7683 186.471 42.3753 183.078 38.1898 183.078C34.0043 183.078 30.6113 186.471 30.6113 190.657C30.6113 194.842 34.0043 198.235 38.1898 198.235Z" fill="url(#paint15_linear_1532_12197)"/>
<path opacity="0.55" d="M227.445 12.3632C228.926 12.3632 230.127 11.1626 230.127 9.68161C230.127 8.2006 228.926 7 227.445 7C225.964 7 224.764 8.2006 224.764 9.68161C224.764 11.1626 225.964 12.3632 227.445 12.3632Z" fill="url(#paint16_linear_1532_12197)"/>
<defs>
<filter id="filter0_f_1532_12197" x="100.914" y="0.394512" width="132.914" height="160.119" filterUnits="userSpaceOnUse" color-interpolation-filters="sRGB">
<feFlood flood-opacity="0" result="BackgroundImageFix"/>
<feBlend mode="normal" in="SourceGraphic" in2="BackgroundImageFix" result="shape"/>
<feGaussianBlur stdDeviation="11.6592" result="effect1_foregroundBlur_1532_12197"/>
</filter>
<filter id="filter1_f_1532_12197" x="74.1408" y="54.3995" width="23.7927" height="23.7927" filterUnits="userSpaceOnUse" color-interpolation-filters="sRGB">
<feFlood flood-opacity="0" result="BackgroundImageFix"/>
<feBlend mode="normal" in="SourceGraphic" in2="BackgroundImageFix" result="shape"/>
<feGaussianBlur stdDeviation="0.777279" result="effect1_foregroundBlur_1532_12197"/>
</filter>
<linearGradient id="paint0_linear_1532_12197" x1="11.7142" y1="116.32" x2="323.557" y2="116.32" gradientUnits="userSpaceOnUse">
<stop offset="0.2113" stop-color="white"/>
<stop offset="0.7518" stop-color="#A96880"/>
</linearGradient>
<linearGradient id="paint1_linear_1532_12197" x1="0.604604" y1="124.975" x2="326.364" y2="124.975" gradientUnits="userSpaceOnUse">
<stop offset="0.0209" stop-color="#572779"/>
<stop offset="0.38" stop-color="#1554E1"/>
<stop offset="0.6504" stop-color="#0A2779"/>
</linearGradient>
<linearGradient id="paint2_linear_1532_12197" x1="204.93" y1="194.31" x2="241.71" y2="194.31" gradientUnits="userSpaceOnUse">
<stop offset="0.1037" stop-color="#326BB3"/>
<stop offset="0.1235" stop-color="#356FB4"/>
<stop offset="0.3365" stop-color="#4F94C2"/>
<stop offset="0.5339" stop-color="#62B0CC"/>
<stop offset="0.7082" stop-color="#6DC0D2"/>
<stop offset="0.8409" stop-color="#71C6D4"/>
</linearGradient>
<linearGradient id="paint3_linear_1532_12197" x1="270.003" y1="117.239" x2="65.2699" y2="117.239" gradientUnits="userSpaceOnUse">
<stop offset="0.0994" stop-color="#009FE8"/>
<stop offset="0.3259" stop-color="#46A6E9"/>
<stop offset="0.5579" stop-color="#1554E1"/>
<stop offset="0.8261" stop-color="#0D3498"/>
</linearGradient>
<linearGradient id="paint4_linear_1532_12197" x1="124.143" y1="80.4523" x2="210.455" y2="80.4523" gradientUnits="userSpaceOnUse">
<stop offset="0.3289" stop-color="#D0EBFF"/>
<stop offset="0.7029" stop-color="#88D4FF"/>
</linearGradient>
<linearGradient id="paint5_linear_1532_12197" x1="126.627" y1="44.8798" x2="231.284" y2="105.178" gradientUnits="userSpaceOnUse">
<stop offset="0.4396" stop-color="#67C5E1"/>
<stop offset="0.6453" stop-color="#E68AE6"/>
</linearGradient>
<linearGradient id="paint6_linear_1532_12197" x1="124.145" y1="95.4228" x2="210.453" y2="95.4228" gradientUnits="userSpaceOnUse">
<stop offset="0.3289" stop-color="#D0EBFF"/>
<stop offset="0.7029" stop-color="#88D4FF"/>
</linearGradient>
<linearGradient id="paint7_linear_1532_12197" x1="111.823" y1="70.2169" x2="216.588" y2="130.703" gradientUnits="userSpaceOnUse">
<stop offset="0.4396" stop-color="#67C5E1"/>
<stop offset="0.6453" stop-color="#E68AE6"/>
</linearGradient>
<linearGradient id="paint8_linear_1532_12197" x1="167.356" y1="64.8552" x2="167.356" y2="136.782" gradientUnits="userSpaceOnUse">
<stop offset="0.0782" stop-color="#7CCBE9"/>
<stop offset="0.2381" stop-color="#009FE8"/>
<stop offset="0.4097" stop-color="#1554E1"/>
<stop offset="0.6645" stop-color="#000020"/>
</linearGradient>
<linearGradient id="paint9_linear_1532_12197" x1="69.8075" y1="132.102" x2="75.0198" y2="124.245" gradientUnits="userSpaceOnUse">
<stop offset="0.0782" stop-color="#7CCBE9"/>
<stop offset="0.431" stop-color="#009FE8"/>
<stop offset="0.6252" stop-color="#1554E1"/>
</linearGradient>
<radialGradient id="paint10_radial_1532_12197" cx="0" cy="0" r="1" gradientUnits="userSpaceOnUse" gradientTransform="translate(308.133 91.3923) rotate(-33.7997) scale(9.91046)">
<stop offset="0.1035" stop-opacity="0.1"/>
<stop offset="0.995" stop-color="white" stop-opacity="0.4"/>
</radialGradient>
<radialGradient id="paint11_radial_1532_12197" cx="0" cy="0" r="1" gradientUnits="userSpaceOnUse" gradientTransform="translate(110.211 171.227) rotate(46.3168) scale(15.2204)">
<stop offset="0.1035" stop-opacity="0.1"/>
<stop offset="0.995" stop-color="white" stop-opacity="0.4"/>
</radialGradient>
<radialGradient id="paint12_radial_1532_12197" cx="0" cy="0" r="1" gradientUnits="userSpaceOnUse" gradientTransform="translate(256.941 70.8368) rotate(46.3168) scale(6.24629)">
<stop offset="0.338532" stop-color="white"/>
<stop offset="0.979195" stop-opacity="0.1"/>
</radialGradient>
<linearGradient id="paint13_linear_1532_12197" x1="89.8293" y1="75.9139" x2="82.2278" y2="56.6775" gradientUnits="userSpaceOnUse">
<stop offset="0.2658" stop-color="#67E0E1"/>
<stop offset="0.7171" stop-color="#E671A1"/>
</linearGradient>
<radialGradient id="paint14_radial_1532_12197" cx="0" cy="0" r="1" gradientUnits="userSpaceOnUse" gradientTransform="translate(86.0394 66.3069) rotate(-101.502) scale(10.3441)">
<stop offset="0.1035" stop-opacity="0.1"/>
<stop offset="0.995" stop-color="white" stop-opacity="0.4"/>
</radialGradient>
<linearGradient id="paint15_linear_1532_12197" x1="44.1732" y1="186.021" x2="32.1856" y2="195.297" gradientUnits="userSpaceOnUse">
<stop offset="0.099" stop-color="white" stop-opacity="0.4"/>
<stop offset="0.9438" stop-color="white"/>
</linearGradient>
<linearGradient id="paint16_linear_1532_12197" x1="229.558" y1="8.03141" x2="225.315" y2="11.3144" gradientUnits="userSpaceOnUse">
<stop offset="0.099" stop-color="white" stop-opacity="0.4"/>
<stop offset="0.9438" stop-color="white"/>
</linearGradient>
</defs>
</svg>
