<svg width="266" height="133" viewBox="0 0 266 133" fill="none" xmlns="http://www.w3.org/2000/svg">
<path d="M16.7554 35H20.7454V25.73C20.7454 23.63 20.3854 20.54 20.1754 18.44H20.2954L22.0654 23.66L25.5154 32.99H28.0654L31.4854 23.66L33.2854 18.44H33.4354C33.1954 20.54 32.8654 23.63 32.8654 25.73V35H36.9154V12.77H31.9954L28.3054 23.18C27.8254 24.56 27.4354 26.03 26.9554 27.44H26.8054C26.3554 26.03 25.9354 24.56 25.4554 23.18L21.6754 12.77H16.7554V35ZM49.3209 35.42C51.3909 35.42 53.5209 34.7 55.1709 33.56L53.6709 30.86C52.4709 31.61 51.2709 32.03 49.8909 32.03C47.4009 32.03 45.6009 30.59 45.2409 27.83H55.5909C55.7109 27.44 55.8009 26.63 55.8009 25.79C55.8009 21.17 53.4009 17.78 48.7809 17.78C44.7909 17.78 40.9509 21.17 40.9509 26.6C40.9509 32.15 44.6109 35.42 49.3209 35.42ZM45.1809 24.89C45.5109 22.46 47.0709 21.2 48.8409 21.2C51.0009 21.2 52.0209 22.64 52.0209 24.89H45.1809ZM66.7525 35.42C68.8225 35.42 70.9525 34.7 72.6025 33.56L71.1025 30.86C69.9025 31.61 68.7025 32.03 67.3225 32.03C64.8325 32.03 63.0325 30.59 62.6725 27.83H73.0225C73.1425 27.44 73.2325 26.63 73.2325 25.79C73.2325 21.17 70.8325 17.78 66.2125 17.78C62.2225 17.78 58.3825 21.17 58.3825 26.6C58.3825 32.15 62.0425 35.42 66.7525 35.42ZM62.6125 24.89C62.9425 22.46 64.5025 21.2 66.2725 21.2C68.4325 21.2 69.4525 22.64 69.4525 24.89H62.6125ZM82.6626 35.42C84.1326 35.42 85.3026 35.09 86.2026 34.79L85.4826 31.58C85.0326 31.76 84.3726 31.94 83.8326 31.94C82.3326 31.94 81.5526 31.04 81.5526 29.12V21.68H85.6926V18.2H81.5526V13.67H77.8926L77.3826 18.2L74.7726 18.41V21.68H77.1426V29.12C77.1426 32.87 78.6726 35.42 82.6626 35.42ZM100.047 35.42C101.967 35.42 103.647 34.46 105.117 33.2H105.237L105.537 35H109.137V25.19C109.137 20.33 106.947 17.78 102.687 17.78C100.047 17.78 97.6471 18.77 95.6671 20L97.2571 22.91C98.8171 22.01 100.317 21.32 101.877 21.32C103.947 21.32 104.667 22.58 104.757 24.23C97.9771 24.95 95.0671 26.84 95.0671 30.44C95.0671 33.29 97.0471 35.42 100.047 35.42ZM101.487 31.97C100.197 31.97 99.2671 31.4 99.2671 30.08C99.2671 28.58 100.647 27.44 104.757 26.93V30.32C103.677 31.37 102.747 31.97 101.487 31.97ZM117.772 35.42C118.822 35.42 119.542 35.24 120.052 35.03L119.512 31.76C119.212 31.82 119.092 31.82 118.912 31.82C118.492 31.82 118.042 31.49 118.042 30.47V11.06H113.632V30.29C113.632 33.41 114.712 35.42 117.772 35.42ZM127.235 35.42C128.285 35.42 129.005 35.24 129.515 35.03L128.975 31.76C128.675 31.82 128.555 31.82 128.375 31.82C127.955 31.82 127.505 31.49 127.505 30.47V11.06H123.095V30.29C123.095 33.41 124.175 35.42 127.235 35.42ZM145.504 35.42C146.974 35.42 148.144 35.09 149.044 34.79L148.324 31.58C147.874 31.76 147.214 31.94 146.674 31.94C145.174 31.94 144.394 31.04 144.394 29.12V21.68H148.534V18.2H144.394V13.67H140.734L140.224 18.2L137.614 18.41V21.68H139.984V29.12C139.984 32.87 141.514 35.42 145.504 35.42ZM151.952 35H156.362V23.45C157.592 22.22 158.462 21.56 159.842 21.56C161.492 21.56 162.212 22.46 162.212 25.07V35H166.622V24.53C166.622 20.3 165.062 17.78 161.432 17.78C159.152 17.78 157.502 18.98 156.152 20.24L156.362 17.09V11.06H151.952V35ZM178.461 35.42C180.531 35.42 182.661 34.7 184.311 33.56L182.811 30.86C181.611 31.61 180.411 32.03 179.031 32.03C176.541 32.03 174.741 30.59 174.381 27.83H184.731C184.851 27.44 184.941 26.63 184.941 25.79C184.941 21.17 182.541 17.78 177.921 17.78C173.931 17.78 170.091 21.17 170.091 26.6C170.091 32.15 173.751 35.42 178.461 35.42ZM174.321 24.89C174.651 22.46 176.211 21.2 177.981 21.2C180.141 21.2 181.161 22.64 181.161 24.89H174.321ZM195.73 35H202.06C208.6 35 212.8 31.28 212.8 23.81C212.8 16.31 208.6 12.77 201.82 12.77H195.73V35ZM200.17 31.43V16.34H201.55C205.69 16.34 208.27 18.38 208.27 23.81C208.27 29.21 205.69 31.43 201.55 31.43H200.17ZM224.106 35.42C226.176 35.42 228.306 34.7 229.956 33.56L228.456 30.86C227.256 31.61 226.056 32.03 224.676 32.03C222.186 32.03 220.386 30.59 220.026 27.83H230.376C230.496 27.44 230.586 26.63 230.586 25.79C230.586 21.17 228.186 17.78 223.566 17.78C219.576 17.78 215.736 21.17 215.736 26.6C215.736 32.15 219.396 35.42 224.106 35.42ZM219.966 24.89C220.296 22.46 221.856 21.2 223.626 21.2C225.786 21.2 226.806 22.64 226.806 24.89H219.966ZM234.821 35H239.231V21.68H242.381V18.2H239.231V16.76C239.231 14.9 239.951 14.12 241.271 14.12C241.811 14.12 242.471 14.24 243.041 14.48L243.851 11.21C243.101 10.94 241.961 10.64 240.671 10.64C236.441 10.64 234.821 13.34 234.821 16.85V18.23L232.571 18.41V21.68H234.821V35ZM245.231 35H249.611V18.2H245.231V35ZM247.421 15.5C248.951 15.5 250.001 14.54 250.001 13.07C250.001 11.63 248.951 10.67 247.421 10.67C245.891 10.67 244.871 11.63 244.871 13.07C244.871 14.54 245.891 15.5 247.421 15.5ZM46.6591 78H51.0691V61.2H46.6591V78ZM48.8791 58.5C50.3791 58.5 51.4291 57.54 51.4291 56.07C51.4291 54.63 50.3791 53.67 48.8791 53.67C47.3491 53.67 46.2991 54.63 46.2991 56.07C46.2991 57.54 47.3491 58.5 48.8791 58.5ZM55.7704 78H60.1804V66.45C61.4104 65.22 62.2804 64.56 63.6604 64.56C65.3104 64.56 66.0304 65.46 66.0304 68.07V78H70.4404V67.53C70.4404 63.3 68.8804 60.78 65.2504 60.78C62.9704 60.78 61.2604 61.98 59.7904 63.42H59.7004L59.3704 61.2H55.7704V78ZM87.936 78.42C89.406 78.42 90.576 78.09 91.476 77.79L90.756 74.58C90.306 74.76 89.646 74.94 89.106 74.94C87.606 74.94 86.826 74.04 86.826 72.12V64.68H90.966V61.2H86.826V56.67H83.166L82.656 61.2L80.046 61.41V64.68H82.416V72.12C82.416 75.87 83.946 78.42 87.936 78.42ZM94.3837 78H98.7937V66.45C100.024 65.22 100.894 64.56 102.274 64.56C103.924 64.56 104.644 65.46 104.644 68.07V78H109.054V67.53C109.054 63.3 107.494 60.78 103.864 60.78C101.584 60.78 99.9337 61.98 98.5837 63.24L98.7937 60.09V54.06H94.3837V78ZM120.893 78.42C122.963 78.42 125.093 77.7 126.743 76.56L125.243 73.86C124.043 74.61 122.843 75.03 121.463 75.03C118.973 75.03 117.173 73.59 116.813 70.83H127.163C127.283 70.44 127.373 69.63 127.373 68.79C127.373 64.17 124.973 60.78 120.353 60.78C116.363 60.78 112.523 64.17 112.523 69.6C112.523 75.15 116.183 78.42 120.893 78.42ZM116.753 67.89C117.083 65.46 118.643 64.2 120.413 64.2C122.573 64.2 123.593 65.64 123.593 67.89H116.753ZM140.592 78H145.632L147.342 70.68C147.702 69.12 147.942 67.56 148.272 65.79H148.422C148.752 67.56 149.022 69.09 149.382 70.68L151.152 78H156.342L160.482 61.2H156.402L154.572 69.48C154.272 71.13 154.032 72.72 153.732 74.4H153.582C153.222 72.72 152.922 71.13 152.532 69.48L150.432 61.2H146.532L144.492 69.48C144.072 71.1 143.772 72.72 143.442 74.4H143.322C143.022 72.72 142.812 71.13 142.482 69.48L140.652 61.2H136.242L140.592 78ZM170.486 78.42C174.686 78.42 178.556 75.18 178.556 69.6C178.556 64.02 174.686 60.78 170.486 60.78C166.286 60.78 162.416 64.02 162.416 69.6C162.416 75.18 166.286 78.42 170.486 78.42ZM170.486 74.82C168.206 74.82 166.916 72.78 166.916 69.6C166.916 66.45 168.206 64.38 170.486 64.38C172.766 64.38 174.056 66.45 174.056 69.6C174.056 72.78 172.766 74.82 170.486 74.82ZM182.245 78H186.655V67.98C187.585 65.55 189.175 64.68 190.495 64.68C191.185 64.68 191.665 64.77 192.265 64.95L193.015 61.14C192.505 60.93 191.965 60.78 191.035 60.78C189.295 60.78 187.495 61.98 186.265 64.17H186.175L185.845 61.2H182.245V78ZM199.451 78.42C200.501 78.42 201.221 78.24 201.731 78.03L201.191 74.76C200.891 74.82 200.771 74.82 200.591 74.82C200.171 74.82 199.721 74.49 199.721 73.47V54.06H195.311V73.29C195.311 76.41 196.391 78.42 199.451 78.42ZM210.684 78.42C212.424 78.42 214.104 77.46 215.334 76.26H215.454L215.784 78H219.354V54.06H214.974V59.97L215.124 62.61C213.924 61.5 212.754 60.78 210.864 60.78C207.234 60.78 203.814 64.14 203.814 69.6C203.814 75.12 206.514 78.42 210.684 78.42ZM211.824 74.79C209.604 74.79 208.344 73.05 208.344 69.57C208.344 66.21 209.934 64.41 211.824 64.41C212.874 64.41 213.954 64.74 214.974 65.67V73.05C213.984 74.31 212.994 74.79 211.824 74.79Z" fill="white"/>
<path d="M36.3118 125.42C38.2318 125.42 39.9118 124.46 41.3818 123.2H41.5018L41.8018 125H45.4018V115.19C45.4018 110.33 43.2118 107.78 38.9518 107.78C36.3118 107.78 33.9118 108.77 31.9318 110L33.5218 112.91C35.0818 112.01 36.5818 111.32 38.1418 111.32C40.2118 111.32 40.9318 112.58 41.0218 114.23C34.2418 114.95 31.3318 116.84 31.3318 120.44C31.3318 123.29 33.3118 125.42 36.3118 125.42ZM37.7518 121.97C36.4618 121.97 35.5318 121.4 35.5318 120.08C35.5318 118.58 36.9118 117.44 41.0218 116.93V120.32C39.9418 121.37 39.0118 121.97 37.7518 121.97ZM55.4897 125.42C56.9597 125.42 58.1297 125.09 59.0297 124.79L58.3097 121.58C57.8597 121.76 57.1997 121.94 56.6597 121.94C55.1597 121.94 54.3797 121.04 54.3797 119.12V111.68H58.5197V108.2H54.3797V103.67H50.7197L50.2097 108.2L47.5997 108.41V111.68H49.9697V119.12C49.9697 122.87 51.4997 125.42 55.4897 125.42ZM73.9243 113.42C74.5843 111.11 75.2443 108.59 75.8143 106.16H75.9643C76.5943 108.56 77.1943 111.11 77.8843 113.42L78.5443 115.85H73.2643L73.9243 113.42ZM66.2443 125H70.7443L72.3043 119.3H79.5043L81.0643 125H85.7143L78.5743 102.77H73.3543L66.2443 125ZM98.153 131.45H102.533V108.2H99.083L98.723 109.85H98.603C97.253 108.44 95.903 107.78 94.043 107.78C90.413 107.78 86.993 111.14 86.993 116.6C86.993 122.12 89.693 125.42 93.863 125.42C95.513 125.42 97.163 124.58 98.303 123.41L98.153 126.11V131.45ZM95.003 121.79C92.783 121.79 91.523 120.05 91.523 116.57C91.523 113.21 93.113 111.41 95.003 111.41C96.053 111.41 97.133 111.74 98.153 112.67V120.05C97.163 121.31 96.173 121.79 95.003 121.79ZM112.27 125.42C114.55 125.42 116.17 124.31 117.61 122.6H117.73L118.06 125H121.66V108.2H117.25V119.54C116.11 121.04 115.21 121.64 113.83 121.64C112.21 121.64 111.49 120.71 111.49 118.13V108.2H107.08V118.7C107.08 122.9 108.64 125.42 112.27 125.42ZM130.501 125.42C132.421 125.42 134.101 124.46 135.571 123.2H135.691L135.991 125H139.591V115.19C139.591 110.33 137.401 107.78 133.141 107.78C130.501 107.78 128.101 108.77 126.121 110L127.711 112.91C129.271 112.01 130.771 111.32 132.331 111.32C134.401 111.32 135.121 112.58 135.211 114.23C128.431 114.95 125.521 116.84 125.521 120.44C125.521 123.29 127.501 125.42 130.501 125.42ZM131.941 121.97C130.651 121.97 129.721 121.4 129.721 120.08C129.721 118.58 131.101 117.44 135.211 116.93V120.32C134.131 121.37 133.201 121.97 131.941 121.97ZM157.873 125.42C163.003 125.42 166.033 122.33 166.033 118.7C166.033 115.49 164.263 113.78 161.563 112.67L158.653 111.44C156.763 110.69 155.203 110.12 155.203 108.53C155.203 107.06 156.433 106.19 158.383 106.19C160.213 106.19 161.683 106.85 163.093 108.02L165.343 105.23C163.543 103.4 160.963 102.38 158.383 102.38C153.883 102.38 150.703 105.17 150.703 108.8C150.703 112.04 152.953 113.84 155.203 114.77L158.173 116.03C160.153 116.87 161.503 117.38 161.503 119.03C161.503 120.59 160.273 121.58 157.963 121.58C156.013 121.58 153.913 120.59 152.323 119.12L149.773 122.18C151.933 124.25 154.903 125.42 157.873 125.42ZM169.603 131.45H174.013V126.35L173.863 123.59C175.153 124.76 176.563 125.42 178.033 125.42C181.723 125.42 185.173 122.09 185.173 116.33C185.173 111.17 182.713 107.78 178.573 107.78C176.773 107.78 175.033 108.74 173.623 109.94H173.533L173.203 108.2H169.603V131.45ZM177.043 121.79C176.143 121.79 175.063 121.46 174.013 120.53V113.15C175.153 111.98 176.173 111.41 177.313 111.41C179.623 111.41 180.643 113.18 180.643 116.39C180.643 120.05 179.083 121.79 177.043 121.79ZM192.64 125.42C194.56 125.42 196.24 124.46 197.71 123.2H197.83L198.13 125H201.73V115.19C201.73 110.33 199.54 107.78 195.28 107.78C192.64 107.78 190.24 108.77 188.26 110L189.85 112.91C191.41 112.01 192.91 111.32 194.47 111.32C196.54 111.32 197.26 112.58 197.35 114.23C190.57 114.95 187.66 116.84 187.66 120.44C187.66 123.29 189.64 125.42 192.64 125.42ZM194.08 121.97C192.79 121.97 191.86 121.4 191.86 120.08C191.86 118.58 193.24 117.44 197.35 116.93V120.32C196.27 121.37 195.34 121.97 194.08 121.97ZM213.364 125.42C215.224 125.42 217.264 124.79 218.884 123.38L217.114 120.47C216.184 121.25 215.044 121.82 213.844 121.82C211.444 121.82 209.674 119.78 209.674 116.6C209.674 113.45 211.414 111.38 213.994 111.38C214.924 111.38 215.704 111.77 216.544 112.49L218.644 109.64C217.414 108.59 215.824 107.78 213.754 107.78C209.194 107.78 205.174 111.02 205.174 116.6C205.174 122.18 208.714 125.42 213.364 125.42ZM228.457 125.42C230.527 125.42 232.657 124.7 234.307 123.56L232.807 120.86C231.607 121.61 230.407 122.03 229.027 122.03C226.537 122.03 224.737 120.59 224.377 117.83H234.727C234.847 117.44 234.937 116.63 234.937 115.79C234.937 111.17 232.537 107.78 227.917 107.78C223.927 107.78 220.087 111.17 220.087 116.6C220.087 122.15 223.747 125.42 228.457 125.42ZM224.317 114.89C224.647 112.46 226.207 111.2 227.977 111.2C230.137 111.2 231.157 112.64 231.157 114.89H224.317Z" fill="url(#paint0_linear_1708_13847)"/>
<defs>
<linearGradient id="paint0_linear_1708_13847" x1="-19.8362" y1="111.5" x2="195.331" y2="125.953" gradientUnits="userSpaceOnUse">
<stop stop-color="#2DC2E2"/>
<stop offset="1" stop-color="white"/>
</linearGradient>
</defs>
</svg>
