<svg width="266" height="133" viewBox="0 0 266 133" fill="none" xmlns="http://www.w3.org/2000/svg">
<path d="M14.1121 28.01C12.0421 28.01 10.6621 25.82 10.6621 21.71C10.6621 17.63 12.0421 15.44 14.1121 15.44C16.1521 15.44 17.5621 17.63 17.5621 21.71C17.5621 25.82 16.1521 28.01 14.1121 28.01ZM14.1121 11.87C9.91211 11.87 6.85211 15.65 6.85211 21.71C6.85211 27.8 9.91211 31.61 14.1121 31.61C18.2821 31.61 21.3721 27.8 21.3721 21.71C21.3721 15.65 18.2821 11.87 14.1121 11.87ZM32.3521 20.36H28.3321V9.95H24.3721V37.58H28.3321V23.63H32.3521V20.36ZM59.2898 24.53H55.6298C56.5598 20.03 56.5598 16.82 56.5598 13.97V11.48H37.2098V14.63H52.7498C52.7498 15.53 52.7498 16.46 52.6898 17.45L36.3098 17.96L36.7598 21.32L52.4198 20.51C52.2698 21.74 52.0598 23.09 51.7298 24.53H34.3298V27.74H44.7998V37.52H48.7598V27.74H59.2898V24.53ZM69.3074 28.01C67.2374 28.01 65.8574 25.82 65.8574 21.71C65.8574 17.63 67.2374 15.44 69.3074 15.44C71.3474 15.44 72.7574 17.63 72.7574 21.71C72.7574 25.82 71.3474 28.01 69.3074 28.01ZM69.3074 11.87C65.1074 11.87 62.0474 15.65 62.0474 21.71C62.0474 27.8 65.1074 31.61 69.3074 31.61C73.4774 31.61 76.5674 27.8 76.5674 21.71C76.5674 15.65 73.4774 11.87 69.3074 11.87ZM87.5474 20.36H83.5274V9.95H79.5674V37.58H83.5274V23.63H87.5474V20.36ZM120.442 22.94C114.202 21.89 110.782 17.6 110.782 13.55V11.57H106.552V13.55C106.552 17.51 103.102 21.89 96.892 22.94L98.572 26.27C103.372 25.34 106.882 22.64 108.652 19.13C110.422 22.64 113.962 25.31 118.762 26.27L120.442 22.94ZM96.292 31.01V34.22H121.312V31.01H96.292ZM129.32 16.22H131.36V27.92C130.7 27.98 129.98 28.01 129.32 28.01V16.22ZM134.9 16.22H136.67V13.07H124.1V16.22H125.78V28.1C125 28.1 124.28 28.1 123.62 28.1L124.04 31.31C127.46 31.31 133.04 31.22 137.33 30.29L137.06 27.44C136.4 27.53 135.65 27.59 134.9 27.68V16.22ZM138.62 20.03H135.98V23.48H138.62V36.32H142.31V10.52H138.62V20.03ZM144.11 9.95V37.61H147.86V9.95H144.11ZM170.417 9.92V37.64H174.377V9.92H170.417ZM159.527 11.87C155.357 11.87 152.267 15.65 152.267 21.71C152.267 27.8 155.357 31.61 159.527 31.61C163.697 31.61 166.787 27.8 166.787 21.71C166.787 15.65 163.697 11.87 159.527 11.87ZM159.527 15.44C161.567 15.44 162.977 17.63 162.977 21.71C162.977 25.82 161.567 28.01 159.527 28.01C157.487 28.01 156.077 25.82 156.077 21.71C156.077 17.63 157.487 15.44 159.527 15.44ZM203.235 22.94C196.995 21.89 193.575 17.6 193.575 13.55V11.57H189.345V13.55C189.345 17.51 185.895 21.89 179.685 22.94L181.365 26.27C186.165 25.34 189.675 22.64 191.445 19.13C193.215 22.64 196.755 25.31 201.555 26.27L203.235 22.94ZM179.085 31.01V34.22H204.105V31.01H179.085ZM212.893 28.25C211.393 28.25 210.493 26.18 210.493 21.92C210.493 17.69 211.393 15.62 212.893 15.62C214.423 15.62 215.293 17.69 215.293 21.92C215.293 26.18 214.423 28.25 212.893 28.25ZM221.023 20.12H218.833C218.383 14.96 216.163 11.9 212.893 11.9C209.233 11.9 206.923 15.68 206.923 21.92C206.923 28.19 209.233 31.97 212.893 31.97C216.253 31.97 218.503 28.73 218.863 23.33H221.023V36.35H224.713V10.4H221.023V20.12ZM226.633 9.92V37.55H230.383V9.92H226.633ZM244.66 12.08H240.67V16.07C240.67 21.32 238.57 26.69 233.89 28.85L236.35 32.03C239.44 30.47 241.51 27.59 242.71 24.05C243.85 27.38 245.86 30.08 248.89 31.55L251.23 28.4C246.67 26.36 244.66 21.29 244.66 16.07V12.08ZM253.51 9.92V18.59H248.2V21.77H253.51V37.64H257.47V9.92H253.51Z" fill="url(#paint0_linear_1518_12906)"/>
<path d="M20.7663 59.35H16.9563V64C16.9563 68.71 15.4863 73.66 11.4363 76.12L13.8063 79.09C16.2963 77.59 17.9163 74.95 18.8763 71.89C19.7463 74.68 21.2163 77.02 23.5563 78.46L25.7163 75.4C21.9663 72.91 20.7663 68.32 20.7663 63.85V59.35ZM26.2863 66.28H22.8063V69.49H26.2863V83.35H29.9763V57.4H26.2863V66.28ZM31.8963 56.95V84.58H35.6463V56.95H31.8963ZM55.8339 69.19C51.4839 67.84 49.6239 64.6 49.6239 61.27V58.45H45.6039V60.94C45.6039 64.69 43.7439 68.38 39.1239 69.91L41.1939 73.03C44.3439 71.92 46.4739 69.79 47.6739 67.09C48.8439 69.43 50.8539 71.29 53.7639 72.25L55.8339 69.19ZM52.2639 81.52C48.7239 81.52 46.8339 80.8 46.8339 79.24C46.8339 77.71 48.7239 76.99 52.2639 76.99C55.7739 76.99 57.6639 77.71 57.6639 79.24C57.6639 80.8 55.7739 81.52 52.2639 81.52ZM52.2639 73.93C46.5039 73.93 42.9039 75.91 42.9039 79.24C42.9039 82.6 46.5039 84.58 52.2639 84.58C57.9939 84.58 61.5939 82.6 61.5939 79.24C61.5939 75.91 57.9939 73.93 52.2639 73.93ZM61.2939 63.37V56.98H57.3339V73.3H61.2939V66.64H64.9539V63.37H61.2939ZM76.0216 58.78C71.7016 58.78 68.4316 61.63 68.4316 65.59C68.4316 69.58 71.7016 72.4 76.0216 72.4C80.3416 72.4 83.6416 69.58 83.6416 65.59C83.6416 61.63 80.3416 58.78 76.0216 58.78ZM76.0216 62.17C78.1516 62.17 79.7716 63.43 79.7716 65.59C79.7716 67.75 78.1516 69.01 76.0216 69.01C73.8916 69.01 72.2716 67.75 72.2716 65.59C72.2716 63.43 73.8916 62.17 76.0216 62.17ZM86.2216 56.92V84.64H90.1816V56.92H86.2216ZM67.7716 79.03C72.5416 79.03 79.0216 78.97 84.9616 77.77L84.7216 74.92C78.9016 75.79 72.1216 75.82 67.2616 75.82L67.7716 79.03ZM108.046 62.11H119.956V69.43H108.046V62.11ZM115.996 78.16V72.55H123.826V58.99H104.176V72.55H112.036V78.16H101.536V81.37H126.556V78.16H115.996ZM151.394 65.2H136.124V61.09H151.184V57.94H132.194V68.35H151.394V65.2ZM136.064 75.82H132.104V84.1H151.604V80.95H136.064V75.82ZM129.164 70.6V73.75H154.154V70.6H129.164ZM164.968 82H171.298C177.838 82 182.038 78.28 182.038 70.81C182.038 63.31 177.838 59.77 171.058 59.77H164.968V82ZM169.408 78.43V63.34H170.788C174.928 63.34 177.508 65.38 177.508 70.81C177.508 76.21 174.928 78.43 170.788 78.43H169.408ZM193.344 82.42C195.414 82.42 197.544 81.7 199.194 80.56L197.694 77.86C196.494 78.61 195.294 79.03 193.914 79.03C191.424 79.03 189.624 77.59 189.264 74.83H199.614C199.734 74.44 199.824 73.63 199.824 72.79C199.824 68.17 197.424 64.78 192.804 64.78C188.814 64.78 184.974 68.17 184.974 73.6C184.974 79.15 188.634 82.42 193.344 82.42ZM189.204 71.89C189.534 69.46 191.094 68.2 192.864 68.2C195.024 68.2 196.044 69.64 196.044 71.89H189.204ZM203.816 82H208.256V73H216.146V69.28H208.256V63.49H217.496V59.77H203.816V82ZM221.005 82H225.415V65.2H221.005V82ZM223.225 62.5C224.725 62.5 225.775 61.54 225.775 60.07C225.775 58.63 224.725 57.67 223.225 57.67C221.695 57.67 220.645 58.63 220.645 60.07C220.645 61.54 221.695 62.5 223.225 62.5ZM247.096 61.45H232.156V68.05H251.476V65.38H236.056V63.94H250.996V57.43H232.096V60.1H247.096V61.45ZM235.816 80.17H251.086V73.6H231.856V76.27H247.156V77.68H231.886V84.34H251.836V81.67H235.816V80.17ZM229.036 69.37V72.22H254.056V69.37H229.036ZM75.3759 112.43H69.9759V105.35H75.3759V112.43ZM79.2759 102.23H66.1059V115.55H79.2759V102.23ZM73.1859 118.13H69.2259V127.1H88.0359V123.95H73.1859V118.13ZM87.0459 107.93V99.95H83.0859V120.11H87.0459V111.17H90.7059V107.93H87.0459ZM97.6935 102.56H93.7335V120.8H96.1335C100.154 120.8 104.594 120.56 109.184 119.6L108.794 116.36C104.924 117.11 101.174 117.41 97.6935 117.5V102.56ZM118.394 110.36H114.524V99.92H110.564V127.52H114.524V113.63H118.394V110.36ZM127.061 109.07H138.881V112.94H127.061V109.07ZM134.951 121.16V116.09H142.781V101.66H138.881V105.95H127.061V101.66H123.131V116.09H130.991V121.16H120.491V124.37H145.511V121.16H134.951ZM156.909 102.35H153.099V107C153.099 111.71 151.629 116.66 147.579 119.12L149.949 122.09C152.439 120.59 154.059 117.95 155.019 114.89C155.889 117.68 157.359 120.02 159.699 121.46L161.859 118.4C158.109 115.91 156.909 111.32 156.909 106.85V102.35ZM162.429 109.28H158.949V112.49H162.429V126.35H166.119V100.4H162.429V109.28ZM168.039 99.95V127.58H171.789V99.95H168.039ZM185.136 115.88C186.096 116.06 187.086 116.15 188.166 116.15C189.246 116.15 190.266 116.06 191.226 115.88V121.16H185.136V115.88ZM188.166 104.42C192.006 104.42 194.586 105.98 194.586 108.74C194.586 111.47 192.006 113.06 188.166 113.06C184.326 113.06 181.776 111.47 181.776 108.74C181.776 105.98 184.326 104.42 188.166 104.42ZM195.156 121.16V114.41C197.226 113.12 198.486 111.14 198.486 108.74C198.486 104.21 194.136 101.3 188.166 101.3C182.226 101.3 177.876 104.21 177.876 108.74C177.846 111.14 179.106 113.12 181.206 114.41V121.16H175.686V124.37H200.706V121.16H195.156Z" fill="white"/>
<defs>
<linearGradient id="paint0_linear_1518_12906" x1="-19.8362" y1="21.5" x2="195.331" y2="35.9529" gradientUnits="userSpaceOnUse">
<stop stop-color="#2DC2E2"/>
<stop offset="1" stop-color="white"/>
</linearGradient>
</defs>
</svg>
