<svg width="601" height="126" viewBox="0 0 601 126" fill="none" xmlns="http://www.w3.org/2000/svg">
<path d="M3.822 49H9.408V36.022C9.408 33.082 8.904 28.756 8.61 25.816H8.778L11.256 33.124L16.086 46.186H19.656L24.444 33.124L26.964 25.816H27.174C26.838 28.756 26.376 33.082 26.376 36.022V49H32.046V17.878H25.158L19.992 32.452C19.32 34.384 18.774 36.442 18.102 38.416H17.892C17.262 36.442 16.674 34.384 16.002 32.452L10.71 17.878H3.822V49ZM49.4137 49.588C52.3117 49.588 55.2937 48.58 57.6037 46.984L55.5037 43.204C53.8237 44.254 52.1437 44.842 50.2117 44.842C46.7257 44.842 44.2057 42.826 43.7017 38.962H58.1917C58.3597 38.416 58.4857 37.282 58.4857 36.106C58.4857 29.638 55.1257 24.892 48.6577 24.892C43.0717 24.892 37.6957 29.638 37.6957 37.24C37.6957 45.01 42.8197 49.588 49.4137 49.588ZM43.6177 34.846C44.0797 31.444 46.2637 29.68 48.7417 29.68C51.7657 29.68 53.1937 31.696 53.1937 34.846H43.6177ZM73.818 49.588C76.716 49.588 79.698 48.58 82.008 46.984L79.908 43.204C78.228 44.254 76.548 44.842 74.616 44.842C71.13 44.842 68.61 42.826 68.106 38.962H82.596C82.764 38.416 82.89 37.282 82.89 36.106C82.89 29.638 79.53 24.892 73.062 24.892C67.476 24.892 62.1 29.638 62.1 37.24C62.1 45.01 67.224 49.588 73.818 49.588ZM68.022 34.846C68.484 31.444 70.668 29.68 73.146 29.68C76.17 29.68 77.598 31.696 77.598 34.846H68.022ZM96.0921 49.588C98.1501 49.588 99.7881 49.126 101.048 48.706L100.04 44.212C99.4101 44.464 98.4861 44.716 97.7301 44.716C95.6301 44.716 94.5381 43.456 94.5381 40.768V30.352H100.334V25.48H94.5381V19.138H89.4141L88.7001 25.48L85.0461 25.774V30.352H88.3641V40.768C88.3641 46.018 90.5061 49.588 96.0921 49.588ZM120.43 49.588C123.118 49.588 125.47 48.244 127.528 46.48H127.696L128.116 49H133.156V35.266C133.156 28.462 130.09 24.892 124.126 24.892C120.43 24.892 117.07 26.278 114.298 28L116.524 32.074C118.708 30.814 120.808 29.848 122.992 29.848C125.89 29.848 126.898 31.612 127.024 33.922C117.532 34.93 113.458 37.576 113.458 42.616C113.458 46.606 116.23 49.588 120.43 49.588ZM122.446 44.758C120.64 44.758 119.338 43.96 119.338 42.112C119.338 40.012 121.27 38.416 127.024 37.702V42.448C125.512 43.918 124.21 44.758 122.446 44.758ZM145.245 49.588C146.715 49.588 147.723 49.336 148.437 49.042L147.681 44.464C147.261 44.548 147.093 44.548 146.841 44.548C146.253 44.548 145.623 44.086 145.623 42.658V15.484H139.449V42.406C139.449 46.774 140.961 49.588 145.245 49.588ZM158.493 49.588C159.963 49.588 160.971 49.336 161.685 49.042L160.929 44.464C160.509 44.548 160.341 44.548 160.089 44.548C159.501 44.548 158.871 44.086 158.871 42.658V15.484H152.697V42.406C152.697 46.774 154.209 49.588 158.493 49.588ZM184.071 49.588C186.129 49.588 187.767 49.126 189.027 48.706L188.019 44.212C187.389 44.464 186.465 44.716 185.709 44.716C183.609 44.716 182.517 43.456 182.517 40.768V30.352H188.313V25.48H182.517V19.138H177.393L176.679 25.48L173.025 25.774V30.352H176.343V40.768C176.343 46.018 178.485 49.588 184.071 49.588ZM193.097 49H199.271V32.83C200.993 31.108 202.211 30.184 204.143 30.184C206.453 30.184 207.461 31.444 207.461 35.098V49H213.635V34.342C213.635 28.42 211.451 24.892 206.369 24.892C203.177 24.892 200.867 26.572 198.977 28.336L199.271 23.926V15.484H193.097V49ZM230.211 49.588C233.109 49.588 236.091 48.58 238.401 46.984L236.301 43.204C234.621 44.254 232.941 44.842 231.009 44.842C227.523 44.842 225.003 42.826 224.499 38.962H238.989C239.157 38.416 239.283 37.282 239.283 36.106C239.283 29.638 235.923 24.892 229.455 24.892C223.869 24.892 218.493 29.638 218.493 37.24C218.493 45.01 223.617 49.588 230.211 49.588ZM224.415 34.846C224.877 31.444 227.061 29.68 229.539 29.68C232.563 29.68 233.991 31.696 233.991 34.846H224.415ZM254.386 49H263.248C272.404 49 278.284 43.792 278.284 33.334C278.284 22.834 272.404 17.878 262.912 17.878H254.386V49ZM260.602 44.002V22.876H262.534C268.33 22.876 271.942 25.732 271.942 33.334C271.942 40.894 268.33 44.002 262.534 44.002H260.602ZM294.113 49.588C297.011 49.588 299.993 48.58 302.303 46.984L300.203 43.204C298.523 44.254 296.843 44.842 294.911 44.842C291.425 44.842 288.905 42.826 288.401 38.962H302.891C303.059 38.416 303.185 37.282 303.185 36.106C303.185 29.638 299.825 24.892 293.357 24.892C287.771 24.892 282.395 29.638 282.395 37.24C282.395 45.01 287.519 49.588 294.113 49.588ZM288.317 34.846C288.779 31.444 290.963 29.68 293.441 29.68C296.465 29.68 297.893 31.696 297.893 34.846H288.317ZM308.773 49H314.989V36.4H326.035V31.192H314.989V23.086H327.925V17.878H308.773V49ZM332.838 49H339.012V25.48H332.838V49ZM335.946 21.7C338.046 21.7 339.516 20.356 339.516 18.298C339.516 16.282 338.046 14.938 335.946 14.938C333.804 14.938 332.334 16.282 332.334 18.298C332.334 20.356 333.804 21.7 335.946 21.7ZM355.109 49H361.283V25.48H355.109V49ZM358.217 21.7C360.317 21.7 361.787 20.356 361.787 18.298C361.787 16.282 360.317 14.938 358.217 14.938C356.075 14.938 354.605 16.282 354.605 18.298C354.605 20.356 356.075 21.7 358.217 21.7ZM367.865 49H374.039V32.83C375.761 31.108 376.979 30.184 378.911 30.184C381.221 30.184 382.229 31.444 382.229 35.098V49H388.403V34.342C388.403 28.42 386.219 24.892 381.137 24.892C377.945 24.892 375.551 26.572 373.493 28.588H373.367L372.905 25.48H367.865V49ZM412.897 49.588C414.955 49.588 416.593 49.126 417.853 48.706L416.845 44.212C416.215 44.464 415.291 44.716 414.535 44.716C412.435 44.716 411.343 43.456 411.343 40.768V30.352H417.139V25.48H411.343V19.138H406.219L405.505 25.48L401.851 25.774V30.352H405.169V40.768C405.169 46.018 407.311 49.588 412.897 49.588ZM421.923 49H428.097V32.83C429.819 31.108 431.037 30.184 432.969 30.184C435.279 30.184 436.287 31.444 436.287 35.098V49H442.461V34.342C442.461 28.42 440.277 24.892 435.195 24.892C432.003 24.892 429.693 26.572 427.803 28.336L428.097 23.926V15.484H421.923V49ZM459.037 49.588C461.935 49.588 464.917 48.58 467.227 46.984L465.127 43.204C463.447 44.254 461.767 44.842 459.835 44.842C456.349 44.842 453.829 42.826 453.325 38.962H467.815C467.983 38.416 468.109 37.282 468.109 36.106C468.109 29.638 464.749 24.892 458.281 24.892C452.695 24.892 447.319 29.638 447.319 37.24C447.319 45.01 452.443 49.588 459.037 49.588ZM453.241 34.846C453.703 31.444 455.887 29.68 458.365 29.68C461.389 29.68 462.817 31.696 462.817 34.846H453.241ZM486.615 49H493.671L496.065 38.752C496.569 36.568 496.905 34.384 497.367 31.906H497.577C498.039 34.384 498.417 36.526 498.921 38.752L501.399 49H508.665L514.461 25.48H508.749L506.187 37.072C505.767 39.382 505.431 41.608 505.011 43.96H504.801C504.297 41.608 503.877 39.382 503.331 37.072L500.391 25.48H494.931L492.075 37.072C491.487 39.34 491.067 41.608 490.605 43.96H490.437C490.017 41.608 489.723 39.382 489.261 37.072L486.699 25.48H480.525L486.615 49ZM528.466 49.588C534.346 49.588 539.764 45.052 539.764 37.24C539.764 29.428 534.346 24.892 528.466 24.892C522.586 24.892 517.168 29.428 517.168 37.24C517.168 45.052 522.586 49.588 528.466 49.588ZM528.466 44.548C525.274 44.548 523.468 41.692 523.468 37.24C523.468 32.83 525.274 29.932 528.466 29.932C531.658 29.932 533.464 32.83 533.464 37.24C533.464 41.692 531.658 44.548 528.466 44.548ZM544.929 49H551.103V34.972C552.405 31.57 554.631 30.352 556.479 30.352C557.445 30.352 558.117 30.478 558.957 30.73L560.007 25.396C559.293 25.102 558.537 24.892 557.235 24.892C554.799 24.892 552.279 26.572 550.557 29.638H550.431L549.969 25.48H544.929V49ZM569.018 49.588C570.488 49.588 571.496 49.336 572.21 49.042L571.454 44.464C571.034 44.548 570.866 44.548 570.614 44.548C570.026 44.548 569.396 44.086 569.396 42.658V15.484H563.222V42.406C563.222 46.774 564.734 49.588 569.018 49.588ZM584.744 49.588C587.18 49.588 589.532 48.244 591.254 46.564H591.422L591.884 49H596.882V15.484H590.75V23.758L590.96 27.454C589.28 25.9 587.642 24.892 584.996 24.892C579.914 24.892 575.126 29.596 575.126 37.24C575.126 44.968 578.906 49.588 584.744 49.588ZM586.34 44.506C583.232 44.506 581.468 42.07 581.468 37.198C581.468 32.494 583.694 29.974 586.34 29.974C587.81 29.974 589.322 30.436 590.75 31.738V42.07C589.364 43.834 587.978 44.506 586.34 44.506Z" fill="white"/>
<path d="M9.114 114.588C11.802 114.588 14.154 113.244 16.212 111.48H16.38L16.8 114H21.84V100.266C21.84 93.462 18.774 89.892 12.81 89.892C9.114 89.892 5.754 91.278 2.982 93L5.208 97.074C7.392 95.814 9.492 94.848 11.676 94.848C14.574 94.848 15.582 96.612 15.708 98.922C6.216 99.93 2.142 102.576 2.142 107.616C2.142 111.606 4.914 114.588 9.114 114.588ZM11.13 109.758C9.324 109.758 8.022 108.96 8.022 107.112C8.022 105.012 9.954 103.416 15.708 102.702V107.448C14.196 108.918 12.894 109.758 11.13 109.758ZM35.9632 114.588C38.0212 114.588 39.6592 114.126 40.9192 113.706L39.9112 109.212C39.2812 109.464 38.3572 109.716 37.6012 109.716C35.5012 109.716 34.4092 108.456 34.4092 105.768V95.352H40.2052V90.48H34.4092V84.138H29.2852L28.5712 90.48L24.9172 90.774V95.352H28.2352V105.768C28.2352 111.018 30.3772 114.588 35.9632 114.588ZM61.7715 97.788C62.6955 94.554 63.6195 91.026 64.4175 87.624H64.6275C65.5095 90.984 66.3495 94.554 67.3155 97.788L68.2395 101.19H60.8475L61.7715 97.788ZM51.0195 114H57.3195L59.5035 106.02H69.5835L71.7675 114H78.2775L68.2815 82.878H60.9735L51.0195 114ZM95.6918 123.03H101.824V90.48H96.9938L96.4898 92.79H96.3218C94.4318 90.816 92.5418 89.892 89.9378 89.892C84.8558 89.892 80.0678 94.596 80.0678 102.24C80.0678 109.968 83.8478 114.588 89.6858 114.588C91.9958 114.588 94.3058 113.412 95.9018 111.774L95.6918 115.554V123.03ZM91.2818 109.506C88.1738 109.506 86.4098 107.07 86.4098 102.198C86.4098 97.494 88.6358 94.974 91.2818 94.974C92.7518 94.974 94.2638 95.436 95.6918 96.738V107.07C94.3058 108.834 92.9198 109.506 91.2818 109.506ZM115.455 114.588C118.647 114.588 120.915 113.034 122.931 110.64H123.099L123.561 114H128.601V90.48H122.427V106.356C120.831 108.456 119.571 109.296 117.639 109.296C115.371 109.296 114.363 107.994 114.363 104.382V90.48H108.189V105.18C108.189 111.06 110.373 114.588 115.455 114.588ZM140.979 114.588C143.667 114.588 146.019 113.244 148.077 111.48H148.245L148.665 114H153.705V100.266C153.705 93.462 150.639 89.892 144.675 89.892C140.979 89.892 137.619 91.278 134.847 93L137.073 97.074C139.257 95.814 141.357 94.848 143.541 94.848C146.439 94.848 147.447 96.612 147.573 98.922C138.081 99.93 134.007 102.576 134.007 107.616C134.007 111.606 136.779 114.588 140.979 114.588ZM142.995 109.758C141.189 109.758 139.887 108.96 139.887 107.112C139.887 105.012 141.819 103.416 147.573 102.702V107.448C146.061 108.918 144.759 109.758 142.995 109.758ZM179.299 114.588C186.481 114.588 190.723 110.262 190.723 105.18C190.723 100.686 188.245 98.292 184.465 96.738L180.391 95.016C177.745 93.966 175.561 93.168 175.561 90.942C175.561 88.884 177.283 87.666 180.013 87.666C182.575 87.666 184.633 88.59 186.607 90.228L189.757 86.322C187.237 83.76 183.625 82.332 180.013 82.332C173.713 82.332 169.261 86.238 169.261 91.32C169.261 95.856 172.411 98.376 175.561 99.678L179.719 101.442C182.491 102.618 184.381 103.332 184.381 105.642C184.381 107.826 182.659 109.212 179.425 109.212C176.695 109.212 173.755 107.826 171.529 105.768L167.959 110.052C170.983 112.95 175.141 114.588 179.299 114.588ZM195.722 123.03H201.896V115.89L201.686 112.026C203.492 113.664 205.466 114.588 207.524 114.588C212.69 114.588 217.52 109.926 217.52 101.862C217.52 94.638 214.076 89.892 208.28 89.892C205.76 89.892 203.324 91.236 201.35 92.916H201.224L200.762 90.48H195.722V123.03ZM206.138 109.506C204.878 109.506 203.366 109.044 201.896 107.742V97.41C203.492 95.772 204.92 94.974 206.516 94.974C209.75 94.974 211.178 97.452 211.178 101.946C211.178 107.07 208.994 109.506 206.138 109.506ZM227.973 114.588C230.661 114.588 233.013 113.244 235.071 111.48H235.239L235.659 114H240.699V100.266C240.699 93.462 237.633 89.892 231.669 89.892C227.973 89.892 224.613 91.278 221.841 93L224.067 97.074C226.251 95.814 228.351 94.848 230.535 94.848C233.433 94.848 234.441 96.612 234.567 98.922C225.075 99.93 221.001 102.576 221.001 107.616C221.001 111.606 223.773 114.588 227.973 114.588ZM229.989 109.758C228.183 109.758 226.881 108.96 226.881 107.112C226.881 105.012 228.813 103.416 234.567 102.702V107.448C233.055 108.918 231.753 109.758 229.989 109.758ZM256.988 114.588C259.592 114.588 262.448 113.706 264.716 111.732L262.238 107.658C260.936 108.75 259.34 109.548 257.66 109.548C254.3 109.548 251.822 106.692 251.822 102.24C251.822 97.83 254.258 94.932 257.87 94.932C259.172 94.932 260.264 95.478 261.44 96.486L264.38 92.496C262.658 91.026 260.432 89.892 257.534 89.892C251.15 89.892 245.522 94.428 245.522 102.24C245.522 110.052 250.478 114.588 256.988 114.588ZM278.117 114.588C281.015 114.588 283.997 113.58 286.307 111.984L284.207 108.204C282.527 109.254 280.847 109.842 278.915 109.842C275.429 109.842 272.909 107.826 272.405 103.962H286.895C287.063 103.416 287.189 102.282 287.189 101.106C287.189 94.638 283.829 89.892 277.361 89.892C271.775 89.892 266.399 94.638 266.399 102.24C266.399 110.01 271.523 114.588 278.117 114.588ZM272.321 99.846C272.783 96.444 274.967 94.68 277.445 94.68C280.469 94.68 281.897 96.696 281.897 99.846H272.321Z" fill="url(#paint0_linear_1695_13428)"/>
<defs>
<linearGradient id="paint0_linear_1695_13428" x1="-21.5513" y1="95.5" x2="212.655" y2="107.548" gradientUnits="userSpaceOnUse">
<stop stop-color="#2DC2E2"/>
<stop offset="1" stop-color="white"/>
</linearGradient>
</defs>
</svg>
