<svg width="1440" height="516" viewBox="0 0 1440 516" fill="none" xmlns="http://www.w3.org/2000/svg">
<g clip-path="url(#clip0_1479_12960)">
<rect width="1440" height="516" fill="#17171C"/>
<circle cx="1163.61" cy="498.014" r="241.344" fill="url(#paint0_linear_1479_12960)"/>
<path d="M1159.55 498.46V257.455C1322.84 255.357 1407.36 393.511 1407.36 498.46H1159.55Z" fill="url(#paint1_linear_1479_12960)"/>
<circle cx="1165.46" cy="498.142" r="240.945" stroke="url(#paint2_linear_1479_12960)" stroke-opacity="0.5" stroke-width="0.798094"/>
<circle opacity="0.5" cx="318.485" cy="18.4849" r="60.4849" stroke="url(#paint3_linear_1479_12960)" stroke-width="48"/>
<circle opacity="0.5" cx="174" cy="272.484" r="59" stroke="#9E63FF" stroke-width="2"/>
<circle cx="215" cy="325.484" r="28" fill="#567CDF"/>
<path d="M1159.17 494.862L1159.17 494.463L1158.37 494.463L1158.37 494.862L1159.17 494.862ZM1158.37 491.656L1158.37 492.055L1159.17 492.055L1159.17 491.656L1158.37 491.656ZM1159.17 488.45L1159.17 488.051L1158.37 488.051L1158.37 488.45L1159.17 488.45ZM1158.37 485.244L1158.37 485.643L1159.17 485.643L1159.17 485.244L1158.37 485.244ZM1159.17 482.039L1159.17 481.64L1158.37 481.64L1158.37 482.039L1159.17 482.039ZM1158.37 478.833L1158.37 479.232L1159.17 479.232L1159.17 478.833L1158.37 478.833ZM1159.17 475.627L1159.17 475.228L1158.37 475.228L1158.37 475.627L1159.17 475.627ZM1158.37 472.421L1158.37 472.82L1159.17 472.82L1159.17 472.421L1158.37 472.421ZM1159.17 469.215L1159.17 468.816L1158.37 468.816L1158.37 469.215L1159.17 469.215ZM1158.37 466.009L1158.37 466.409L1159.17 466.409L1159.17 466.009L1158.37 466.009ZM1159.17 462.804L1159.17 462.405L1158.37 462.405L1158.37 462.804L1159.17 462.804ZM1158.37 459.598L1158.37 459.997L1159.17 459.997L1159.17 459.598L1158.37 459.598ZM1159.17 456.392L1159.17 455.993L1158.37 455.993L1158.37 456.392L1159.17 456.392ZM1158.37 453.186L1158.37 453.585L1159.17 453.585L1159.17 453.186L1158.37 453.186ZM1159.17 449.98L1159.17 449.581L1158.37 449.581L1158.37 449.98L1159.17 449.98ZM1158.37 446.775L1158.37 447.174L1159.17 447.174L1159.17 446.775L1158.37 446.775ZM1159.17 443.569L1159.17 443.17L1158.37 443.17L1158.37 443.569L1159.17 443.569ZM1158.37 440.363L1158.37 440.762L1159.17 440.762L1159.17 440.363L1158.37 440.363ZM1159.17 437.157L1159.17 436.758L1158.37 436.758L1158.37 437.157L1159.17 437.157ZM1158.37 433.951L1158.37 434.35L1159.17 434.35L1159.17 433.951L1158.37 433.951ZM1159.17 430.745L1159.17 430.346L1158.37 430.346L1158.37 430.745L1159.17 430.745ZM1158.37 427.54L1158.37 427.939L1159.17 427.939L1159.17 427.54L1158.37 427.54ZM1159.17 424.334L1159.17 423.935L1158.37 423.935L1158.37 424.334L1159.17 424.334ZM1158.37 421.128L1158.37 421.527L1159.17 421.527L1159.17 421.128L1158.37 421.128ZM1159.17 417.922L1159.17 417.523L1158.37 417.523L1158.37 417.922L1159.17 417.922ZM1158.37 414.716L1158.37 415.115L1159.17 415.115L1159.17 414.716L1158.37 414.716ZM1159.17 411.511L1159.17 411.112L1158.37 411.112L1158.37 411.511L1159.17 411.511ZM1158.37 408.305L1158.37 408.704L1159.17 408.704L1159.17 408.305L1158.37 408.305ZM1159.17 405.099L1159.17 404.7L1158.37 404.7L1158.37 405.099L1159.17 405.099ZM1158.37 401.893L1158.37 402.292L1159.17 402.292L1159.17 401.893L1158.37 401.893ZM1159.17 398.687L1159.17 398.288L1158.37 398.288L1158.37 398.687L1159.17 398.687ZM1158.37 395.481L1158.37 395.881L1159.17 395.881L1159.17 395.481L1158.37 395.481ZM1159.17 392.276L1159.17 391.877L1158.37 391.877L1158.37 392.276L1159.17 392.276ZM1158.37 389.07L1158.37 389.469L1159.17 389.469L1159.17 389.07L1158.37 389.07ZM1159.17 385.864L1159.17 385.465L1158.37 385.465L1158.37 385.864L1159.17 385.864ZM1158.37 382.658L1158.37 383.057L1159.17 383.057L1159.17 382.658L1158.37 382.658ZM1159.17 379.452L1159.17 379.053L1158.37 379.053L1158.37 379.452L1159.17 379.452ZM1158.37 376.247L1158.37 376.646L1159.17 376.646L1159.17 376.247L1158.37 376.247ZM1159.17 373.041L1159.17 372.642L1158.37 372.642L1158.37 373.041L1159.17 373.041ZM1158.37 369.835L1158.37 370.234L1159.17 370.234L1159.17 369.835L1158.37 369.835ZM1159.17 366.629L1159.17 366.23L1158.37 366.23L1158.37 366.629L1159.17 366.629ZM1158.37 363.423L1158.37 363.822L1159.17 363.822L1159.17 363.423L1158.37 363.423ZM1159.17 360.217L1159.17 359.818L1158.37 359.818L1158.37 360.217L1159.17 360.217ZM1158.37 357.012L1158.37 357.411L1159.17 357.411L1159.17 357.012L1158.37 357.012ZM1159.17 353.806L1159.17 353.407L1158.37 353.407L1158.37 353.806L1159.17 353.806ZM1158.37 350.6L1158.37 350.999L1159.17 350.999L1159.17 350.6L1158.37 350.6ZM1159.17 347.394L1159.17 346.995L1158.37 346.995L1158.37 347.394L1159.17 347.394ZM1158.37 344.188L1158.37 344.587L1159.17 344.587L1159.17 344.188L1158.37 344.188ZM1159.17 340.982L1159.17 340.583L1158.37 340.583L1158.37 340.982L1159.17 340.982ZM1158.37 337.777L1158.37 338.176L1159.17 338.176L1159.17 337.777L1158.37 337.777ZM1159.17 334.571L1159.17 334.172L1158.37 334.172L1158.37 334.571L1159.17 334.571ZM1158.37 331.365L1158.37 331.764L1159.17 331.764L1159.17 331.365L1158.37 331.365ZM1159.17 328.159L1159.17 327.76L1158.37 327.76L1158.37 328.159L1159.17 328.159ZM1158.37 324.953L1158.37 325.352L1159.17 325.352L1159.17 324.953L1158.37 324.953ZM1159.17 321.748L1159.17 321.348L1158.37 321.348L1158.37 321.748L1159.17 321.748ZM1158.37 318.542L1158.37 318.941L1159.17 318.941L1159.17 318.542L1158.37 318.542ZM1159.17 315.336L1159.17 314.937L1158.37 314.937L1158.37 315.336L1159.17 315.336ZM1158.37 312.13L1158.37 312.529L1159.17 312.529L1159.17 312.13L1158.37 312.13ZM1159.17 308.924L1159.17 308.525L1158.37 308.525L1158.37 308.924L1159.17 308.924ZM1158.37 305.718L1158.37 306.117L1159.17 306.117L1159.17 305.718L1158.37 305.718ZM1159.17 302.513L1159.17 302.114L1158.37 302.114L1158.37 302.513L1159.17 302.513ZM1158.37 299.307L1158.37 299.706L1159.17 299.706L1159.17 299.307L1158.37 299.307ZM1159.17 296.101L1159.17 295.702L1158.37 295.702L1158.37 296.101L1159.17 296.101ZM1158.37 292.895L1158.37 293.294L1159.17 293.294L1159.17 292.895L1158.37 292.895ZM1159.17 289.689L1159.17 289.29L1158.37 289.29L1158.37 289.689L1159.17 289.689ZM1158.37 286.483L1158.37 286.882L1159.17 286.882L1159.17 286.483L1158.37 286.483ZM1159.17 283.278L1159.17 282.879L1158.37 282.879L1158.37 283.278L1159.17 283.278ZM1158.37 280.072L1158.37 280.471L1159.17 280.471L1159.17 280.072L1158.37 280.072ZM1159.17 276.866L1159.17 276.467L1158.37 276.467L1158.37 276.866L1159.17 276.866ZM1158.37 273.66L1158.37 274.059L1159.17 274.059L1159.17 273.66L1158.37 273.66ZM1159.17 270.454L1159.17 270.055L1158.37 270.055L1158.37 270.454L1159.17 270.454ZM1158.37 267.248L1158.37 267.648L1159.17 267.648L1159.17 267.248L1158.37 267.248ZM1159.17 264.043L1159.17 263.644L1158.37 263.644L1158.37 264.043L1159.17 264.043ZM1158.37 260.837L1158.37 261.236L1159.17 261.236L1159.17 260.837L1158.37 260.837ZM1159.17 257.631L1159.17 257.232L1158.37 257.232L1158.37 257.631L1159.17 257.631ZM1158.37 254.425L1158.37 254.824L1159.17 254.824L1159.17 254.425L1158.37 254.425ZM1159.17 251.219L1159.17 250.82L1158.37 250.82L1158.37 251.219L1159.17 251.219ZM1158.37 248.014L1158.37 248.413L1159.17 248.413L1159.17 248.014L1158.37 248.014ZM1159.17 244.808L1159.17 244.409L1158.37 244.409L1158.37 244.808L1159.17 244.808ZM1158.37 241.602L1158.37 242.001L1159.17 242.001L1159.17 241.602L1158.37 241.602ZM1159.17 238.396L1159.17 237.997L1158.37 237.997L1158.37 238.396L1159.17 238.396ZM1158.37 235.19L1158.37 235.589L1159.17 235.589L1159.17 235.19L1158.37 235.19ZM1159.17 231.984L1159.17 231.585L1158.37 231.585L1158.37 231.984L1159.17 231.984ZM1158.37 228.779L1158.37 229.178L1159.17 229.178L1159.17 228.779L1158.37 228.779ZM1159.17 225.573L1159.17 225.174L1158.37 225.174L1158.37 225.573L1159.17 225.573ZM1158.37 222.367L1158.37 222.766L1159.17 222.766L1159.17 222.367L1158.37 222.367ZM1159.17 219.161L1159.17 218.762L1158.37 218.762L1158.37 219.161L1159.17 219.161ZM1158.37 215.955L1158.37 216.354L1159.17 216.354L1159.17 215.955L1158.37 215.955ZM1159.17 212.75L1159.17 212.351L1158.37 212.351L1158.37 212.75L1159.17 212.75ZM1158.37 209.544L1158.37 209.943L1159.17 209.943L1159.17 209.544L1158.37 209.544ZM1159.17 206.338L1159.17 205.939L1158.37 205.939L1158.37 206.338L1159.17 206.338ZM1158.37 203.132L1158.37 203.531L1159.17 203.531L1159.17 203.132L1158.37 203.132ZM1159.17 496.465L1159.17 494.862L1158.37 494.862L1158.37 496.465L1159.17 496.465ZM1159.17 491.656L1159.17 488.45L1158.37 488.45L1158.37 491.656L1159.17 491.656ZM1159.17 485.244L1159.17 482.039L1158.37 482.039L1158.37 485.244L1159.17 485.244ZM1159.17 478.833L1159.17 475.627L1158.37 475.627L1158.37 478.833L1159.17 478.833ZM1159.17 472.421L1159.17 469.215L1158.37 469.215L1158.37 472.421L1159.17 472.421ZM1159.17 466.009L1159.17 462.804L1158.37 462.804L1158.37 466.009L1159.17 466.009ZM1159.17 459.598L1159.17 456.392L1158.37 456.392L1158.37 459.598L1159.17 459.598ZM1159.17 453.186L1159.17 449.98L1158.37 449.98L1158.37 453.186L1159.17 453.186ZM1159.17 446.775L1159.17 443.569L1158.37 443.569L1158.37 446.775L1159.17 446.775ZM1159.17 440.363L1159.17 437.157L1158.37 437.157L1158.37 440.363L1159.17 440.363ZM1159.17 433.951L1159.17 430.745L1158.37 430.745L1158.37 433.951L1159.17 433.951ZM1159.17 427.54L1159.17 424.334L1158.37 424.334L1158.37 427.54L1159.17 427.54ZM1159.17 421.128L1159.17 417.922L1158.37 417.922L1158.37 421.128L1159.17 421.128ZM1159.17 414.716L1159.17 411.511L1158.37 411.511L1158.37 414.716L1159.17 414.716ZM1159.17 408.305L1159.17 405.099L1158.37 405.099L1158.37 408.305L1159.17 408.305ZM1159.17 401.893L1159.17 398.687L1158.37 398.687L1158.37 401.893L1159.17 401.893ZM1159.17 395.481L1159.17 392.276L1158.37 392.276L1158.37 395.481L1159.17 395.481ZM1159.17 389.07L1159.17 385.864L1158.37 385.864L1158.37 389.07L1159.17 389.07ZM1159.17 382.658L1159.17 379.452L1158.37 379.452L1158.37 382.658L1159.17 382.658ZM1159.17 376.247L1159.17 373.041L1158.37 373.041L1158.37 376.247L1159.17 376.247ZM1159.17 369.835L1159.17 366.629L1158.37 366.629L1158.37 369.835L1159.17 369.835ZM1159.17 363.423L1159.17 360.217L1158.37 360.217L1158.37 363.423L1159.17 363.423ZM1159.17 357.012L1159.17 353.806L1158.37 353.806L1158.37 357.012L1159.17 357.012ZM1159.17 350.6L1159.17 347.394L1158.37 347.394L1158.37 350.6L1159.17 350.6ZM1159.17 344.188L1159.17 340.982L1158.37 340.982L1158.37 344.188L1159.17 344.188ZM1159.17 337.777L1159.17 334.571L1158.37 334.571L1158.37 337.777L1159.17 337.777ZM1159.17 331.365L1159.17 328.159L1158.37 328.159L1158.37 331.365L1159.17 331.365ZM1159.17 324.953L1159.17 321.748L1158.37 321.748L1158.37 324.953L1159.17 324.953ZM1159.17 318.542L1159.17 315.336L1158.37 315.336L1158.37 318.542L1159.17 318.542ZM1159.17 312.13L1159.17 308.924L1158.37 308.924L1158.37 312.13L1159.17 312.13ZM1159.17 305.718L1159.17 302.513L1158.37 302.513L1158.37 305.718L1159.17 305.718ZM1159.17 299.307L1159.17 296.101L1158.37 296.101L1158.37 299.307L1159.17 299.307ZM1159.17 292.895L1159.17 289.689L1158.37 289.689L1158.37 292.895L1159.17 292.895ZM1159.17 286.483L1159.17 283.278L1158.37 283.278L1158.37 286.483L1159.17 286.483ZM1159.17 280.072L1159.17 276.866L1158.37 276.866L1158.37 280.072L1159.17 280.072ZM1159.17 273.66L1159.17 270.454L1158.37 270.454L1158.37 273.66L1159.17 273.66ZM1159.17 267.248L1159.17 264.043L1158.37 264.043L1158.37 267.248L1159.17 267.248ZM1159.17 260.837L1159.17 257.631L1158.37 257.631L1158.37 260.837L1159.17 260.837ZM1159.17 254.425L1159.17 251.219L1158.37 251.219L1158.37 254.425L1159.17 254.425ZM1159.17 248.014L1159.17 244.808L1158.37 244.808L1158.37 248.014L1159.17 248.014ZM1159.17 241.602L1159.17 238.396L1158.37 238.396L1158.37 241.602L1159.17 241.602ZM1159.17 235.19L1159.17 231.984L1158.37 231.984L1158.37 235.19L1159.17 235.19ZM1159.17 228.779L1159.17 225.573L1158.37 225.573L1158.37 228.779L1159.17 228.779ZM1159.17 222.367L1159.17 219.161L1158.37 219.161L1158.37 222.367L1159.17 222.367ZM1159.17 215.955L1159.17 212.75L1158.37 212.75L1158.37 215.955L1159.17 215.955ZM1159.17 209.544L1159.17 206.338L1158.37 206.338L1158.37 209.544L1159.17 209.544ZM1159.17 203.132L1159.17 201.529L1158.37 201.529L1158.37 203.132L1159.17 203.132Z" fill="#583C9F"/>
<circle cx="1159.51" cy="201.143" r="7.14278" fill="#9E63FF"/>
<path d="M1158.76 498.061L883.414 498.061L883.414 498.859L1158.76 498.859L1158.76 498.061Z" fill="#583C9F"/>
<circle cx="877.789" cy="498.42" r="5.94564" stroke="#9E63FF" stroke-width="2.39428"/>
</g>
<defs>
<linearGradient id="paint0_linear_1479_12960" x1="1186.69" y1="399.098" x2="1141.2" y2="487.686" gradientUnits="userSpaceOnUse">
<stop stop-color="#17171C"/>
<stop offset="1" stop-color="#1B0F43"/>
</linearGradient>
<linearGradient id="paint1_linear_1479_12960" x1="1298.42" y1="409.872" x2="1112.87" y2="409.869" gradientUnits="userSpaceOnUse">
<stop stop-color="#261176"/>
<stop offset="1" stop-color="#181623"/>
</linearGradient>
<linearGradient id="paint2_linear_1479_12960" x1="1165.46" y1="256.798" x2="985.191" y2="469.228" gradientUnits="userSpaceOnUse">
<stop stop-color="#9264FB"/>
<stop offset="1" stop-color="#466AE4"/>
</linearGradient>
<linearGradient id="paint3_linear_1479_12960" x1="318.485" y1="-66" x2="318.485" y2="102.97" gradientUnits="userSpaceOnUse">
<stop stop-color="#2D7258" stop-opacity="0"/>
<stop offset="1" stop-color="#2D7258"/>
</linearGradient>
<clipPath id="clip0_1479_12960">
<rect width="1440" height="516" fill="white"/>
</clipPath>
</defs>
</svg>
