<svg width="24" height="24" viewBox="0 0 24 24" fill="none" xmlns="http://www.w3.org/2000/svg">
<circle cx="12" cy="12" r="12" fill="#E70012"/>
<path fill-rule="evenodd" clip-rule="evenodd" d="M8.80123 12.8986L6.67525 14.4142L7.45967 11.9239L5.36133 10.3703L7.9721 10.3468L8.80123 7.87109L9.63036 10.3468L12.2411 10.3703L10.1428 11.9239L10.9272 14.4142L8.80123 12.8986Z" fill="#FFDC42"/>
<path d="M16.8812 12.5369L17.1367 13.4284L18.0635 13.4609L17.2946 13.9794L17.5501 14.8709L16.8194 14.2999L16.0505 14.8184L16.3678 13.9469L15.637 13.3759L16.5639 13.4083L16.8812 12.5369Z" fill="#FFDC42"/>
<path d="M16.3776 9.23619L17.0197 9.90543L17.8546 9.50162L17.4165 10.319L18.0585 10.9883L17.1457 10.8242L16.7076 11.6417L16.5816 10.7229L15.6688 10.5588L16.5037 10.155L16.3776 9.23619Z" fill="#FFDC42"/>
<path d="M13.5196 7.08297L14.3663 7.46148L14.9879 6.77323L14.8896 7.69541L15.7362 8.07391L14.8288 8.26535L14.7304 9.18753L14.2679 8.38366L13.3605 8.5751L13.9821 7.88684L13.5196 7.08297Z" fill="#FFDC42"/>
<path d="M14.9776 15.0152L14.8875 15.9375L15.7368 16.3082L14.8318 16.5075L14.7417 17.4299L14.2724 16.6307L13.3674 16.83L13.9824 16.1368L13.5132 15.3376L14.3626 15.7084L14.9776 15.0152Z" fill="#FFDC42"/>
<rect x="0.125" y="0.125" width="23.75" height="23.75" rx="11.875" stroke="#F0F1F5" stroke-width="0.25"/>
</svg>
