<svg width="176" height="53" viewBox="0 0 176 53" fill="none" xmlns="http://www.w3.org/2000/svg">
<g filter="url(#filter0_d_1491_12334)">
<path d="M34.7321 35H43.7121V32.52H37.6921V20.18H34.7321V35ZM50.6416 35.28C52.0216 35.28 53.4416 34.8 54.5416 34.04L53.5416 32.24C52.7416 32.74 51.9416 33.02 51.0216 33.02C49.3616 33.02 48.1616 32.06 47.9216 30.22H54.8216C54.9016 29.96 54.9616 29.42 54.9616 28.86C54.9616 25.78 53.3616 23.52 50.2816 23.52C47.6216 23.52 45.0616 25.78 45.0616 29.4C45.0616 33.1 47.5016 35.28 50.6416 35.28ZM47.8816 28.26C48.1016 26.64 49.1416 25.8 50.3216 25.8C51.7616 25.8 52.4416 26.76 52.4416 28.26H47.8816ZM59.8693 35.28C61.1493 35.28 62.2693 34.64 63.2493 33.8H63.3293L63.5293 35H65.9293V28.46C65.9293 25.22 64.4693 23.52 61.6293 23.52C59.8693 23.52 58.2693 24.18 56.9493 25L58.0093 26.94C59.0493 26.34 60.0493 25.88 61.0893 25.88C62.4693 25.88 62.9493 26.72 63.0093 27.82C58.4893 28.3 56.5493 29.56 56.5493 31.96C56.5493 33.86 57.8693 35.28 59.8693 35.28ZM60.8293 32.98C59.9693 32.98 59.3493 32.6 59.3493 31.72C59.3493 30.72 60.2693 29.96 63.0093 29.62V31.88C62.2893 32.58 61.6693 32.98 60.8293 32.98ZM68.9257 35H71.8657V28.32C72.4857 26.7 73.5457 26.12 74.4257 26.12C74.8857 26.12 75.2057 26.18 75.6057 26.3L76.1057 23.76C75.7657 23.62 75.4057 23.52 74.7857 23.52C73.6257 23.52 72.4257 24.32 71.6057 25.78H71.5457L71.3257 23.8H68.9257V35ZM77.6366 35H80.5766V27.3C81.3966 26.48 81.9766 26.04 82.8966 26.04C83.9966 26.04 84.4766 26.64 84.4766 28.38V35H87.4166V28.02C87.4166 25.2 86.3766 23.52 83.9566 23.52C82.4366 23.52 81.2966 24.32 80.3166 25.28H80.2566L80.0366 23.8H77.6366V35ZM95.2204 35H97.8804V28.82C97.8804 27.42 97.6404 25.36 97.5004 23.96H97.5804L98.7604 27.44L101.06 33.66H102.76L105.04 27.44L106.24 23.96H106.34C106.18 25.36 105.96 27.42 105.96 28.82V35H108.66V20.18H105.38L102.92 27.12C102.6 28.04 102.34 29.02 102.02 29.96H101.92C101.62 29.02 101.34 28.04 101.02 27.12L98.5004 20.18H95.2204V35ZM116.731 35.28C119.531 35.28 122.111 33.12 122.111 29.4C122.111 25.68 119.531 23.52 116.731 23.52C113.931 23.52 111.351 25.68 111.351 29.4C111.351 33.12 113.931 35.28 116.731 35.28ZM116.731 32.88C115.211 32.88 114.351 31.52 114.351 29.4C114.351 27.3 115.211 25.92 116.731 25.92C118.251 25.92 119.111 27.3 119.111 29.4C119.111 31.52 118.251 32.88 116.731 32.88ZM124.57 35H127.51V28.32C128.13 26.7 129.19 26.12 130.07 26.12C130.53 26.12 130.85 26.18 131.25 26.3L131.75 23.76C131.41 23.62 131.05 23.52 130.43 23.52C129.27 23.52 128.07 24.32 127.25 25.78H127.19L126.97 23.8H124.57V35ZM137.927 35.28C139.307 35.28 140.727 34.8 141.827 34.04L140.827 32.24C140.027 32.74 139.227 33.02 138.307 33.02C136.647 33.02 135.447 32.06 135.207 30.22H142.107C142.187 29.96 142.247 29.42 142.247 28.86C142.247 25.78 140.647 23.52 137.567 23.52C134.907 23.52 132.347 25.78 132.347 29.4C132.347 33.1 134.787 35.28 137.927 35.28ZM135.167 28.26C135.387 26.64 136.427 25.8 137.607 25.8C139.047 25.8 139.727 26.76 139.727 28.26H135.167Z" fill="#3C6AE0"/>
</g>
<rect x="1.5" y="1" width="173" height="51" rx="25.5" stroke="url(#paint0_linear_1491_12334)" stroke-width="2"/>
<defs>
<filter id="filter0_d_1491_12334" x="30.7324" y="20.1797" width="115.514" height="23.1006" filterUnits="userSpaceOnUse" color-interpolation-filters="sRGB">
<feFlood flood-opacity="0" result="BackgroundImageFix"/>
<feColorMatrix in="SourceAlpha" type="matrix" values="0 0 0 0 0 0 0 0 0 0 0 0 0 0 0 0 0 0 127 0" result="hardAlpha"/>
<feOffset dy="4"/>
<feGaussianBlur stdDeviation="2"/>
<feComposite in2="hardAlpha" operator="out"/>
<feColorMatrix type="matrix" values="0 0 0 0 0 0 0 0 0 0 0 0 0 0 0 0 0 0 0.25 0"/>
<feBlend mode="normal" in2="BackgroundImageFix" result="effect1_dropShadow_1491_12334"/>
<feBlend mode="normal" in="SourceGraphic" in2="effect1_dropShadow_1491_12334" result="shape"/>
</filter>
<linearGradient id="paint0_linear_1491_12334" x1="71.9286" y1="1.92504e-06" x2="128.736" y2="31.0167" gradientUnits="userSpaceOnUse">
<stop stop-color="#1554E1"/>
<stop offset="1" stop-color="#653EFF"/>
</linearGradient>
</defs>
</svg>
