<svg width="198" height="53" viewBox="0 0 198 53" fill="none" xmlns="http://www.w3.org/2000/svg">
<g filter="url(#filter0_d_1441_15669)">
<path d="M39.9598 22.24H43.6198V20.06H33.4998V22.24H37.3198V23.26C37.3198 26.3 35.8198 29.76 32.7998 31.16L34.2798 33.26C36.3798 32.26 37.8598 30.24 38.6798 27.84C39.4998 30.02 40.9398 31.86 42.9798 32.8L44.4398 30.72C41.4198 29.32 39.9598 26.06 39.9598 23.26V22.24ZM50.2998 25.32H47.6198V18.3H44.9798V36.72H47.6198V27.5H50.2998V25.32ZM57.4783 19.9H54.9383V23C54.9383 26.14 53.9583 29.44 51.2583 31.08L52.8383 33.06C54.4983 32.06 55.5783 30.3 56.2183 28.26C56.7983 30.12 57.7783 31.68 59.3383 32.64L60.7783 30.6C58.2783 28.94 57.4783 25.88 57.4783 22.9V19.9ZM61.1583 24.52H58.8383V26.66H61.1583V35.9H63.6183V18.6H61.1583V24.52ZM64.8983 18.3V36.72H67.3983V18.3H64.8983ZM75.8767 30.8C74.5967 30.8 73.6767 29.96 73.6767 28.54C73.6767 27.16 74.5967 26.3 75.8767 26.3C77.1367 26.3 78.0567 27.16 78.0567 28.54C78.0567 29.96 77.1367 30.8 75.8767 30.8ZM75.8767 24.16C73.1567 24.16 71.1567 25.98 71.1567 28.54C71.1567 31.14 73.1567 32.96 75.8767 32.96C78.5767 32.96 80.5767 31.14 80.5767 28.54C80.5767 25.98 78.5767 24.16 75.8767 24.16ZM77.1767 18.58H74.5367V21.06H70.3967V23.16H81.3167V21.06H77.1767V18.58ZM82.6167 18.28V36.7H85.2567V18.28H82.6167ZM95.6064 23C95.6064 21.72 96.5864 20.94 97.9664 20.94C99.3464 20.94 100.326 21.72 100.326 23C100.326 24.3 99.3464 25.08 97.9664 25.08C96.5864 25.08 95.6064 24.3 95.6064 23ZM102.866 23C102.866 20.58 100.786 18.82 97.9664 18.82C95.1664 18.82 93.0664 20.58 93.0664 23C93.0664 25.46 95.1664 27.2 97.9664 27.2C100.786 27.2 102.866 25.46 102.866 23ZM97.9064 33.26H107.426V28.22H95.2664V30.26H104.826V31.36H95.2864V36.5H107.966V34.46H97.9064V33.26ZM107.426 21.84V18.3H104.786V27.5H107.426V24H109.846V21.84H107.426ZM116.265 30.34C114.885 30.34 113.965 28.88 113.965 26.14C113.965 23.42 114.885 21.96 116.265 21.96C117.625 21.96 118.565 23.42 118.565 26.14C118.565 28.88 117.625 30.34 116.265 30.34ZM116.265 19.58C113.465 19.58 111.425 22.1 111.425 26.14C111.425 30.2 113.465 32.74 116.265 32.74C119.045 32.74 121.105 30.2 121.105 26.14C121.105 22.1 119.045 19.58 116.265 19.58ZM128.425 25.24H125.745V18.3H123.105V36.72H125.745V27.42H128.425V25.24ZM134.103 24.38H141.983V26.96H134.103V24.38ZM139.363 32.44V29.06H144.583V19.44H141.983V22.3H134.103V19.44H131.483V29.06H136.723V32.44H129.723V34.58H146.403V32.44H139.363ZM149.142 20.2V22.3H155.282C154.902 26.38 152.862 29.26 148.162 31.52L149.542 33.6C156.082 30.44 157.982 25.84 157.982 20.2H149.142ZM160.802 18.28V36.7H163.462V18.28H160.802Z" fill="#3C6AE0"/>
</g>
<rect x="1" y="1" width="196" height="51" rx="25.5" stroke="url(#paint0_linear_1441_15669)" stroke-width="2"/>
<defs>
<filter id="filter0_d_1441_15669" x="28.8008" y="18.2803" width="138.66" height="26.4395" filterUnits="userSpaceOnUse" color-interpolation-filters="sRGB">
<feFlood flood-opacity="0" result="BackgroundImageFix"/>
<feColorMatrix in="SourceAlpha" type="matrix" values="0 0 0 0 0 0 0 0 0 0 0 0 0 0 0 0 0 0 127 0" result="hardAlpha"/>
<feOffset dy="4"/>
<feGaussianBlur stdDeviation="2"/>
<feComposite in2="hardAlpha" operator="out"/>
<feColorMatrix type="matrix" values="0 0 0 0 0 0 0 0 0 0 0 0 0 0 0 0 0 0 0.25 0"/>
<feBlend mode="normal" in2="BackgroundImageFix" result="effect1_dropShadow_1441_15669"/>
<feBlend mode="normal" in="SourceGraphic" in2="effect1_dropShadow_1441_15669" result="shape"/>
</filter>
<linearGradient id="paint0_linear_1441_15669" x1="80.8163" y1="1.92504e-06" x2="141.205" y2="37.3055" gradientUnits="userSpaceOnUse">
<stop stop-color="#1554E1"/>
<stop offset="1" stop-color="#653EFF"/>
</linearGradient>
</defs>
</svg>
