<svg width="231" height="231" viewBox="0 0 231 231" fill="none" xmlns="http://www.w3.org/2000/svg">
<path d="M115.5 25C115.5 25 184.873 79.3437 184.873 136.665C184.873 174.958 153.814 206 115.5 206C77.1865 206 46.127 174.958 46.127 136.665C46.127 79.3437 115.5 25 115.5 25Z" fill="url(#paint0_linear_143212151)"/>
<path opacity="0.7" d="M184.872 136.353C184.872 136.244 184.864 136.135 184.864 136.033C184.864 136.189 184.872 136.345 184.872 136.501C184.872 136.439 184.872 136.384 184.872 136.353Z" fill="url(#paint1_linear_143212151)"/>
<path d="M184.872 136.665C184.872 136.61 184.872 136.548 184.872 136.493C184.856 137.25 184.755 139.674 184.622 142.605C184.786 140.649 184.872 138.668 184.872 136.665Z" fill="url(#paint2_linear_143212151)"/>
<path opacity="0.7" d="M115.499 206C151.808 206 181.604 178.115 184.615 142.605C184.755 139.674 184.856 137.242 184.864 136.494C184.864 136.338 184.856 136.182 184.856 136.026C184.63 128.332 176.471 120.7 170.918 116.638C161.605 109.84 149.881 105.677 138.213 105.958C129.406 106.168 120.507 108.975 113.338 114.112C106.116 119.289 100.539 126.25 93.5733 131.707C92.6607 132.424 91.7169 133.095 90.7419 133.718C83.6517 138.216 75.2979 141.148 66.8427 141.148C59.3937 141.148 52.3582 139.386 46.126 136.268C46.126 136.4 46.1182 136.533 46.1182 136.657C46.126 174.957 77.1855 206 115.499 206Z" fill="url(#paint3_linear_143212151)"/>
<g opacity="0.7">
<path opacity="0.7" d="M115.499 206C153.813 206 184.872 174.957 184.872 136.665C184.872 126.617 182.735 116.661 179.217 107.073C152.463 113.761 137.199 148.421 107.021 143.9C92.7155 141.756 82.1699 127.334 82.2245 113.231C82.2557 104.711 85.9997 96.3615 92.0681 90.4446C66.024 90.468 46.3134 111.134 46.3134 136.626C46.3134 139.175 46.4226 142.036 46.641 145.123C50.814 179.424 80.0483 206 115.499 206Z" fill="url(#paint4_linear_143212151)"/>
</g>
<path d="M138.627 90.3745C138.627 84.0288 143.807 78.8836 150.187 78.8836C143.799 78.8836 138.627 73.7385 138.627 67.3928C138.627 73.7385 133.448 78.8836 127.068 78.8836C133.448 78.8836 138.627 84.0288 138.627 90.3745Z" fill="white"/>
<path d="M184.889 144.952C205.34 154.751 194.662 162.04 193.172 162.952C192.962 163.116 192.735 163.264 192.478 163.389C192.455 163.404 192.423 163.412 192.4 163.428C187.775 165.509 181.394 167.466 173.953 169.087C157.807 172.611 137.051 174.552 115.508 174.552C93.9642 174.552 73.2085 172.611 57.0625 169.087C49.6213 167.466 43.2488 165.509 38.6156 163.428L38.5376 163.389C38.2724 163.272 38.0384 163.116 37.8278 162.944C36.2912 162.001 25.73 154.728 46.127 144.952C31.7282 149.068 23 154.478 23 160.411C23 173.32 64.4101 183.79 115.5 183.79C166.59 183.79 208 173.32 208 160.411C208 154.478 199.272 149.068 184.889 144.952Z" fill="white"/>
<path d="M184.873 144.944L184.881 144.952C184.881 144.952 184.881 144.944 184.873 144.944Z" fill="white"/>
<path d="M46.1271 144.944C46.1271 144.944 46.1191 144.944 46.1191 144.952C46.1191 144.952 46.1191 144.944 46.1271 144.944Z" fill="white"/>
<defs>
<linearGradient id="paint0_linear_143212151" x1="46.1251" y1="115.5" x2="184.875" y2="115.5" gradientUnits="userSpaceOnUse">
<stop offset="0.3289" stop-color="#D0EBFF"/>
<stop offset="0.7029" stop-color="#88D4FF"/>
</linearGradient>
<linearGradient id="paint1_linear_143212151" x1="49.913" y1="58.3012" x2="218.282" y2="155.455" gradientUnits="userSpaceOnUse">
<stop offset="0.4396" stop-color="#67C5E1"/>
<stop offset="0.6453" stop-color="#E68AE6"/>
</linearGradient>
<linearGradient id="paint2_linear_143212151" x1="46.1271" y1="139.551" x2="184.874" y2="139.551" gradientUnits="userSpaceOnUse">
<stop offset="0.3289" stop-color="#D0EBFF"/>
<stop offset="0.7029" stop-color="#88D4FF"/>
</linearGradient>
<linearGradient id="paint3_linear_143212151" x1="26.3225" y1="99.0542" x2="194.691" y2="196.315" gradientUnits="userSpaceOnUse">
<stop offset="0.4396" stop-color="#67C5E1"/>
<stop offset="0.6453" stop-color="#E68AE6"/>
</linearGradient>
<linearGradient id="paint4_linear_143212151" x1="115.595" y1="90.4394" x2="115.595" y2="206" gradientUnits="userSpaceOnUse">
<stop offset="0.0782" stop-color="#7CCBE9"/>
<stop offset="0.2381" stop-color="#009FE8"/>
<stop offset="0.4097" stop-color="#1554E1"/>
<stop offset="0.6645" stop-color="#000020"/>
</linearGradient>
</defs>
</svg>
