<svg width="132" height="30" viewBox="0 0 132 30" fill="none" xmlns="http://www.w3.org/2000/svg">
<g clip-path="url(#clip0_1518_12970)">
<path d="M15.4672 0C15.4672 0 27.0673 9.00724 27.0673 18.5081C27.0673 24.8549 21.8737 30 15.4672 30C9.06073 30 3.86719 24.8549 3.86719 18.5081C3.86719 9.00724 15.4672 0 15.4672 0Z" fill="url(#paint0_linear_1518_12970)"/>
<path opacity="0.7" d="M27.0697 18.4547C27.0697 18.4368 27.0684 18.419 27.0684 18.4023C27.0684 18.4279 27.0697 18.4535 27.0697 18.479C27.0697 18.4688 27.0697 18.4599 27.0697 18.4547Z" fill="url(#paint1_linear_1518_12970)"/>
<path d="M27.0691 18.5069C27.0691 18.4979 27.0691 18.4876 27.0691 18.4785C27.0665 18.6038 27.0495 19.0057 27.0273 19.4915C27.0547 19.1672 27.0691 18.839 27.0691 18.5069Z" fill="url(#paint2_linear_1518_12970)"/>
<path opacity="0.7" d="M15.4685 29.9998C21.5399 29.9998 26.5221 25.3779 27.0256 19.4924C27.049 19.0066 27.066 18.6034 27.0673 18.4794C27.0673 18.4535 27.066 18.4277 27.066 18.4019C27.0282 17.1266 25.6639 15.8616 24.7353 15.1884C23.178 14.0617 21.2177 13.3717 19.2665 13.4182C17.794 13.4531 16.3059 13.9183 15.1073 14.7698C13.8995 15.6277 12.967 16.7816 11.8023 17.686C11.6497 17.8049 11.4919 17.916 11.3288 18.0194C10.1433 18.7649 8.74641 19.2508 7.3326 19.2508C6.08703 19.2508 4.91059 18.9588 3.86849 18.4419C3.86849 18.4639 3.86719 18.4858 3.86719 18.5065C3.86849 24.8546 9.06204 29.9998 15.4685 29.9998Z" fill="url(#paint3_linear_1518_12970)"/>
<g opacity="0.7">
<path opacity="0.7" d="M15.4691 30.0005C21.8756 30.0005 27.0692 24.8553 27.0692 18.5085C27.0692 16.843 26.7118 15.193 26.1236 13.6037C21.65 14.7123 19.0976 20.457 14.0514 19.7076C11.6594 19.3523 9.89606 16.9619 9.90518 14.6245C9.9104 13.2122 10.5364 11.8284 11.5512 10.8477C7.19625 10.8515 3.90039 14.2769 3.90039 18.5021C3.90039 18.9246 3.91865 19.3988 3.95517 19.9105C4.65295 25.5957 9.5413 30.0005 15.4691 30.0005Z" fill="url(#paint4_linear_1518_12970)"/>
</g>
<path d="M19.3333 10.8355C19.3333 9.78371 20.1993 8.93093 21.2662 8.93093C20.198 8.93093 19.3333 8.07814 19.3333 7.02637C19.3333 8.07814 18.4673 8.93093 17.4004 8.93093C18.4673 8.93093 19.3333 9.78371 19.3333 10.8355Z" fill="white"/>
<path d="M27.0698 19.8818C30.4896 21.506 28.7041 22.7141 28.4549 22.8653C28.4197 22.8924 28.3819 22.917 28.3389 22.9377C28.335 22.9402 28.3297 22.9415 28.3258 22.9441C27.5524 23.2891 26.4855 23.6134 25.2413 23.8822C22.5415 24.4662 19.0708 24.7879 15.4685 24.7879C11.8661 24.7879 8.39549 24.4662 5.69568 23.8822C4.45142 23.6134 3.38585 23.2891 2.61112 22.9441L2.59808 22.9377C2.55373 22.9183 2.51461 22.8924 2.47939 22.864C2.22245 22.7077 0.45649 21.5021 3.86712 19.8818C1.45946 20.5641 0 21.4608 0 22.4441C0 24.5838 6.92429 26.3191 15.4672 26.3191C24.01 26.3191 30.9343 24.5838 30.9343 22.4441C30.9343 21.4608 29.4749 20.5641 27.0698 19.8818Z" fill="white"/>
<path d="M27.0684 19.8809L27.0704 19.8829C27.0704 19.8829 27.0704 19.8809 27.0684 19.8809Z" fill="white"/>
<path d="M3.8673 19.8809C3.8673 19.8809 3.86523 19.8809 3.86523 19.8829C3.86523 19.8829 3.86523 19.8809 3.8673 19.8809Z" fill="white"/>
<path d="M41.8915 10.166L37.8652 20.9008H39.1004L40.2833 17.6059H44.4087L45.5643 20.9008H46.7824L42.9192 10.166H41.8915ZM40.685 16.5167L42.3897 11.9401L44.0148 16.5167H40.685Z" fill="white"/>
<path d="M53.0627 12.8887C51.2224 12.8887 50.209 14.3139 50.209 16.9019C50.209 18.9486 50.5481 21.0405 53.0627 21.0405C53.6014 21.0405 54.6708 20.9049 55.5773 20.6077V24.67H56.6768V13.1471L56.4538 13.1148C55.8695 13.0295 54.6526 12.8887 53.0627 12.8887ZM51.3085 16.9019C51.3085 14.9612 51.8993 13.9779 53.0627 13.9779H55.5773V19.6037C54.5795 19.8505 54.0265 19.9513 53.0627 19.9513C51.7832 19.9513 51.3085 19.1244 51.3085 16.9019Z" fill="white"/>
<path d="M66.3987 19.2014C65.3957 19.7105 64.7697 19.9237 63.7146 19.9237C62.8198 19.9237 62.2421 19.3177 62.2421 18.381V12.958H61.1426V18.381C61.1426 19.6886 62.0256 21.013 63.7146 21.013C64.8141 21.013 65.7518 20.5956 66.4848 20.1705L66.6478 20.8876H67.4969V12.958H66.3974V19.2014H66.3987Z" fill="white"/>
<path d="M75.6607 12.8321C74.4504 12.8438 73.36 12.9846 72.2305 13.2727L72.0349 13.3231V14.194L72.3297 14.1565C73.7435 13.9756 74.6904 13.8787 75.6464 13.8929C76.5568 13.9033 76.9806 14.331 76.9806 15.2393V15.3453L76.9859 15.3504C76.9872 15.4654 76.9859 15.6864 76.9832 15.9202C76.4146 15.9241 74.9525 15.919 73.93 15.9151C72.6336 15.9151 71.7949 16.7446 71.7949 18.0302V18.8817C71.7949 20.1183 72.6727 20.9827 73.93 20.9827C74.7112 20.9827 75.7612 20.692 77.0511 20.117L77.2115 20.9H78.0801V15.2393C78.0801 14.4821 77.8597 13.8826 77.4267 13.4588C76.9989 13.0414 76.3859 12.827 75.6607 12.8321ZM72.8957 18.8145V18.0613C72.8957 17.3739 73.2283 17.0379 73.9443 17.0069L76.9819 16.8531V19.1776C76.455 19.3624 74.8273 19.9102 73.9365 19.896C73.5465 19.887 72.8957 19.7332 72.8957 18.8145Z" fill="white"/>
<path d="M88.5964 14.6123H86.9621C86.1731 14.6123 85.8627 14.4444 85.8627 13.6355V13.1329C85.8627 12.1832 86.3557 12.1276 87.2152 12.1418C87.7225 12.1418 89.765 12.1974 90.6675 12.2814V10.7451C89.8498 10.5073 88.1594 10.3122 86.6804 10.3407C85.1023 10.3691 83.8906 10.9544 83.8906 12.9791V13.859C83.8906 14.7519 84.0602 16.5673 86.5539 16.5673H88.1321C88.8924 16.5673 89.062 16.9446 89.062 17.5299V18.0739C89.062 18.8556 88.3851 18.9538 87.7943 18.9538C86.4835 18.9538 84.7645 18.8556 84.201 18.8V20.3351C85.2718 20.6426 86.4274 20.7537 88.1881 20.7537C89.5837 20.7537 91.034 20.3208 91.034 18.0041V17.3206C91.034 16.19 90.6258 14.6123 88.5964 14.6123Z" fill="white"/>
<path d="M99.4738 13.1475C98.5856 13.1475 97.6701 13.6074 97.2057 13.9705L96.8679 13.2302H95.248V24.4107H97.207V20.2786C97.884 20.5861 98.8413 20.7528 99.4752 20.7528C101.546 20.7528 101.913 19.0498 101.913 16.8997C101.912 14.6825 101.319 13.1475 99.4738 13.1475ZM98.9665 19.219C98.2765 19.219 97.7261 19.1351 97.2057 18.9399V15.2691C97.6283 15.0042 98.2205 14.822 98.9665 14.822C99.6004 14.822 99.9382 15.3247 99.9382 16.9863C99.9382 18.8702 99.586 19.219 98.9665 19.219Z" fill="white"/>
<path d="M108.914 13.0898C107.519 13.0898 106.491 13.201 105.505 13.5783V14.7928C106.111 14.7515 107.984 14.6391 108.647 14.6391C109.266 14.6391 109.647 14.7502 109.647 15.5461C109.662 15.5603 109.647 16.0203 109.647 16.0203C109.647 16.0345 107.45 16.0203 107.45 16.0203C105.843 16.0203 105.252 16.97 105.252 18.058V18.7557C105.252 19.7183 105.929 20.6822 107.366 20.7236C108.507 20.752 109.564 19.9832 109.649 19.8307L110.057 20.6409H111.621V15.4764C111.621 13.6351 110.521 13.0898 108.914 13.0898ZM109.647 18.5761C109.647 18.5761 108.746 19.1627 107.928 19.1627C107.562 19.1627 107.224 19.0929 107.224 18.4792V18.1161C107.224 17.7957 107.309 17.4042 107.83 17.3628L109.649 17.2233V18.5761H109.647Z" fill="white"/>
<path d="M117.466 16.9715C117.466 14.7801 117.888 14.7246 118.804 14.7246C120.057 14.7246 121.397 14.8086 121.397 14.8086V13.6082C120.171 13.2038 118.692 13.1611 117.959 13.1611C116.521 13.1611 115.492 13.8731 115.492 16.9302C115.492 19.9873 116.563 20.7135 117.959 20.7135C119.128 20.6992 120.411 20.7974 121.496 20.2393V19.0105C121.496 19.0105 120.1 19.1358 118.805 19.1358C117.789 19.1345 117.466 18.8696 117.466 16.9715Z" fill="white"/>
<path d="M128.54 19.1495C127.47 19.1495 126.962 19.0655 126.962 17.7398H129.344C130.696 17.7398 131.429 17.1958 131.429 15.8688C131.429 13.4126 130.429 13.1748 128.259 13.1748C125.891 13.1748 124.99 13.7188 124.99 16.9012C124.99 19.6237 125.554 20.7116 127.457 20.7116C128.626 20.7116 130.232 20.7116 131.288 20.3214V18.9957C130.232 19.1637 129.683 19.1495 128.54 19.1495ZM128.372 14.6685C129.316 14.6685 129.457 14.8364 129.457 15.7706C129.457 16.1337 129.246 16.3288 128.838 16.3288H126.964C126.949 14.724 127.329 14.6685 128.372 14.6685Z" fill="white"/>
</g>
<defs>
<linearGradient id="paint0_linear_1518_12970" x1="3.86686" y1="15" x2="27.0677" y2="15" gradientUnits="userSpaceOnUse">
<stop offset="0.3289" stop-color="#D0EBFF"/>
<stop offset="0.7029" stop-color="#88D4FF"/>
</linearGradient>
<linearGradient id="paint1_linear_1518_12970" x1="4.71511" y1="5.66676" x2="32.4506" y2="21.8468" gradientUnits="userSpaceOnUse">
<stop offset="0.4396" stop-color="#67C5E1"/>
<stop offset="0.6453" stop-color="#E68AE6"/>
</linearGradient>
<linearGradient id="paint2_linear_1518_12970" x1="3.86842" y1="18.9853" x2="27.0695" y2="18.9853" gradientUnits="userSpaceOnUse">
<stop offset="0.3289" stop-color="#D0EBFF"/>
<stop offset="0.7029" stop-color="#88D4FF"/>
</linearGradient>
<linearGradient id="paint3_linear_1518_12970" x1="0.55709" y1="12.274" x2="28.5857" y2="28.6085" gradientUnits="userSpaceOnUse">
<stop offset="0.4396" stop-color="#67C5E1"/>
<stop offset="0.6453" stop-color="#E68AE6"/>
</linearGradient>
<linearGradient id="paint4_linear_1518_12970" x1="15.4851" y1="10.8468" x2="15.4851" y2="30.0005" gradientUnits="userSpaceOnUse">
<stop offset="0.0782" stop-color="#7CCBE9"/>
<stop offset="0.2381" stop-color="#009FE8"/>
<stop offset="0.4097" stop-color="#1554E1"/>
<stop offset="0.6645" stop-color="#000020"/>
</linearGradient>
<clipPath id="clip0_1518_12970">
<rect width="131.429" height="30" fill="white"/>
</clipPath>
</defs>
</svg>
