<svg width="220" height="50" viewBox="0 0 220 50" fill="none" xmlns="http://www.w3.org/2000/svg">
<g clip-path="url(#clip0_1460_12299)">
<path d="M25.7787 0C25.7787 0 45.1122 15.0121 45.1122 30.8468C45.1122 41.4248 36.4562 50 25.7787 50C15.1012 50 6.44531 41.4248 6.44531 30.8468C6.44531 15.0121 25.7787 0 25.7787 0Z" fill="url(#paint0_linear_1460_12299)"/>
<path opacity="0.7" d="M45.1135 30.7599C45.1135 30.7299 45.1113 30.6998 45.1113 30.6719C45.1113 30.7148 45.1135 30.7578 45.1135 30.8007C45.1135 30.7835 45.1135 30.7685 45.1135 30.7599Z" fill="url(#paint1_linear_1460_12299)"/>
<path d="M45.1106 30.8462C45.1106 30.8311 45.1106 30.8139 45.1106 30.7988C45.1062 31.0077 45.078 31.6775 45.041 32.4872C45.0867 31.9466 45.1106 31.3997 45.1106 30.8462Z" fill="url(#paint2_linear_1460_12299)"/>
<path opacity="0.7" d="M25.779 49.9999C35.8978 49.9999 44.2016 42.2968 45.0406 32.4876C45.0798 31.6779 45.108 31.006 45.1102 30.7993C45.1102 30.7562 45.108 30.7132 45.108 30.6701C45.045 28.5446 42.7712 26.4363 41.2235 25.3143C38.6281 23.4365 35.3609 22.2865 32.1089 22.364C29.6548 22.4222 27.1745 23.1974 25.1768 24.6166C23.1639 26.0465 21.6097 27.9696 19.6685 29.4771C19.4142 29.6752 19.1512 29.8604 18.8794 30.0327C16.9035 31.2752 14.5754 32.0849 12.219 32.0849C10.1431 32.0849 8.18237 31.5983 6.44553 30.7369C6.44553 30.7735 6.44336 30.8101 6.44336 30.8445C6.44553 41.4247 15.1014 49.9999 25.779 49.9999Z" fill="url(#paint3_linear_1460_12299)"/>
<g opacity="0.7">
<path opacity="0.7" d="M25.7793 50.0005C36.4568 50.0005 45.1127 41.4252 45.1127 30.8472C45.1127 28.0714 44.5171 25.3213 43.5367 22.6725C36.0807 24.5202 31.8267 34.0947 23.4164 32.8457C19.4297 32.2534 16.4908 28.2695 16.506 24.3738C16.5147 22.02 17.5581 19.7136 19.2493 18.0791C11.9911 18.0856 6.49805 23.7945 6.49805 30.8364C6.49805 31.5406 6.52848 32.331 6.58934 33.1838C7.75231 42.6592 15.8996 50.0005 25.7793 50.0005Z" fill="url(#paint4_linear_1460_12299)"/>
</g>
<path d="M32.2235 18.0595C32.2235 16.3065 33.6668 14.8852 35.445 14.8852C33.6647 14.8852 32.2235 13.4639 32.2235 11.7109C32.2235 13.4639 30.7801 14.8852 29.002 14.8852C30.7801 14.8852 32.2235 16.3065 32.2235 18.0595Z" fill="white"/>
<path d="M45.1164 33.1367C50.816 35.8437 47.8401 37.8572 47.4249 38.1092C47.3662 38.1544 47.3032 38.1953 47.2315 38.2298C47.2249 38.2341 47.2162 38.2362 47.2097 38.2405C45.9207 38.8155 44.1425 39.356 42.0688 39.804C37.5691 40.7773 31.7847 41.3136 25.7808 41.3136C19.7769 41.3136 13.9925 40.7773 9.49281 39.804C7.41904 39.356 5.64308 38.8155 4.35187 38.2405L4.33013 38.2298C4.25622 38.1974 4.19101 38.1544 4.13232 38.107C3.70409 37.8464 0.760816 35.8372 6.4452 33.1367C2.43244 34.2738 0 35.7683 0 37.4071C0 40.9733 11.5405 43.8655 25.7786 43.8655C40.0167 43.8655 51.5572 40.9733 51.5572 37.4071C51.5572 35.7683 49.1248 34.2738 45.1164 33.1367Z" fill="white"/>
<path d="M45.1133 33.1348L45.1174 33.1388C45.1174 33.1388 45.1174 33.1348 45.1133 33.1348Z" fill="white"/>
<path d="M6.44743 33.1348C6.44743 33.1348 6.44336 33.1348 6.44336 33.1388C6.44336 33.1388 6.44336 33.1348 6.44743 33.1348Z" fill="white"/>
<path d="M69.8198 16.9434L63.1094 34.8346H65.1679L67.1395 29.3432H74.0151L75.9411 34.8346H77.9714L71.5327 16.9434H69.8198ZM67.8091 27.5278L70.6501 19.9001L73.3587 27.5278H67.8091Z" fill="white"/>
<path d="M88.4378 21.4814C85.3707 21.4814 83.6816 23.8568 83.6816 28.1702C83.6816 31.5814 84.2468 35.0679 88.4378 35.0679C89.3356 35.0679 91.1181 34.8418 92.6288 34.3465V41.1171H94.4613V21.9121L94.0896 21.8583C93.1158 21.7162 91.0876 21.4814 88.4378 21.4814ZM85.5141 28.1702C85.5141 24.9357 86.4988 23.2968 88.4378 23.2968H92.6288V32.6732C90.9659 33.0845 90.0442 33.2525 88.4378 33.2525C86.3054 33.2525 85.5141 31.8742 85.5141 28.1702Z" fill="white"/>
<path d="M110.665 32.0014C108.993 32.8499 107.95 33.2052 106.191 33.2052C104.7 33.2052 103.737 32.1952 103.737 30.6339V21.5957H101.904V30.6339C101.904 32.8133 103.376 35.0206 106.191 35.0206C108.023 35.0206 109.586 34.3251 110.808 33.6166L111.08 34.8117H112.495V21.5957H110.662V32.0014H110.665Z" fill="white"/>
<path d="M126.099 21.3859C124.082 21.4053 122.265 21.64 120.382 22.1202L120.056 22.2042V23.6557L120.547 23.5932C122.904 23.2917 124.482 23.1302 126.075 23.1539C127.593 23.1711 128.299 23.884 128.299 25.3979V25.5745L128.308 25.5831C128.31 25.7747 128.308 26.143 128.303 26.5328C127.356 26.5392 124.919 26.5306 123.215 26.5241C121.054 26.5241 119.656 27.9067 119.656 30.0494V31.4686C119.656 33.5295 121.119 34.9702 123.215 34.9702C124.517 34.9702 126.267 34.4856 128.417 33.5273L128.684 34.8324H130.132V25.3979C130.132 24.1359 129.764 23.1367 129.043 22.4303C128.33 21.7348 127.308 21.3773 126.099 21.3859ZM121.491 31.3566V30.1011C121.491 28.9555 122.045 28.3955 123.239 28.3439L128.301 28.0876V31.9617C127.423 32.2697 124.71 33.1828 123.226 33.1591C122.576 33.144 121.491 32.8877 121.491 31.3566Z" fill="white"/>
<path d="M147.659 24.3536H144.936C143.62 24.3536 143.103 24.0736 143.103 22.7255V21.8878C143.103 20.305 143.925 20.2124 145.357 20.2361C146.203 20.2361 149.607 20.3287 151.111 20.4687V17.9081C149.748 17.5119 146.931 17.1867 144.466 17.2341C141.836 17.2815 139.816 18.257 139.816 21.6315V23.0981C139.816 24.5861 140.099 27.6118 144.255 27.6118H146.885C148.153 27.6118 148.435 28.2406 148.435 29.2162V30.1228C148.435 31.4257 147.307 31.5893 146.322 31.5893C144.138 31.5893 141.273 31.4257 140.334 31.3331V33.8914C142.118 34.404 144.044 34.5892 146.979 34.5892C149.305 34.5892 151.722 33.8677 151.722 30.0065V28.8673C151.722 26.983 151.042 24.3536 147.659 24.3536Z" fill="white"/>
<path d="M165.789 21.9121C164.309 21.9121 162.783 22.6788 162.009 23.2839L161.446 22.0499H158.746V40.6842H162.011V33.7973C163.139 34.3098 164.735 34.5876 165.791 34.5876C169.243 34.5876 169.854 31.7493 169.854 28.1659C169.852 24.4705 168.865 21.9121 165.789 21.9121ZM164.943 32.0314C163.794 32.0314 162.876 31.8914 162.009 31.5663V25.4482C162.713 25.0067 163.7 24.703 164.943 24.703C166 24.703 166.563 25.5408 166.563 28.3102C166.563 31.45 165.976 32.0314 164.943 32.0314Z" fill="white"/>
<path d="M181.522 21.8164C179.196 21.8164 177.483 22.0016 175.84 22.6304V24.6547C176.85 24.5858 179.972 24.3985 181.076 24.3985C182.109 24.3985 182.744 24.5837 182.744 25.9102C182.767 25.9339 182.744 26.7005 182.744 26.7005C182.744 26.7242 179.081 26.7005 179.081 26.7005C176.403 26.7005 175.418 28.2834 175.418 30.0966V31.2595C175.418 32.8639 176.546 34.4704 178.942 34.5393C180.844 34.5867 182.604 33.3053 182.746 33.0512L183.426 34.4015H186.032V25.7939C186.032 22.7252 184.2 21.8164 181.522 21.8164ZM182.744 30.9602C182.744 30.9602 181.241 31.9379 179.879 31.9379C179.268 31.9379 178.705 31.8216 178.705 30.7987V30.1935C178.705 29.6595 178.846 29.0069 179.716 28.938L182.746 28.7055V30.9602H182.744Z" fill="white"/>
<path d="M195.775 28.2852C195.775 24.6329 196.48 24.5403 198.006 24.5403C200.094 24.5403 202.327 24.6803 202.327 24.6803V22.6797C200.284 22.0056 197.819 21.9346 196.597 21.9346C194.201 21.9346 192.486 23.1211 192.486 28.2163C192.486 33.3115 194.271 34.5218 196.597 34.5218C198.547 34.4981 200.684 34.6618 202.492 33.7315V31.6835C202.492 31.6835 200.166 31.8924 198.008 31.8924C196.314 31.8902 195.775 31.4487 195.775 28.2852Z" fill="white"/>
<path d="M214.233 31.9148C212.449 31.9148 211.603 31.7748 211.603 29.5654H215.572C217.827 29.5654 219.048 28.6587 219.048 26.4471C219.048 22.3533 217.381 21.957 213.764 21.957C209.818 21.957 208.316 22.8637 208.316 28.1677C208.316 32.7052 209.255 34.5184 212.427 34.5184C214.377 34.5184 217.053 34.5184 218.813 33.8681V31.6586C217.053 31.9385 216.138 31.9148 214.233 31.9148ZM213.953 24.4465C215.527 24.4465 215.761 24.7264 215.761 26.2834C215.761 26.8886 215.409 27.2137 214.729 27.2137H211.605C211.581 24.5391 212.214 24.4465 213.953 24.4465Z" fill="white"/>
</g>
<defs>
<linearGradient id="paint0_linear_1460_12299" x1="6.44477" y1="25.0001" x2="45.1128" y2="25.0001" gradientUnits="userSpaceOnUse">
<stop offset="0.3289" stop-color="#D0EBFF"/>
<stop offset="0.7029" stop-color="#88D4FF"/>
</linearGradient>
<linearGradient id="paint1_linear_1460_12299" x1="7.56002" y1="9.27059" x2="54.1604" y2="36.4472" gradientUnits="userSpaceOnUse">
<stop offset="0.4396" stop-color="#67C5E1"/>
<stop offset="0.6453" stop-color="#E68AE6"/>
</linearGradient>
<linearGradient id="paint2_linear_1460_12299" x1="6.44382" y1="31.6434" x2="45.1112" y2="31.6434" gradientUnits="userSpaceOnUse">
<stop offset="0.3289" stop-color="#D0EBFF"/>
<stop offset="0.7029" stop-color="#88D4FF"/>
</linearGradient>
<linearGradient id="paint3_linear_1460_12299" x1="0.92653" y1="20.4569" x2="47.6409" y2="47.6812" gradientUnits="userSpaceOnUse">
<stop offset="0.4396" stop-color="#67C5E1"/>
<stop offset="0.6453" stop-color="#E68AE6"/>
</linearGradient>
<linearGradient id="paint4_linear_1460_12299" x1="25.8059" y1="18.0777" x2="25.8059" y2="50.0006" gradientUnits="userSpaceOnUse">
<stop offset="0.0782" stop-color="#7CCBE9"/>
<stop offset="0.2381" stop-color="#009FE8"/>
<stop offset="0.4097" stop-color="#1554E1"/>
<stop offset="0.6645" stop-color="#000020"/>
</linearGradient>
<clipPath id="clip0_1460_12299">
<rect width="219.048" height="50" fill="white"/>
</clipPath>
</defs>
</svg>
