<svg width="219" height="50" viewBox="0 0 219 50" fill="none" xmlns="http://www.w3.org/2000/svg">
<g clip-path="url(#clip0_1441_15598)">
<path d="M25.7682 0C25.7682 0 45.0931 15.0121 45.0931 30.8468C45.0931 41.4248 36.441 50 25.7682 50C15.0954 50 6.44336 41.4248 6.44336 30.8468C6.44336 15.0121 25.7682 0 25.7682 0Z" fill="url(#paint0_linear_1441_15598)"/>
<path opacity="0.7" d="M45.094 30.7599C45.094 30.7299 45.0918 30.6998 45.0918 30.6719C45.0918 30.7148 45.094 30.7578 45.094 30.8007C45.094 30.7835 45.094 30.7685 45.094 30.7599Z" fill="url(#paint1_linear_1441_15598)"/>
<path d="M45.091 30.8462C45.091 30.8311 45.091 30.8139 45.091 30.7988C45.0867 31.0077 45.0584 31.6775 45.0215 32.4872C45.0671 31.9466 45.091 31.3997 45.091 30.8462Z" fill="url(#paint2_linear_1441_15598)"/>
<path opacity="0.7" d="M25.7665 49.9999C35.8809 49.9999 44.181 42.2968 45.0197 32.4876C45.0588 31.6779 45.0871 31.006 45.0892 30.7993C45.0892 30.7562 45.0871 30.7132 45.0871 30.6701C45.024 28.5446 42.7513 26.4363 41.2043 25.3143C38.6099 23.4365 35.3442 22.2865 32.0937 22.364C29.6406 22.4222 27.1615 23.1974 25.1647 24.6166C23.1526 26.0465 21.5991 27.9696 19.6588 29.4771C19.4046 29.6752 19.1416 29.8604 18.87 30.0327C16.895 31.2752 14.5679 32.0849 12.2126 32.0849C10.1376 32.0849 8.17769 31.5983 6.44163 30.7369C6.44163 30.7735 6.43945 30.8101 6.43945 30.8445C6.44163 41.4247 15.0937 49.9999 25.7665 49.9999Z" fill="url(#paint3_linear_1441_15598)"/>
<g opacity="0.7">
<path opacity="0.7" d="M25.7669 50.0004C36.4397 50.0004 45.0918 41.4252 45.0918 30.8472C45.0918 28.0713 44.4964 25.3213 43.5165 22.6725C36.0638 24.5202 31.8116 34.0947 23.405 32.8457C19.4201 32.2534 16.4825 28.2695 16.4977 24.3738C16.5064 22.02 17.5494 19.7136 19.2398 18.0791C11.9848 18.0856 6.49414 23.7945 6.49414 30.8364C6.49414 31.5406 6.52456 32.331 6.5854 33.1838C7.74785 42.6592 15.8915 50.0004 25.7669 50.0004Z" fill="url(#paint4_linear_1441_15598)"/>
</g>
<path d="M32.2084 18.0595C32.2084 16.3065 33.6511 14.8852 35.4285 14.8852C33.6489 14.8852 32.2084 13.4639 32.2084 11.7109C32.2084 13.4639 30.7656 14.8852 28.9883 14.8852C30.7656 14.8852 32.2084 16.3065 32.2084 18.0595Z" fill="white"/>
<path d="M45.0965 33.1367C50.7935 35.8437 47.819 37.8572 47.404 38.1092C47.3453 38.1544 47.2823 38.1953 47.2106 38.2298C47.2041 38.2341 47.1954 38.2362 47.1889 38.2405C45.9004 38.8155 44.123 39.356 42.0502 39.804C37.5525 40.7773 31.7707 41.3136 25.7694 41.3136C19.7681 41.3136 13.9863 40.7773 9.48862 39.804C7.41577 39.356 5.64059 38.8155 4.34995 38.2405L4.32822 38.2298C4.25434 38.1975 4.18916 38.1544 4.13049 38.107C3.70245 37.8464 0.76048 35.8372 6.44235 33.1367C2.43136 34.2738 0 35.7683 0 37.4071C0 40.9733 11.5354 43.8655 25.7672 43.8655C39.9991 43.8655 51.5345 40.9733 51.5345 37.4071C51.5345 35.7683 49.1031 34.2738 45.0965 33.1367Z" fill="white"/>
<path d="M45.0938 33.1348L45.0978 33.1388C45.0978 33.1388 45.0978 33.1348 45.0938 33.1348Z" fill="white"/>
<path d="M6.44548 33.1348C6.44548 33.1348 6.44141 33.1348 6.44141 33.1388C6.44141 33.1388 6.44141 33.1348 6.44548 33.1348Z" fill="white"/>
<path d="M69.7895 16.9434L63.082 34.8346H65.1397L67.1104 29.3432H73.983L75.9081 34.8346H77.9375L71.5016 16.9434H69.7895V16.9434ZM67.7796 27.5278L70.6195 19.9001L73.3268 27.5278H67.7796Z" fill="white"/>
<path d="M88.3986 21.4814C85.3328 21.4814 83.6445 23.8568 83.6445 28.1702C83.6445 31.5814 84.2095 35.0679 88.3986 35.0679C89.296 35.0679 91.0777 34.8418 92.5878 34.3465V41.1171H94.4194V21.9121L94.0479 21.8583C93.0745 21.7162 91.0473 21.4814 88.3986 21.4814ZM85.4762 28.1702C85.4762 24.9357 86.4605 23.2968 88.3986 23.2968H92.5878V32.6732C90.9256 33.0845 90.0043 33.2525 88.3986 33.2525C86.2671 33.2525 85.4762 31.8742 85.4762 28.1702Z" fill="white"/>
<path d="M110.616 32.0014C108.945 32.8499 107.902 33.2052 106.144 33.2052C104.654 33.2052 103.691 32.1952 103.691 30.6339V21.5957H101.859V30.6339C101.859 32.8133 103.33 35.0206 106.144 35.0206C107.976 35.0206 109.538 34.3251 110.759 33.6165L111.031 34.8117H112.445V21.5957H110.614V32.0014H110.616Z" fill="white"/>
<path d="M126.044 21.3859C124.027 21.4053 122.211 21.64 120.329 22.1202L120.003 22.2042V23.6557L120.494 23.5932C122.85 23.2917 124.427 23.1302 126.02 23.1539C127.536 23.1711 128.243 23.884 128.243 25.3979V25.5745L128.251 25.5831C128.253 25.7747 128.251 26.143 128.247 26.5328C127.3 26.5392 124.864 26.5306 123.16 26.5241C121.001 26.5241 119.604 27.9067 119.604 30.0494V31.4686C119.604 33.5295 121.066 34.9702 123.16 34.9702C124.462 34.9702 126.211 34.4856 128.36 33.5273L128.627 34.8324H130.074V25.3979C130.074 24.1359 129.707 23.1367 128.986 22.4303C128.273 21.7348 127.252 21.3773 126.044 21.3859ZM121.437 31.3566V30.1011C121.437 28.9555 121.991 28.3955 123.184 28.3439L128.245 28.0876V31.9617C127.367 32.2697 124.655 33.1828 123.171 33.1591C122.522 33.144 121.437 32.8877 121.437 31.3566Z" fill="white"/>
<path d="M147.593 24.3536H144.871C143.556 24.3536 143.039 24.0736 143.039 22.7255V21.8878C143.039 20.305 143.86 20.2124 145.292 20.2361C146.138 20.2361 149.54 20.3287 151.044 20.4687V17.9081C149.681 17.5119 146.865 17.1867 144.402 17.2341C141.772 17.2815 139.754 18.257 139.754 21.6315V23.0981C139.754 24.5861 140.036 27.6118 144.191 27.6118H146.82C148.087 27.6118 148.369 28.2406 148.369 29.2162V30.1228C148.369 31.4257 147.241 31.5893 146.257 31.5893C144.073 31.5893 141.21 31.4257 140.271 31.3331V33.8914C142.055 34.404 143.98 34.5892 146.913 34.5892C149.238 34.5892 151.654 33.8677 151.654 30.0065V28.8673C151.654 26.983 150.974 24.3536 147.593 24.3536Z" fill="white"/>
<path d="M165.716 21.9121C164.236 21.9121 162.711 22.6788 161.937 23.2839L161.374 22.0499H158.676V40.6842H161.939V33.7973C163.067 34.3098 164.662 34.5876 165.718 34.5876C169.168 34.5876 169.779 31.7493 169.779 28.1659C169.777 24.4705 168.79 21.9121 165.716 21.9121ZM164.87 32.0314C163.721 32.0314 162.804 31.8914 161.937 31.5663V25.4482C162.641 25.0067 163.628 24.703 164.87 24.703C165.926 24.703 166.489 25.5408 166.489 28.3102C166.489 31.45 165.903 32.0314 164.87 32.0314Z" fill="white"/>
<path d="M181.441 21.8164C179.116 21.8164 177.404 22.0016 175.761 22.6304V24.6547C176.772 24.5858 179.892 24.3985 180.996 24.3985C182.028 24.3985 182.662 24.5837 182.662 25.9102C182.686 25.9339 182.662 26.7005 182.662 26.7005C182.662 26.7242 179.001 26.7005 179.001 26.7005C176.324 26.7005 175.34 28.2834 175.34 30.0966V31.2595C175.34 32.8639 176.468 34.4704 178.862 34.5393C180.763 34.5867 182.523 33.3053 182.664 33.0512L183.344 34.4015H185.95V25.7939C185.95 22.7252 184.118 21.8164 181.441 21.8164ZM182.662 30.9602C182.662 30.9602 181.161 31.9379 179.798 31.9379C179.188 31.9379 178.625 31.8216 178.625 30.7987V30.1935C178.625 29.6595 178.766 29.0069 179.635 28.938L182.664 28.7055V30.9602H182.662Z" fill="white"/>
<path d="M195.69 28.2852C195.69 24.6329 196.394 24.5403 197.919 24.5403C200.007 24.5403 202.239 24.6803 202.239 24.6803V22.6797C200.196 22.0056 197.732 21.9346 196.511 21.9346C194.117 21.9346 192.402 23.1211 192.402 28.2163C192.402 33.3115 194.186 34.5218 196.511 34.5218C198.46 34.4981 200.596 34.6618 202.404 33.7315V31.6835C202.404 31.6835 200.079 31.8924 197.921 31.8924C196.229 31.8902 195.69 31.4487 195.69 28.2852Z" fill="white"/>
<path d="M214.139 31.9148C212.355 31.9148 211.51 31.7748 211.51 29.5654H215.477C217.731 29.5654 218.952 28.6587 218.952 26.4471C218.952 22.3533 217.285 21.957 213.67 21.957C209.726 21.957 208.225 22.8637 208.225 28.1677C208.225 32.7052 209.163 34.5184 212.333 34.5184C214.282 34.5184 216.957 34.5184 218.717 33.8681V31.6586C216.957 31.9385 216.042 31.9148 214.139 31.9148ZM213.859 24.4465C215.432 24.4465 215.666 24.7264 215.666 26.2834C215.666 26.8886 215.314 27.2137 214.634 27.2137H211.512C211.488 24.5391 212.12 24.4465 213.859 24.4465Z" fill="white"/>
</g>
<defs>
<linearGradient id="paint0_linear_1441_15598" x1="6.44282" y1="25.0001" x2="45.0938" y2="25.0001" gradientUnits="userSpaceOnUse">
<stop offset="0.3289" stop-color="#D0EBFF"/>
<stop offset="0.7029" stop-color="#88D4FF"/>
</linearGradient>
<linearGradient id="paint1_linear_1441_15598" x1="7.54049" y1="9.27059" x2="54.1409" y2="36.4472" gradientUnits="userSpaceOnUse">
<stop offset="0.4396" stop-color="#67C5E1"/>
<stop offset="0.6453" stop-color="#E68AE6"/>
</linearGradient>
<linearGradient id="paint2_linear_1441_15598" x1="6.42429" y1="31.6434" x2="45.0917" y2="31.6434" gradientUnits="userSpaceOnUse">
<stop offset="0.3289" stop-color="#D0EBFF"/>
<stop offset="0.7029" stop-color="#88D4FF"/>
</linearGradient>
<linearGradient id="paint3_linear_1441_15598" x1="0.925059" y1="20.4569" x2="47.6293" y2="47.6633" gradientUnits="userSpaceOnUse">
<stop offset="0.4396" stop-color="#67C5E1"/>
<stop offset="0.6453" stop-color="#E68AE6"/>
</linearGradient>
<linearGradient id="paint4_linear_1441_15598" x1="25.7934" y1="18.0777" x2="25.7934" y2="50.0006" gradientUnits="userSpaceOnUse">
<stop offset="0.0782" stop-color="#7CCBE9"/>
<stop offset="0.2381" stop-color="#009FE8"/>
<stop offset="0.4097" stop-color="#1554E1"/>
<stop offset="0.6645" stop-color="#000020"/>
</linearGradient>
<clipPath id="clip0_1441_15598">
<rect width="219" height="50" fill="white"/>
</clipPath>
</defs>
</svg>
