<svg width="32" height="32" viewBox="0 0 32 32" fill="none" xmlns="http://www.w3.org/2000/svg">
<g clip-path="url(#clip0_1708_13364)">
<path d="M14.4007 23.6999C14.9007 23.6999 15.3507 24.0999 15.3507 24.6499C15.3507 25.1499 14.9507 25.5999 14.4007 25.5999C13.9007 25.5999 13.4507 25.1999 13.4507 24.6499C13.4507 24.0999 13.9007 23.6999 14.4007 23.6999ZM29.1007 17.8999C28.6007 17.8999 28.1507 17.4999 28.1507 16.9499C28.1507 16.4499 28.5507 15.9999 29.1007 15.9999C29.6007 15.9999 30.0507 16.3999 30.0507 16.9499C30.0507 17.4499 29.6007 17.8999 29.1007 17.8999ZM29.1007 14.0499C27.5007 14.0499 26.2007 15.3499 26.2007 16.9499C26.2007 17.2499 26.2507 17.5499 26.3507 17.8499L16.8007 22.9499C16.2507 22.1499 15.3507 21.6999 14.4007 21.6999C13.3007 21.6999 12.3007 22.3499 11.8007 23.2999L3.20072 18.7999C2.30072 18.2999 1.60072 16.8499 1.70072 15.4499C1.75072 14.7499 2.00072 14.1999 2.35072 13.9999C2.60072 13.8499 2.85072 13.8999 3.20072 14.0499L3.25072 14.0999C5.55072 15.2999 13.0007 19.1999 13.3007 19.3499C13.8007 19.5499 14.0507 19.6499 14.9007 19.2499L30.3007 11.2499C30.5507 11.1499 30.8007 10.9499 30.8007 10.5999C30.8007 10.1499 30.3507 9.94992 30.3507 9.94992C29.4507 9.54992 28.1007 8.89992 26.8007 8.29992C24.0007 6.99992 20.8007 5.49992 19.4007 4.74992C18.2007 4.09992 17.2007 4.64992 17.0507 4.74992L16.7007 4.89992C10.3507 8.09992 1.95072 12.2499 1.45072 12.5499C0.600721 13.0499 0.0507211 14.0999 0.00072107 15.3999C-0.0992789 17.4499 0.950721 19.5999 2.45072 20.3499L11.5507 25.0499C11.7507 26.4499 13.0007 27.5499 14.4007 27.5499C16.0007 27.5499 17.2507 26.2999 17.3007 24.6999L27.3007 19.2999C27.8007 19.6999 28.4507 19.8999 29.1007 19.8999C30.7007 19.8999 32.0007 18.5999 32.0007 16.9999C32.0007 15.3499 30.7007 14.0499 29.1007 14.0499Z" fill="#C0C4CB"/>
</g>
<defs>
<clipPath id="clip0_1708_13364">
<rect width="32" height="32" fill="white"/>
</clipPath>
</defs>
</svg>
