<svg width="24" height="27" viewBox="0 0 24 27" fill="none" xmlns="http://www.w3.org/2000/svg">
<path fill-rule="evenodd" clip-rule="evenodd" d="M12 2.23438C17.5228 2.23438 22 7.23714 22 13.4084C22 19.5796 17.5228 24.5824 12 24.5824C6.47715 24.5824 2 19.5796 2 13.4084C2 7.23714 6.47715 2.23438 12 2.23438ZM14.9724 14.5267H9.02756C9.1385 16.7654 9.57914 18.8035 10.2533 20.3102C10.8812 21.7134 11.5522 22.3476 12 22.3476C12.4478 22.3476 13.1188 21.7134 13.7467 20.3102C14.4209 18.8035 14.8615 16.7654 14.9724 14.5267ZM19.938 14.5269L16.9753 14.5272C16.8543 17.2468 16.2969 19.6795 15.462 21.4707C17.8601 20.1816 19.5952 17.5958 19.938 14.5269ZM7.02475 14.5272L4.06202 14.5269C4.40485 17.5958 6.13992 20.1815 8.53864 21.4698C7.75535 19.7913 7.2165 17.5484 7.05251 15.0337L7.02475 14.5272ZM8.53804 5.34611L8.51189 5.36141C6.12679 6.65466 4.40323 9.23291 4.06192 12.2908L7.0247 12.2907C7.14558 9.57063 7.70294 7.13751 8.53804 5.34611ZM12 4.46918L11.9187 4.47579C11.4734 4.54645 10.8443 5.18593 10.2533 6.5066C9.57902 8.01351 9.13835 10.0521 9.0275 12.2912H14.9725C14.8617 10.0521 14.421 8.01351 13.7467 6.5066C13.1188 5.10339 12.4478 4.46918 12 4.46918ZM15.4614 5.34688L15.4839 5.39349C16.3069 7.18045 16.8556 9.59496 16.9753 12.2914L19.9381 12.2909C19.5956 9.22151 17.8604 6.63535 15.4614 5.34688Z" fill="#ABAFB7"/>
</svg>
