<svg width="474" height="367" viewBox="0 0 474 367" fill="none" xmlns="http://www.w3.org/2000/svg">
<path d="M8 7L8 319" stroke="#2F4D9A" stroke-width="2"/>
<path d="M39.688 18H47.624V16.016H45.064C44.504 16.016 43.72 16.08 43.128 16.144C45.288 14.032 47.064 11.728 47.064 9.584C47.064 7.376 45.576 5.936 43.336 5.936C41.72 5.936 40.664 6.56 39.576 7.728L40.856 9.008C41.464 8.352 42.168 7.792 43.032 7.792C44.168 7.792 44.808 8.512 44.808 9.712C44.808 11.536 42.904 13.76 39.688 16.64V18ZM53.1419 18.224C55.5579 18.224 57.1419 16.112 57.1419 12.032C57.1419 7.952 55.5579 5.936 53.1419 5.936C50.7259 5.936 49.1259 7.936 49.1259 12.032C49.1259 16.112 50.7259 18.224 53.1419 18.224ZM53.1419 16.384C52.1179 16.384 51.3499 15.36 51.3499 12.032C51.3499 8.72 52.1179 7.76 53.1419 7.76C54.1659 7.76 54.9179 8.72 54.9179 12.032C54.9179 15.36 54.1659 16.384 53.1419 16.384ZM58.5318 18H66.4678V16.016H63.9078C63.3478 16.016 62.5638 16.08 61.9718 16.144C64.1318 14.032 65.9078 11.728 65.9078 9.584C65.9078 7.376 64.4198 5.936 62.1798 5.936C60.5638 5.936 59.5078 6.56 58.4198 7.728L59.6998 9.008C60.3078 8.352 61.0118 7.792 61.8758 7.792C63.0118 7.792 63.6518 8.512 63.6518 9.712C63.6518 11.536 61.7478 13.76 58.5318 16.64V18ZM68.5776 18H75.6976V16.096H73.4736V6.144H71.7296C70.9776 6.624 70.1616 6.928 68.9776 7.152V8.608H71.1216V16.096H68.5776V18ZM79.2795 18.224C80.1275 18.224 80.7515 17.552 80.7515 16.688C80.7515 15.808 80.1275 15.152 79.2795 15.152C78.4475 15.152 77.8235 15.808 77.8235 16.688C77.8235 17.552 78.4475 18.224 79.2795 18.224ZM86.6106 18.224C89.0266 18.224 90.6106 16.112 90.6106 12.032C90.6106 7.952 89.0266 5.936 86.6106 5.936C84.1946 5.936 82.5946 7.936 82.5946 12.032C82.5946 16.112 84.1946 18.224 86.6106 18.224ZM86.6106 16.384C85.5866 16.384 84.8186 15.36 84.8186 12.032C84.8186 8.72 85.5866 7.76 86.6106 7.76C87.6346 7.76 88.3866 8.72 88.3866 12.032C88.3866 15.36 87.6346 16.384 86.6106 16.384ZM95.7285 18.224C97.9205 18.224 99.8725 16.704 99.8725 14.064C99.8725 11.488 98.2085 10.304 96.2245 10.304C95.6805 10.304 95.2805 10.416 94.8005 10.64L95.0245 8.128H99.3285V6.144H92.9925L92.6725 11.904L93.7445 12.608C94.4325 12.16 94.8165 11.984 95.5205 11.984C96.7205 11.984 97.5205 12.752 97.5205 14.128C97.5205 15.52 96.6565 16.304 95.4245 16.304C94.3205 16.304 93.4885 15.76 92.8165 15.104L91.7285 16.608C92.6085 17.488 93.8565 18.224 95.7285 18.224Z" fill="#3C6AE0"/>
<path d="M41.54 44.82L41.78 46.18L52.6 45.58C52.5 46.96 52.3 48.44 51.9 50.16L53.52 50.32C54.3 46.64 54.3 44.22 54.3 41.56V39.36H42V40.7H52.7V41.56C52.7 42.48 52.7 43.4 52.66 44.34L41.54 44.82ZM40.08 51.64V52.98H56.3V51.64H40.08ZM69.3584 45.12C66.5184 45.58 64.1784 45.68 60.9984 45.68V43.26H67.4984V38.42H59.3384V39.74H65.8784V42H59.3984V47.02H60.8384C64.1584 47.02 66.5984 46.92 69.5384 46.44L69.3584 45.12ZM71.5584 53.9H63.1784V51.7H71.5584V53.9ZM71.5584 50.42H63.1784V48.3H61.5584V55.24H73.1784V48.3H71.5584V50.42ZM71.5384 37.56V47.4H73.1784V37.56H71.5384ZM85.7969 51.9V48.2H91.2769V46.86H80.5969V44.16H90.6969V42.86H80.5969V40.34H91.0969V39H78.9369V48.2H84.1569V51.9H76.8369V53.24H93.1369V51.9H85.7969ZM105.768 40.74H109.748V39.38H100.048V40.74H104.148V43.02C104.148 46.06 101.988 49.46 99.428 50.74L100.388 52.04C102.408 51 104.148 48.72 104.968 46.1C105.788 48.5 107.468 50.6 109.468 51.6L110.408 50.28C107.808 49.06 105.768 45.88 105.768 43.02V40.74ZM116.488 44.78H113.528V37.56H111.888V55.48H113.528V46.16H116.488V44.78ZM128.586 46.56C125.946 45.62 124.166 43.34 124.166 40.88V38.62H122.526V40.84C122.526 43.62 120.786 46.02 118.046 47L118.906 48.3C121.046 47.5 122.646 45.86 123.386 43.74C124.186 45.62 125.746 47.12 127.766 47.86L128.586 46.56ZM122.566 49.52H120.926V55.08H132.826V53.74H122.566V49.52ZM132.046 43.04V37.52H130.406V50.78H132.046V44.4H134.686V43.04H132.046ZM145.945 45.2C146.405 42.84 146.405 41.06 146.405 39.88V38.94H137.485V40.28H144.805C144.805 41.42 144.745 42.96 144.325 45.02L145.945 45.2ZM147.645 46.28C145.825 46.52 143.785 46.68 141.825 46.76V42.94H140.205V46.82C138.845 46.84 137.545 46.86 136.405 46.86L136.565 48.2C139.745 48.2 144.045 48.1 147.765 47.48L147.645 46.28ZM140.785 49.82H139.145V55.08H151.065V53.74H140.785V49.82ZM150.485 43.38V37.54H148.845V51.06H150.485V44.74H153.045V43.38H150.485ZM157.603 45.6H164.223V39.2H155.903V40.54H162.563V44.28H155.963V51.16H157.443C160.523 51.16 163.243 51.04 166.483 50.5L166.323 49.16C163.183 49.66 160.543 49.8 157.603 49.8V45.6ZM168.003 37.52V55.5H169.643V37.52H168.003ZM173.762 57.8C175.562 57.04 176.682 55.54 176.682 53.62C176.682 52.28 176.102 51.46 175.142 51.46C174.402 51.46 173.762 51.96 173.762 52.74C173.762 53.58 174.402 54.02 175.102 54.02C175.182 54.02 175.242 54.02 175.322 54C175.322 55.18 174.582 56.16 173.322 56.72L173.762 57.8ZM186.521 43.42C186.521 41.36 188.621 40.02 191.481 40.02C194.341 40.02 196.421 41.36 196.421 43.42C196.421 45.48 194.341 46.82 191.481 46.82C188.621 46.82 186.521 45.48 186.521 43.42ZM192.301 51.82V48.08C195.641 47.84 197.981 46.06 197.981 43.42C197.981 40.56 195.261 38.72 191.481 38.72C187.681 38.72 184.941 40.56 184.941 43.42C184.941 46.06 187.301 47.84 190.641 48.08V51.82H183.341V53.18H199.641V51.82H192.301ZM210.699 51.9V48.2H216.179V46.86H205.499V44.16H215.599V42.86H205.499V40.34H215.999V39H203.839V48.2H209.059V51.9H201.739V53.24H218.039V51.9H210.699ZM224.078 40.24H226.938V45.52C225.978 45.58 225.018 45.6 224.078 45.62V40.24ZM231.138 45.18C230.298 45.28 229.418 45.36 228.518 45.42V40.24H230.298V38.9H220.718V40.24H222.478V45.64C221.678 45.66 220.918 45.66 220.218 45.66L220.398 47.04C223.438 47.04 227.658 46.96 231.258 46.38L231.138 45.18ZM224.418 50.2H232.458V53.92H224.418V50.2ZM222.818 55.24H234.078V48.9H222.818V55.24ZM236.738 41.84H234.078V37.56H232.438V47.94H234.078V43.2H236.738V41.84Z" fill="white"/>
<circle r="7" transform="matrix(1 0 0 -1 8 12)" fill="#1C1D1F" stroke="#2F4D9A" stroke-width="2"/>
<path d="M39.688 324H47.624V322.016H45.064C44.504 322.016 43.72 322.08 43.128 322.144C45.288 320.032 47.064 317.728 47.064 315.584C47.064 313.376 45.576 311.936 43.336 311.936C41.72 311.936 40.664 312.56 39.576 313.728L40.856 315.008C41.464 314.352 42.168 313.792 43.032 313.792C44.168 313.792 44.808 314.512 44.808 315.712C44.808 317.536 42.904 319.76 39.688 322.64V324ZM53.1419 324.224C55.5579 324.224 57.1419 322.112 57.1419 318.032C57.1419 313.952 55.5579 311.936 53.1419 311.936C50.7259 311.936 49.1259 313.936 49.1259 318.032C49.1259 322.112 50.7259 324.224 53.1419 324.224ZM53.1419 322.384C52.1179 322.384 51.3499 321.36 51.3499 318.032C51.3499 314.72 52.1179 313.76 53.1419 313.76C54.1659 313.76 54.9179 314.72 54.9179 318.032C54.9179 321.36 54.1659 322.384 53.1419 322.384ZM58.5318 324H66.4678V322.016H63.9078C63.3478 322.016 62.5638 322.08 61.9718 322.144C64.1318 320.032 65.9078 317.728 65.9078 315.584C65.9078 313.376 64.4198 311.936 62.1798 311.936C60.5638 311.936 59.5078 312.56 58.4198 313.728L59.6998 315.008C60.3078 314.352 61.0118 313.792 61.8758 313.792C63.0118 313.792 63.6518 314.512 63.6518 315.712C63.6518 317.536 61.7478 319.76 58.5318 322.64V324ZM68.5776 324H75.6976V322.096H73.4736V312.144H71.7296C70.9776 312.624 70.1616 312.928 68.9776 313.152V314.608H71.1216V322.096H68.5776V324ZM79.2795 324.224C80.1275 324.224 80.7515 323.552 80.7515 322.688C80.7515 321.808 80.1275 321.152 79.2795 321.152C78.4475 321.152 77.8235 321.808 77.8235 322.688C77.8235 323.552 78.4475 324.224 79.2795 324.224ZM86.6106 324.224C89.0266 324.224 90.6106 322.112 90.6106 318.032C90.6106 313.952 89.0266 311.936 86.6106 311.936C84.1946 311.936 82.5946 313.936 82.5946 318.032C82.5946 322.112 84.1946 324.224 86.6106 324.224ZM86.6106 322.384C85.5866 322.384 84.8186 321.36 84.8186 318.032C84.8186 314.72 85.5866 313.76 86.6106 313.76C87.6346 313.76 88.3866 314.72 88.3866 318.032C88.3866 321.36 87.6346 322.384 86.6106 322.384ZM94.1125 315.888C94.1125 314.432 94.8325 313.712 95.7125 313.712C96.7205 313.712 97.5365 314.512 97.7445 316.656C97.2005 317.568 96.4485 317.936 95.7925 317.936C94.7685 317.936 94.1125 317.28 94.1125 315.888ZM95.3925 324.224C97.7445 324.224 99.9365 322.288 99.9365 317.808C99.9365 313.696 97.9205 311.936 95.6805 311.936C93.6485 311.936 91.9525 313.456 91.9525 315.888C91.9525 318.4 93.3765 319.616 95.3445 319.616C96.1445 319.616 97.1525 319.136 97.7765 318.336C97.6645 321.296 96.5765 322.304 95.2485 322.304C94.5445 322.304 93.8245 321.936 93.3925 321.456L92.1445 322.88C92.8485 323.6 93.9205 324.224 95.3925 324.224Z" fill="#3C6AE0"/>
<path d="M43.64 358.08H54.34V353.9H41.98V355.18H52.74V356.86H42.02V361.24H54.98V359.96H43.64V358.08ZM53.82 350.88C54.24 348.76 54.24 347.16 54.24 345.76V344.4H42.14V345.7H52.62V345.76C52.62 346.28 52.62 346.84 52.6 347.44L41.7 347.78L41.9 349.08L52.52 348.6C52.44 349.28 52.34 350.04 52.16 350.88H40.1V352.2H56.26V350.88H53.82ZM67.0384 351.62C64.9384 352.04 63.1784 352.14 60.8584 352.14V349.6H65.9784V344.72H59.2384V346.04H64.3984V348.36H59.2784V353.46H60.4584C63.0384 353.46 64.9184 353.36 67.1984 352.94L67.0384 351.62ZM63.4184 356.42H71.9984V359.92H63.4184V356.42ZM61.8184 361.24H73.5984V355.12H61.8184V361.24ZM72.0184 343.54V348.1H69.6184V343.88H68.0584V354.02H69.6184V349.44H72.0184V354.26H73.5984V343.54H72.0184ZM77.2969 363.8C79.0969 363.04 80.2169 361.54 80.2169 359.62C80.2169 358.28 79.6369 357.46 78.6769 357.46C77.9369 357.46 77.2969 357.96 77.2969 358.74C77.2969 359.58 77.9369 360.02 78.6369 360.02C78.7169 360.02 78.7769 360.02 78.8569 360C78.8369 361.22 78.0969 362.18 76.8569 362.72L77.2969 363.8ZM95.8359 357.9V354.2H101.316V352.86H90.6359V350.16H100.736V348.86H90.6359V346.34H101.136V345H88.9759V354.2H94.1959V357.9H86.8759V359.26H103.176V357.9H95.8359ZM108.974 355.48H107.334V361.08H119.834V359.74H108.974V355.48ZM118.974 352.38C119.474 349.68 119.474 347.74 119.474 346.04V344.5H107.354V345.82H117.854V346.04C117.854 346.66 117.854 347.34 117.814 348.08L106.914 348.44L107.134 349.78L117.754 349.3C117.674 350.22 117.554 351.24 117.314 352.38H105.274V353.72H121.574V352.38H118.974ZM122.853 363.58H124.193L130.173 344.14H128.853L122.853 363.58ZM132.465 360H140.725V358.42H134.325V345.34H132.465V360ZM143.305 360H145.165V354.18H147.585C150.785 354.18 152.985 352.74 152.985 349.64C152.985 346.44 150.785 345.34 147.485 345.34H143.305V360ZM145.165 352.68V346.84H147.265C149.845 346.84 151.145 347.52 151.145 349.64C151.145 351.74 149.925 352.68 147.345 352.68H145.165ZM174.934 352.56C171.794 351.96 168.394 349.24 168.394 346.18V344.8H166.674V346.18C166.674 349.24 163.294 351.94 160.154 352.56L160.894 353.92C163.594 353.28 166.394 351.36 167.534 348.74C168.674 351.38 171.474 353.3 174.194 353.92L174.934 352.56ZM159.474 357.72V359.08H175.734V357.72H159.474ZM180.113 351.84H184.373V350.54H180.113V347.02H185.213V345.68H178.533V357.16H179.693C182.513 357.16 184.193 357.1 186.233 356.7L186.093 355.36C184.213 355.74 182.633 355.82 180.113 355.82V351.84ZM187.933 350.34H185.333V351.68H187.933V360.56H189.473V343.98H187.933V350.34ZM191.533 343.52V361.46H193.093V343.52H191.533ZM209.311 343.54V361.52H210.951V343.54H209.311ZM201.491 344.92C198.831 344.92 196.931 347.36 196.931 351.18C196.931 355 198.831 357.44 201.491 357.44C204.151 357.44 206.051 355 206.051 351.18C206.051 347.36 204.151 344.92 201.491 344.92ZM201.491 346.4C203.231 346.4 204.471 348.28 204.471 351.18C204.471 354.1 203.231 355.98 201.491 355.98C199.731 355.98 198.491 354.1 198.491 351.18C198.491 348.28 199.731 346.4 201.491 346.4ZM229.389 343.54H227.749V354.34H229.389V343.54ZM215.949 344.76V346.08H222.409C222.349 346.78 222.189 347.44 221.949 348.08L215.049 348.38L215.329 349.74L221.289 349.3C220.189 350.92 218.209 352.24 215.189 353.1L215.809 354.4C221.549 352.72 224.129 349.38 224.129 344.76H215.949ZM223.469 360.18C220.749 360.18 219.069 359.38 219.069 358.02C219.069 356.68 220.749 355.88 223.469 355.88C226.169 355.88 227.829 356.68 227.829 358.02C227.829 359.38 226.169 360.18 223.469 360.18ZM223.469 354.6C219.749 354.6 217.429 355.86 217.429 358.02C217.429 360.2 219.749 361.46 223.469 361.46C227.149 361.46 229.469 360.2 229.469 358.02C229.469 355.86 227.149 354.6 223.469 354.6Z" fill="white"/>
<circle r="7" transform="matrix(1 0 0 -1 8 318)" fill="#1C1D1F" stroke="#2F4D9A" stroke-width="2"/>
<path d="M39.688 120H47.624V118.016H45.064C44.504 118.016 43.72 118.08 43.128 118.144C45.288 116.032 47.064 113.728 47.064 111.584C47.064 109.376 45.576 107.936 43.336 107.936C41.72 107.936 40.664 108.56 39.576 109.728L40.856 111.008C41.464 110.352 42.168 109.792 43.032 109.792C44.168 109.792 44.808 110.512 44.808 111.712C44.808 113.536 42.904 115.76 39.688 118.64V120ZM53.1419 120.224C55.5579 120.224 57.1419 118.112 57.1419 114.032C57.1419 109.952 55.5579 107.936 53.1419 107.936C50.7259 107.936 49.1259 109.936 49.1259 114.032C49.1259 118.112 50.7259 120.224 53.1419 120.224ZM53.1419 118.384C52.1179 118.384 51.3499 117.36 51.3499 114.032C51.3499 110.72 52.1179 109.76 53.1419 109.76C54.1659 109.76 54.9179 110.72 54.9179 114.032C54.9179 117.36 54.1659 118.384 53.1419 118.384ZM58.5318 120H66.4678V118.016H63.9078C63.3478 118.016 62.5638 118.08 61.9718 118.144C64.1318 116.032 65.9078 113.728 65.9078 111.584C65.9078 109.376 64.4198 107.936 62.1798 107.936C60.5638 107.936 59.5078 108.56 58.4198 109.728L59.6998 111.008C60.3078 110.352 61.0118 109.792 61.8758 109.792C63.0118 109.792 63.6518 110.512 63.6518 111.712C63.6518 113.536 61.7478 115.76 58.5318 118.64V120ZM68.5776 120H75.6976V118.096H73.4736V108.144H71.7296C70.9776 108.624 70.1616 108.928 68.9776 109.152V110.608H71.1216V118.096H68.5776V120ZM79.2795 120.224C80.1275 120.224 80.7515 119.552 80.7515 118.688C80.7515 117.808 80.1275 117.152 79.2795 117.152C78.4475 117.152 77.8235 117.808 77.8235 118.688C77.8235 119.552 78.4475 120.224 79.2795 120.224ZM86.6106 120.224C89.0266 120.224 90.6106 118.112 90.6106 114.032C90.6106 109.952 89.0266 107.936 86.6106 107.936C84.1946 107.936 82.5946 109.936 82.5946 114.032C82.5946 118.112 84.1946 120.224 86.6106 120.224ZM86.6106 118.384C85.5866 118.384 84.8186 117.36 84.8186 114.032C84.8186 110.72 85.5866 109.76 86.6106 109.76C87.6346 109.76 88.3866 110.72 88.3866 114.032C88.3866 117.36 87.6346 118.384 86.6106 118.384ZM94.2885 120H96.6725C96.8645 115.36 97.2325 112.944 99.9845 109.584V108.144H92.1125V110.128H97.4405C95.1845 113.264 94.4965 115.888 94.2885 120Z" fill="#3C6AE0"/>
<path d="M50.38 148.9H45.92V142.66H50.38V148.9ZM44.28 148.9H41.54V150.24H54.76V148.9H52.02V142.66H54.8V141.34H41.5V142.66H44.28V148.9ZM40.06 153.82V155.18H56.32V153.82H40.06ZM61.1384 147.6H67.7584V141.2H59.4384V142.54H66.0984V146.28H59.4984V153.16H60.9784C64.0584 153.16 66.7784 153.04 70.0184 152.5L69.8584 151.16C66.7184 151.66 64.0784 151.8 61.1384 151.8V147.6ZM71.5384 139.52V157.5H73.1784V139.52H71.5384ZM77.8969 141.3V152.96H86.1369V141.3H77.8969ZM84.5369 142.62V151.66H79.4969V142.62H84.5369ZM89.8969 139.54V157.52H91.5369V139.54H89.8969ZM99.9753 152.08H108.435V155.92H99.9753V152.08ZM98.3753 157.24H110.035V150.78H98.3753V157.24ZM100.155 147.66C98.3753 147.66 97.0953 146.48 97.0953 144.78C97.0953 143.12 98.3753 141.96 100.155 141.96C101.915 141.96 103.195 143.12 103.195 144.78C103.195 146.48 101.915 147.66 100.155 147.66ZM108.375 139.56V144.06H104.695C104.355 141.98 102.555 140.58 100.155 140.58C97.4753 140.58 95.5353 142.3 95.5353 144.78C95.5353 147.32 97.4753 149.04 100.155 149.04C102.595 149.04 104.415 147.6 104.715 145.42H108.375V149.86H110.035V139.56H108.375ZM124.326 147.36H120.466V142.1H124.326V147.36ZM125.846 145.28H128.286V149.74H129.826V139.92H128.286V143.94H125.846V140.84H118.926V148.6H125.846V145.28ZM123.086 152.14H131.666V155.92H123.086V152.14ZM121.486 157.24H133.266V150.84H121.486V157.24ZM131.706 139.56V149.94H133.266V139.56H131.706ZM143.865 151.64H138.865V146.92H143.865V151.64ZM149.665 139.54V146.2H145.465V140.96H143.865V145.62H138.865V140.96H137.245V152.98H145.465V147.52H149.665V157.52H151.305V139.54H149.665ZM165.783 147.38C163.123 146.52 161.243 144.28 161.243 141.82V140.14H159.603V141.82C159.603 144.4 157.743 146.76 155.023 147.72L155.863 149.02C158.003 148.24 159.663 146.62 160.443 144.56C161.263 146.48 162.923 147.96 164.983 148.66L165.783 147.38ZM168.023 155.92H159.703V153.54H168.023V155.92ZM168.023 152.26H159.703V150.06H158.083V157.24H169.643V150.06H168.023V152.26ZM168.003 139.56V149.18H169.643V139.56H168.003ZM178.734 156H180.494V148.3C180.494 146.76 180.354 145.2 180.274 143.72H180.354L181.934 146.74L187.274 156H189.174V141.32H187.414V148.96C187.414 150.48 187.554 152.12 187.654 153.6H187.554L185.994 150.58L180.654 141.32H178.734V156ZM193.168 156H195.028V149.42H200.628V147.86H195.028V142.9H201.628V141.32H193.168V156ZM207.263 156H209.123V142.9H213.563V141.32H202.823V142.9H207.263V156ZM213.293 159.8C215.093 159.04 216.213 157.54 216.213 155.62C216.213 154.28 215.633 153.46 214.673 153.46C213.933 153.46 213.293 153.96 213.293 154.74C213.293 155.58 213.933 156.02 214.633 156.02C214.713 156.02 214.773 156.02 214.853 156C214.853 157.18 214.113 158.16 212.853 158.72L213.293 159.8ZM223.832 156H227.592C232.012 156 234.432 153.26 234.432 148.62C234.432 143.96 232.012 141.32 227.512 141.32H223.832V156ZM225.692 154.48V142.84H227.352C230.812 142.84 232.512 144.9 232.512 148.62C232.512 152.32 230.812 154.48 227.352 154.48H225.692ZM241.783 156.26C243.263 156.26 244.423 155.76 245.383 155.14L244.723 153.94C243.923 154.48 243.063 154.8 242.003 154.8C239.943 154.8 238.523 153.32 238.403 151H245.723C245.763 150.74 245.803 150.36 245.803 149.96C245.803 146.86 244.243 144.86 241.483 144.86C238.963 144.86 236.583 147.06 236.583 150.58C236.583 154.16 238.903 156.26 241.783 156.26ZM238.383 149.68C238.603 147.56 239.963 146.32 241.503 146.32C243.203 146.32 244.203 147.5 244.203 149.68H238.383ZM246.78 156H248.7L250.16 153.46C250.54 152.8 250.9 152.14 251.28 151.52H251.38C251.78 152.14 252.18 152.8 252.54 153.46L254.14 156H256.14L252.56 150.52L255.86 145.14H253.96L252.62 147.52C252.3 148.14 251.98 148.74 251.64 149.34H251.56C251.2 148.74 250.82 148.14 250.48 147.52L249.02 145.14H247.06L250.36 150.34L246.78 156ZM265.454 147.8C265.974 146.14 266.454 144.56 266.914 142.84H266.994C267.474 144.54 267.934 146.14 268.474 147.8L269.174 150.04H264.734L265.454 147.8ZM260.974 156H262.854L264.274 151.52H269.634L271.034 156H272.994L268.014 141.32H265.954L260.974 156ZM278.563 161C281.923 161 284.063 159.26 284.063 157.24C284.063 155.46 282.783 154.66 280.263 154.66H278.143C276.683 154.66 276.243 154.18 276.243 153.48C276.243 152.88 276.543 152.52 276.943 152.18C277.423 152.42 278.023 152.56 278.563 152.56C280.763 152.56 282.523 151.1 282.523 148.78C282.523 147.84 282.163 147.04 281.643 146.54H283.863V145.14H280.083C279.703 145 279.163 144.86 278.563 144.86C276.363 144.86 274.483 146.36 274.483 148.74C274.483 150.04 275.183 151.08 275.903 151.66V151.74C275.343 152.14 274.683 152.86 274.683 153.76C274.683 154.62 275.103 155.2 275.683 155.54V155.62C274.663 156.28 274.083 157.16 274.083 158.08C274.083 159.96 275.903 161 278.563 161ZM278.563 151.32C277.303 151.32 276.243 150.32 276.243 148.74C276.243 147.14 277.283 146.2 278.563 146.2C279.843 146.2 280.883 147.16 280.883 148.74C280.883 150.32 279.803 151.32 278.563 151.32ZM278.823 159.76C276.863 159.76 275.683 159 275.683 157.84C275.683 157.2 276.002 156.56 276.783 156C277.263 156.12 277.783 156.18 278.183 156.18H280.063C281.503 156.18 282.283 156.52 282.283 157.52C282.283 158.66 280.903 159.76 278.823 159.76ZM289.832 161C293.192 161 295.332 159.26 295.332 157.24C295.332 155.46 294.052 154.66 291.532 154.66H289.412C287.952 154.66 287.512 154.18 287.512 153.48C287.512 152.88 287.812 152.52 288.212 152.18C288.692 152.42 289.292 152.56 289.832 152.56C292.032 152.56 293.792 151.1 293.792 148.78C293.792 147.84 293.432 147.04 292.912 146.54H295.132V145.14H291.352C290.972 145 290.432 144.86 289.832 144.86C287.632 144.86 285.752 146.36 285.752 148.74C285.752 150.04 286.452 151.08 287.172 151.66V151.74C286.612 152.14 285.952 152.86 285.952 153.76C285.952 154.62 286.372 155.2 286.952 155.54V155.62C285.932 156.28 285.352 157.16 285.352 158.08C285.352 159.96 287.172 161 289.832 161ZM289.832 151.32C288.572 151.32 287.512 150.32 287.512 148.74C287.512 147.14 288.552 146.2 289.832 146.2C291.112 146.2 292.152 147.16 292.152 148.74C292.152 150.32 291.072 151.32 289.832 151.32ZM290.092 159.76C288.132 159.76 286.952 159 286.952 157.84C286.952 157.2 287.272 156.56 288.052 156C288.532 156.12 289.052 156.18 289.452 156.18H291.332C292.772 156.18 293.552 156.52 293.552 157.52C293.552 158.66 292.172 159.76 290.092 159.76ZM297.442 156H299.262V149.02C299.982 147.16 301.102 146.52 302.002 146.52C302.442 146.52 302.702 146.56 303.062 146.7L303.402 145.1C303.062 144.92 302.722 144.86 302.242 144.86C301.022 144.86 299.922 145.74 299.162 147.12H299.102L298.942 145.14H297.442V156ZM309.361 156.26C310.841 156.26 312.001 155.76 312.961 155.14L312.301 153.94C311.501 154.48 310.641 154.8 309.581 154.8C307.521 154.8 306.101 153.32 305.981 151H313.301C313.341 150.74 313.381 150.36 313.381 149.96C313.381 146.86 311.821 144.86 309.061 144.86C306.541 144.86 304.161 147.06 304.161 150.58C304.161 154.16 306.481 156.26 309.361 156.26ZM305.961 149.68C306.181 147.56 307.541 146.32 309.081 146.32C310.781 146.32 311.781 147.5 311.781 149.68H305.961ZM319.5 161C322.86 161 325 159.26 325 157.24C325 155.46 323.72 154.66 321.2 154.66H319.08C317.62 154.66 317.18 154.18 317.18 153.48C317.18 152.88 317.48 152.52 317.88 152.18C318.36 152.42 318.96 152.56 319.5 152.56C321.7 152.56 323.46 151.1 323.46 148.78C323.46 147.84 323.1 147.04 322.58 146.54H324.8V145.14H321.02C320.64 145 320.1 144.86 319.5 144.86C317.3 144.86 315.42 146.36 315.42 148.74C315.42 150.04 316.12 151.08 316.84 151.66V151.74C316.28 152.14 315.62 152.86 315.62 153.76C315.62 154.62 316.04 155.2 316.62 155.54V155.62C315.6 156.28 315.02 157.16 315.02 158.08C315.02 159.96 316.84 161 319.5 161ZM319.5 151.32C318.24 151.32 317.18 150.32 317.18 148.74C317.18 147.14 318.22 146.2 319.5 146.2C320.78 146.2 321.82 147.16 321.82 148.74C321.82 150.32 320.74 151.32 319.5 151.32ZM319.76 159.76C317.8 159.76 316.62 159 316.62 157.84C316.62 157.2 316.94 156.56 317.72 156C318.2 156.12 318.72 156.18 319.12 156.18H321C322.44 156.18 323.22 156.52 323.22 157.52C323.22 158.66 321.84 159.76 319.76 159.76ZM329.258 156.26C330.598 156.26 331.818 155.56 332.858 154.7H332.918L333.078 156H334.578V149.32C334.578 146.64 333.458 144.86 330.818 144.86C329.078 144.86 327.538 145.64 326.538 146.28L327.258 147.54C328.118 146.96 329.258 146.38 330.518 146.38C332.298 146.38 332.758 147.72 332.758 149.12C328.138 149.64 326.078 150.82 326.078 153.18C326.078 155.14 327.438 156.26 329.258 156.26ZM329.778 154.8C328.698 154.8 327.858 154.3 327.858 153.06C327.858 151.66 329.098 150.76 332.758 150.32V153.36C331.698 154.3 330.838 154.8 329.778 154.8ZM341.174 156.26C341.834 156.26 342.554 156.06 343.174 155.86L342.814 154.5C342.454 154.64 341.954 154.78 341.574 154.78C340.314 154.78 339.894 154.02 339.894 152.68V146.62H342.834V145.14H339.894V142.08H338.374L338.154 145.14L336.454 145.24V146.62H338.074V152.64C338.074 154.8 338.854 156.26 341.174 156.26ZM349.22 156.26C351.88 156.26 354.26 154.18 354.26 150.58C354.26 146.96 351.88 144.86 349.22 144.86C346.56 144.86 344.18 146.96 344.18 150.58C344.18 154.18 346.56 156.26 349.22 156.26ZM349.22 154.74C347.34 154.74 346.08 153.08 346.08 150.58C346.08 148.08 347.34 146.38 349.22 146.38C351.1 146.38 352.38 148.08 352.38 150.58C352.38 153.08 351.1 154.74 349.22 154.74ZM357.129 156H358.949V149.02C359.669 147.16 360.789 146.52 361.689 146.52C362.129 146.52 362.389 146.56 362.749 146.7L363.089 145.1C362.749 144.92 362.409 144.86 361.929 144.86C360.709 144.86 359.609 145.74 358.849 147.12H358.789L358.629 145.14H357.129V156ZM367.823 159.94L368.963 159.4C367.223 156.56 366.403 153.18 366.403 149.78C366.403 146.38 367.223 143.02 368.963 140.16L367.823 139.64C365.983 142.62 364.883 145.86 364.883 149.78C364.883 153.72 365.983 156.94 367.823 159.94ZM386.321 148.56C383.181 147.96 379.781 145.24 379.781 142.18V140.8H378.061V142.18C378.061 145.24 374.681 147.94 371.541 148.56L372.281 149.92C374.981 149.28 377.781 147.36 378.921 144.74C380.061 147.38 382.861 149.3 385.581 149.92L386.321 148.56ZM370.861 153.72V155.08H387.121V153.72H370.861ZM391.579 142.66H396.599V151.6H391.579V142.66ZM389.979 152.92H398.199V141.34H389.979V152.92ZM406.019 146.7H403.059V139.56H401.419V157.48H403.059V148.08H406.019V146.7ZM422.058 149.22H411.398V146.38H421.478V145.08H411.398V142.42H421.878V141.1H409.738V150.54H422.058V149.22ZM407.638 153.82V155.16H423.918V153.82H407.638ZM445.989 148.56C442.849 147.96 439.449 145.24 439.449 142.18V140.8H437.729V142.18C437.729 145.24 434.349 147.94 431.209 148.56L431.949 149.92C434.649 149.28 437.449 147.36 438.589 144.74C439.729 147.38 442.529 149.3 445.249 149.92L445.989 148.56ZM430.529 153.72V155.08H446.789V153.72H430.529ZM451.467 143.28C451.467 142.04 452.647 141.24 454.367 141.24C456.067 141.24 457.247 142.04 457.247 143.28C457.247 144.52 456.067 145.34 454.367 145.34C452.647 145.34 451.467 144.52 451.467 143.28ZM460.087 147.56C458.547 147.8 456.867 147.94 455.207 148V146.5C457.367 146.24 458.787 145.04 458.787 143.28C458.787 141.32 456.987 140.02 454.367 140.02C451.727 140.02 449.947 141.32 449.947 143.28C449.947 145.04 451.387 146.28 453.567 146.52V148.08C451.887 148.14 450.287 148.14 448.907 148.14L449.127 149.46C452.207 149.46 456.447 149.4 460.207 148.72L460.087 147.56ZM461.207 155.88H453.027V153.88H461.207V155.88ZM461.207 152.6H453.027V150.72H451.407V157.24H462.827V150.72H461.207V152.6ZM465.467 144.12H462.847V139.54H461.207V149.94H462.847V145.48H465.467V144.12ZM468.246 159.94C470.106 156.94 471.206 153.72 471.206 149.78C471.206 145.86 470.106 142.62 468.246 139.64L467.126 140.16C468.846 143.02 469.686 146.38 469.686 149.78C469.686 153.18 468.846 156.56 467.126 159.4L468.246 159.94Z" fill="white"/>
<circle r="7" transform="matrix(1 0 0 -1 8 114)" fill="#1C1D1F" stroke="#2F4D9A" stroke-width="2"/>
<path d="M39.688 222H47.624V220.016H45.064C44.504 220.016 43.72 220.08 43.128 220.144C45.288 218.032 47.064 215.728 47.064 213.584C47.064 211.376 45.576 209.936 43.336 209.936C41.72 209.936 40.664 210.56 39.576 211.728L40.856 213.008C41.464 212.352 42.168 211.792 43.032 211.792C44.168 211.792 44.808 212.512 44.808 213.712C44.808 215.536 42.904 217.76 39.688 220.64V222ZM53.1419 222.224C55.5579 222.224 57.1419 220.112 57.1419 216.032C57.1419 211.952 55.5579 209.936 53.1419 209.936C50.7259 209.936 49.1259 211.936 49.1259 216.032C49.1259 220.112 50.7259 222.224 53.1419 222.224ZM53.1419 220.384C52.1179 220.384 51.3499 219.36 51.3499 216.032C51.3499 212.72 52.1179 211.76 53.1419 211.76C54.1659 211.76 54.9179 212.72 54.9179 216.032C54.9179 219.36 54.1659 220.384 53.1419 220.384ZM58.5318 222H66.4678V220.016H63.9078C63.3478 220.016 62.5638 220.08 61.9718 220.144C64.1318 218.032 65.9078 215.728 65.9078 213.584C65.9078 211.376 64.4198 209.936 62.1798 209.936C60.5638 209.936 59.5078 210.56 58.4198 211.728L59.6998 213.008C60.3078 212.352 61.0118 211.792 61.8758 211.792C63.0118 211.792 63.6518 212.512 63.6518 213.712C63.6518 215.536 61.7478 217.76 58.5318 220.64V222ZM68.5776 222H75.6976V220.096H73.4736V210.144H71.7296C70.9776 210.624 70.1616 210.928 68.9776 211.152V212.608H71.1216V220.096H68.5776V222ZM79.2795 222.224C80.1275 222.224 80.7515 221.552 80.7515 220.688C80.7515 219.808 80.1275 219.152 79.2795 219.152C78.4475 219.152 77.8235 219.808 77.8235 220.688C77.8235 221.552 78.4475 222.224 79.2795 222.224ZM86.6106 222.224C89.0266 222.224 90.6106 220.112 90.6106 216.032C90.6106 211.952 89.0266 209.936 86.6106 209.936C84.1946 209.936 82.5946 211.936 82.5946 216.032C82.5946 220.112 84.1946 222.224 86.6106 222.224ZM86.6106 220.384C85.5866 220.384 84.8186 219.36 84.8186 216.032C84.8186 212.72 85.5866 211.76 86.6106 211.76C87.6346 211.76 88.3866 212.72 88.3866 216.032C88.3866 219.36 87.6346 220.384 86.6106 220.384ZM96.0165 222.224C98.4165 222.224 100.001 220.848 100.001 219.056C100.001 217.44 99.1045 216.48 98.0165 215.888V215.808C98.8005 215.248 99.5365 214.272 99.5365 213.104C99.5365 211.216 98.1925 209.952 96.0965 209.952C94.0485 209.952 92.5285 211.168 92.5285 213.072C92.5285 214.336 93.1845 215.232 94.0965 215.888V215.968C92.9925 216.544 92.0645 217.536 92.0645 219.056C92.0645 220.912 93.7605 222.224 96.0165 222.224ZM96.7685 215.232C95.5205 214.736 94.6085 214.192 94.6085 213.072C94.6085 212.128 95.2485 211.6 96.0485 211.6C97.0405 211.6 97.6165 212.288 97.6165 213.248C97.6165 213.952 97.3445 214.624 96.7685 215.232ZM96.0805 220.56C94.9765 220.56 94.0965 219.872 94.0965 218.8C94.0965 217.92 94.5445 217.12 95.1845 216.608C96.7205 217.232 97.8085 217.744 97.8085 218.976C97.8085 220 97.0885 220.56 96.0805 220.56Z" fill="#3C6AE0"/>
<path d="M40 258H50.1V256.42H42.28L50.02 244.42V243.34H40.7V244.9H47.74L40 256.9V258ZM55.0392 258.26C56.3792 258.26 57.5992 257.56 58.6392 256.7H58.6992L58.8592 258H60.3592V251.32C60.3592 248.64 59.2392 246.86 56.5992 246.86C54.8592 246.86 53.3192 247.64 52.3192 248.28L53.0392 249.54C53.8992 248.96 55.0392 248.38 56.2992 248.38C58.0792 248.38 58.5392 249.72 58.5392 251.12C53.9192 251.64 51.8592 252.82 51.8592 255.18C51.8592 257.14 53.2192 258.26 55.0392 258.26ZM55.5592 256.8C54.4792 256.8 53.6392 256.3 53.6392 255.06C53.6392 253.66 54.8792 252.76 58.5392 252.32V255.36C57.4792 256.3 56.6192 256.8 55.5592 256.8ZM63.8283 262.58H65.6483V258.9L65.6083 257C66.5883 257.8 67.6283 258.26 68.6083 258.26C71.1083 258.26 73.3283 256.12 73.3283 252.4C73.3283 249.06 71.8083 246.86 69.0083 246.86C67.7483 246.86 66.5283 247.58 65.5483 248.38H65.4883L65.3283 247.14H63.8283V262.58ZM68.3083 256.74C67.5883 256.74 66.6283 256.44 65.6483 255.6V249.9C66.7083 248.92 67.6483 248.4 68.5683 248.4C70.6283 248.4 71.4283 250.02 71.4283 252.42C71.4283 255.12 70.1083 256.74 68.3083 256.74ZM76.2306 262.58H78.0506V258.9L78.0106 257C78.9906 257.8 80.0306 258.26 81.0106 258.26C83.5106 258.26 85.7306 256.12 85.7306 252.4C85.7306 249.06 84.2106 246.86 81.4106 246.86C80.1506 246.86 78.9306 247.58 77.9506 248.38H77.8906L77.7306 247.14H76.2306V262.58ZM80.7106 256.74C79.9906 256.74 79.0306 256.44 78.0506 255.6V249.9C79.1106 248.92 80.0506 248.4 80.9706 248.4C83.0306 248.4 83.8306 250.02 83.8306 252.42C83.8306 255.12 82.5106 256.74 80.7106 256.74ZM93.013 258.26C94.493 258.26 95.653 257.76 96.613 257.14L95.953 255.94C95.153 256.48 94.293 256.8 93.233 256.8C91.173 256.8 89.753 255.32 89.633 253H96.953C96.993 252.74 97.033 252.36 97.033 251.96C97.033 248.86 95.473 246.86 92.713 246.86C90.193 246.86 87.813 249.06 87.813 252.58C87.813 256.16 90.133 258.26 93.013 258.26ZM89.613 251.7C89.833 249.56 91.193 248.32 92.733 248.32C94.433 248.32 95.433 249.5 95.433 251.7H89.613ZM99.7072 258H101.527V251.02C102.247 249.16 103.367 248.52 104.267 248.52C104.707 248.52 104.967 248.56 105.327 248.7L105.667 247.1C105.327 246.92 104.987 246.86 104.507 246.86C103.287 246.86 102.187 247.74 101.427 249.12H101.367L101.207 247.14H99.7072V258ZM110.401 261.94L111.541 261.4C109.801 258.56 108.981 255.18 108.981 251.78C108.981 248.38 109.801 245.02 111.541 242.16L110.401 241.64C108.561 244.62 107.461 247.86 107.461 251.78C107.461 255.72 108.561 258.94 110.401 261.94ZM123.759 246.64H119.299V243.28H123.759V246.64ZM117.659 246.64H114.999V247.9H128.039V246.64H125.399V243.28H128.099V242.02H114.939V243.28H117.659V246.64ZM129.639 250.72V249.4H113.419V250.72H120.719V252.42H115.379V253.64H125.959V255.18H115.439V259.28H128.119V258.04H117.039V256.36H127.579V252.42H122.359V250.72H129.639ZM140.183 253.2V254.52H150.523V259.5H152.163V253.2H140.183ZM150.523 241.56V252.22H152.163V241.56H150.523ZM142.543 242.62C139.823 242.62 137.863 244.34 137.863 246.86C137.863 249.38 139.823 251.1 142.543 251.1C145.243 251.1 147.223 249.38 147.223 246.86C147.223 244.34 145.243 242.62 142.543 242.62ZM142.543 244C144.323 244 145.623 245.18 145.623 246.86C145.623 248.54 144.323 249.72 142.543 249.72C140.743 249.72 139.463 248.54 139.463 246.86C139.463 245.18 140.743 244 142.543 244ZM171.301 250.56C168.161 249.96 164.761 247.24 164.761 244.18V242.8H163.041V244.18C163.041 247.24 159.661 249.94 156.521 250.56L157.261 251.92C159.961 251.28 162.761 249.36 163.901 246.74C165.041 249.38 167.841 251.3 170.561 251.92L171.301 250.56ZM155.841 255.72V257.08H172.101V255.72H155.841ZM184.56 246.78H180.1V243.36H184.56V246.78ZM178.46 246.78H175.8V248.04H188.84V246.78H186.2V243.36H188.9V242.1H175.74V243.36H178.46V246.78ZM177.84 256.36H188.38V252.42H176.18V253.64H186.76V255.18H176.24V259.28H188.92V258.04H177.84V256.36ZM174.22 249.54V250.84H190.46V249.54H174.22ZM201.578 255.92V252.54H207.318V251.22H196.278V248.32H206.898V242.86H194.618V244.2H205.298V247H194.658V252.54H199.918V255.92H192.618V257.26H208.918V255.92H201.578ZM213.317 249.48H219.677V243.2H211.657V244.54H218.077V248.16H211.697V255.18H213.077C216.317 255.18 218.597 255.08 221.297 254.6L221.137 253.24C218.557 253.7 216.377 253.82 213.317 253.82V249.48ZM224.157 241.52V248.44H220.737V249.78H224.157V259.5H225.797V241.52H224.157ZM230.355 261.94C232.215 258.94 233.315 255.72 233.315 251.78C233.315 247.86 232.215 244.62 230.355 241.64L229.235 242.16C230.955 245.02 231.795 248.38 231.795 251.78C231.795 255.18 230.955 258.56 229.235 261.4L230.355 261.94Z" fill="white"/>
<circle r="7" transform="matrix(1 0 0 -1 8 216)" fill="#1C1D1F" stroke="#2F4D9A" stroke-width="2"/>
<path d="M9 326C9 325.448 8.55228 325 8 325C7.44772 325 7 325.448 7 326H9ZM7 356.5C7 357.052 7.44772 357.5 8 357.5C8.55228 357.5 9 357.052 9 356.5H7ZM7 330.692C7 331.245 7.44772 331.692 8 331.692C8.55228 331.692 9 331.245 9 330.692H7ZM9 336.558C9 336.005 8.55228 335.558 8 335.558C7.44772 335.558 7 336.005 7 336.558H9ZM7 345.942C7 346.495 7.44772 346.942 8 346.942C8.55228 346.942 9 346.495 9 345.942H7ZM9 351.808C9 351.255 8.55228 350.808 8 350.808C7.44772 350.808 7 351.255 7 351.808H9ZM7 326V330.692H9V326H7ZM7 336.558V345.942H9V336.558H7ZM7 351.808V356.5H9V351.808H7Z" fill="#2F4D9A"/>
<path d="M8 361V363" stroke="#2F4D9A" stroke-width="2" stroke-miterlimit="2.9238" stroke-linecap="round" stroke-linejoin="round"/>
</svg>
