<svg width="472" height="367" viewBox="0 0 472 367" fill="none" xmlns="http://www.w3.org/2000/svg">
<path d="M8 7L8 319" stroke="#2F4D9A" stroke-width="2"/>
<path d="M39.688 18H47.624V16.016H45.064C44.504 16.016 43.72 16.08 43.128 16.144C45.288 14.032 47.064 11.728 47.064 9.584C47.064 7.376 45.576 5.936 43.336 5.936C41.72 5.936 40.664 6.56 39.576 7.728L40.856 9.008C41.464 8.352 42.168 7.792 43.032 7.792C44.168 7.792 44.808 8.512 44.808 9.712C44.808 11.536 42.904 13.76 39.688 16.64V18ZM53.1419 18.224C55.5579 18.224 57.1419 16.112 57.1419 12.032C57.1419 7.952 55.5579 5.936 53.1419 5.936C50.7259 5.936 49.1259 7.936 49.1259 12.032C49.1259 16.112 50.7259 18.224 53.1419 18.224ZM53.1419 16.384C52.1179 16.384 51.3499 15.36 51.3499 12.032C51.3499 8.72 52.1179 7.76 53.1419 7.76C54.1659 7.76 54.9179 8.72 54.9179 12.032C54.9179 15.36 54.1659 16.384 53.1419 16.384ZM58.5318 18H66.4678V16.016H63.9078C63.3478 16.016 62.5638 16.08 61.9718 16.144C64.1318 14.032 65.9078 11.728 65.9078 9.584C65.9078 7.376 64.4198 5.936 62.1798 5.936C60.5638 5.936 59.5078 6.56 58.4198 7.728L59.6998 9.008C60.3078 8.352 61.0118 7.792 61.8758 7.792C63.0118 7.792 63.6518 8.512 63.6518 9.712C63.6518 11.536 61.7478 13.76 58.5318 16.64V18ZM68.5776 18H75.6976V16.096H73.4736V6.144H71.7296C70.9776 6.624 70.1616 6.928 68.9776 7.152V8.608H71.1216V16.096H68.5776V18ZM79.2795 18.224C80.1275 18.224 80.7515 17.552 80.7515 16.688C80.7515 15.808 80.1275 15.152 79.2795 15.152C78.4475 15.152 77.8235 15.808 77.8235 16.688C77.8235 17.552 78.4475 18.224 79.2795 18.224ZM86.6106 18.224C89.0266 18.224 90.6106 16.112 90.6106 12.032C90.6106 7.952 89.0266 5.936 86.6106 5.936C84.1946 5.936 82.5946 7.936 82.5946 12.032C82.5946 16.112 84.1946 18.224 86.6106 18.224ZM86.6106 16.384C85.5866 16.384 84.8186 15.36 84.8186 12.032C84.8186 8.72 85.5866 7.76 86.6106 7.76C87.6346 7.76 88.3866 8.72 88.3866 12.032C88.3866 15.36 87.6346 16.384 86.6106 16.384ZM95.7285 18.224C97.9205 18.224 99.8725 16.704 99.8725 14.064C99.8725 11.488 98.2085 10.304 96.2245 10.304C95.6805 10.304 95.2805 10.416 94.8005 10.64L95.0245 8.128H99.3285V6.144H92.9925L92.6725 11.904L93.7445 12.608C94.4325 12.16 94.8165 11.984 95.5205 11.984C96.7205 11.984 97.5205 12.752 97.5205 14.128C97.5205 15.52 96.6565 16.304 95.4245 16.304C94.3205 16.304 93.4885 15.76 92.8165 15.104L91.7285 16.608C92.6085 17.488 93.8565 18.224 95.7285 18.224Z" fill="#3C6AE0"/>
<path d="M46.54 54.26C48.44 54.26 49.88 53.5 51.04 52.16L50.02 51C49.08 52.02 48.02 52.64 46.62 52.64C43.82 52.64 42.06 50.32 42.06 46.62C42.06 42.96 43.9 40.68 46.68 40.68C47.94 40.68 48.92 41.26 49.68 42.08L50.68 40.88C49.84 39.94 48.44 39.06 46.66 39.06C42.94 39.06 40.16 41.94 40.16 46.68C40.16 51.44 42.9 54.26 46.54 54.26ZM53.5939 54H55.4139V47.02C56.1339 45.16 57.2539 44.52 58.1539 44.52C58.5939 44.52 58.8539 44.56 59.2139 44.7L59.5539 43.1C59.2139 42.92 58.8739 42.86 58.3939 42.86C57.1739 42.86 56.0739 43.74 55.3139 45.12H55.2539L55.0939 43.14H53.5939V54ZM62.1138 58.68C64.2738 58.68 65.4138 57.04 66.1538 54.9L70.2538 43.14H68.4738L66.5338 49.18C66.2338 50.14 65.9138 51.24 65.6138 52.22H65.5138C65.1738 51.24 64.7938 50.12 64.4738 49.18L62.2538 43.14H60.3538L64.7138 54.02L64.4738 54.84C64.0338 56.18 63.2538 57.18 62.0138 57.18C61.7338 57.18 61.4137 57.08 61.1938 57L60.8338 58.46C61.1738 58.6 61.5938 58.68 62.1138 58.68ZM72.3634 58.58H74.1834V54.9L74.1434 53C75.1234 53.8 76.1634 54.26 77.1434 54.26C79.6434 54.26 81.8634 52.12 81.8634 48.4C81.8634 45.06 80.3434 42.86 77.5434 42.86C76.2834 42.86 75.0634 43.58 74.0834 44.38H74.0234L73.8634 43.14H72.3634V58.58ZM76.8434 52.74C76.1234 52.74 75.1634 52.44 74.1834 51.6V45.9C75.2434 44.92 76.1834 44.4 77.1034 44.4C79.1634 44.4 79.9634 46.02 79.9634 48.42C79.9634 51.12 78.6434 52.74 76.8434 52.74ZM87.8147 54.26C88.4747 54.26 89.1947 54.06 89.8147 53.86L89.4547 52.5C89.0947 52.64 88.5947 52.78 88.2147 52.78C86.9547 52.78 86.5347 52.02 86.5347 50.68V44.62H89.4747V43.14H86.5347V40.08H85.0147L84.7947 43.14L83.0947 43.24V44.62H84.7147V50.64C84.7147 52.8 85.4947 54.26 87.8147 54.26ZM95.8608 54.26C98.5208 54.26 100.901 52.18 100.901 48.58C100.901 44.96 98.5208 42.86 95.8608 42.86C93.2008 42.86 90.8208 44.96 90.8208 48.58C90.8208 52.18 93.2008 54.26 95.8608 54.26ZM95.8608 52.74C93.9808 52.74 92.7208 51.08 92.7208 48.58C92.7208 46.08 93.9808 44.38 95.8608 44.38C97.7408 44.38 99.0208 46.08 99.0208 48.58C99.0208 51.08 97.7408 52.74 95.8608 52.74ZM110.942 45.8C111.462 44.14 111.942 42.56 112.402 40.84H112.482C112.962 42.54 113.422 44.14 113.962 45.8L114.662 48.04H110.222L110.942 45.8ZM106.462 54H108.342L109.762 49.52H115.122L116.522 54H118.482L113.502 39.32H111.442L106.462 54ZM123.758 54.26C126.318 54.26 127.718 52.8 127.718 51.04C127.718 48.98 125.978 48.34 124.398 47.74C123.178 47.28 122.058 46.9 122.058 45.86C122.058 45.02 122.698 44.3 124.078 44.3C125.038 44.3 125.798 44.7 126.538 45.26L127.418 44.08C126.578 43.42 125.398 42.86 124.058 42.86C121.698 42.86 120.298 44.22 120.298 45.94C120.298 47.78 121.958 48.52 123.478 49.08C124.678 49.54 125.958 50.02 125.958 51.14C125.958 52.08 125.258 52.84 123.818 52.84C122.518 52.84 121.538 52.32 120.598 51.56L119.698 52.76C120.738 53.62 122.218 54.26 123.758 54.26ZM133.114 54.26C135.674 54.26 137.074 52.8 137.074 51.04C137.074 48.98 135.334 48.34 133.754 47.74C132.534 47.28 131.414 46.9 131.414 45.86C131.414 45.02 132.054 44.3 133.434 44.3C134.394 44.3 135.154 44.7 135.894 45.26L136.774 44.08C135.934 43.42 134.754 42.86 133.414 42.86C131.054 42.86 129.654 44.22 129.654 45.94C129.654 47.78 131.314 48.52 132.834 49.08C134.034 49.54 135.314 50.02 135.314 51.14C135.314 52.08 134.614 52.84 133.174 52.84C131.874 52.84 130.894 52.32 129.954 51.56L129.054 52.76C130.094 53.62 131.574 54.26 133.114 54.26ZM144.009 54.26C145.489 54.26 146.649 53.76 147.609 53.14L146.949 51.94C146.149 52.48 145.289 52.8 144.229 52.8C142.169 52.8 140.749 51.32 140.629 49H147.949C147.989 48.74 148.029 48.36 148.029 47.96C148.029 44.86 146.469 42.86 143.709 42.86C141.189 42.86 138.809 45.06 138.809 48.58C138.809 52.16 141.129 54.26 144.009 54.26ZM140.609 47.68C140.829 45.56 142.189 44.32 143.729 44.32C145.429 44.32 146.429 45.5 146.429 47.68H140.609ZM153.908 54.26C154.568 54.26 155.288 54.06 155.908 53.86L155.548 52.5C155.188 52.64 154.688 52.78 154.308 52.78C153.048 52.78 152.628 52.02 152.628 50.68V44.62H155.568V43.14H152.628V40.08H151.108L150.888 43.14L149.188 43.24V44.62H150.808V50.64C150.808 52.8 151.588 54.26 153.908 54.26ZM162.66 54H164.34V45.88C164.34 44.62 164.2 42.84 164.12 41.56H164.2L165.36 44.9L168.14 52.52H169.38L172.16 44.9L173.32 41.56H173.4C173.3 42.84 173.16 44.62 173.16 45.88V54H174.9V39.32H172.66L169.86 47.18C169.52 48.2 169.2 49.22 168.86 50.24H168.76C168.4 49.22 168.06 48.2 167.72 47.18L164.9 39.32H162.66V54ZM181.231 54.26C182.571 54.26 183.791 53.56 184.831 52.7H184.891L185.051 54H186.551V47.32C186.551 44.64 185.431 42.86 182.791 42.86C181.051 42.86 179.511 43.64 178.511 44.28L179.231 45.54C180.091 44.96 181.231 44.38 182.491 44.38C184.271 44.38 184.731 45.72 184.731 47.12C180.111 47.64 178.051 48.82 178.051 51.18C178.051 53.14 179.411 54.26 181.231 54.26ZM181.751 52.8C180.671 52.8 179.831 52.3 179.831 51.06C179.831 49.66 181.071 48.76 184.731 48.32V51.36C183.671 52.3 182.811 52.8 181.751 52.8ZM190.02 54H191.84V46.12C192.94 45.02 193.7 44.46 194.82 44.46C196.26 44.46 196.88 45.32 196.88 47.36V54H198.7V47.12C198.7 44.34 197.66 42.86 195.38 42.86C193.9 42.86 192.78 43.68 191.74 44.7H191.68L191.52 43.14H190.02V54ZM204.746 54.26C206.086 54.26 207.306 53.56 208.346 52.7H208.406L208.566 54H210.066V47.32C210.066 44.64 208.946 42.86 206.306 42.86C204.566 42.86 203.026 43.64 202.026 44.28L202.746 45.54C203.606 44.96 204.746 44.38 206.006 44.38C207.786 44.38 208.246 45.72 208.246 47.12C203.626 47.64 201.566 48.82 201.566 51.18C201.566 53.14 202.926 54.26 204.746 54.26ZM205.266 52.8C204.186 52.8 203.346 52.3 203.346 51.06C203.346 49.66 204.586 48.76 208.246 48.32V51.36C207.186 52.3 206.326 52.8 205.266 52.8ZM217.195 59C220.555 59 222.695 57.26 222.695 55.24C222.695 53.46 221.415 52.66 218.895 52.66H216.775C215.315 52.66 214.875 52.18 214.875 51.48C214.875 50.88 215.175 50.52 215.575 50.18C216.055 50.42 216.655 50.56 217.195 50.56C219.395 50.56 221.155 49.1 221.155 46.78C221.155 45.84 220.795 45.04 220.275 44.54H222.495V43.14H218.715C218.335 43 217.795 42.86 217.195 42.86C214.995 42.86 213.115 44.36 213.115 46.74C213.115 48.04 213.815 49.08 214.535 49.66V49.74C213.975 50.14 213.315 50.86 213.315 51.76C213.315 52.62 213.735 53.2 214.315 53.54V53.62C213.295 54.28 212.715 55.16 212.715 56.08C212.715 57.96 214.535 59 217.195 59ZM217.195 49.32C215.935 49.32 214.875 48.32 214.875 46.74C214.875 45.14 215.915 44.2 217.195 44.2C218.475 44.2 219.515 45.16 219.515 46.74C219.515 48.32 218.435 49.32 217.195 49.32ZM217.455 57.76C215.495 57.76 214.315 57 214.315 55.84C214.315 55.2 214.635 54.56 215.415 54C215.895 54.12 216.415 54.18 216.815 54.18H218.695C220.135 54.18 220.915 54.52 220.915 55.52C220.915 56.66 219.535 57.76 217.455 57.76ZM228.892 54.26C230.372 54.26 231.532 53.76 232.492 53.14L231.832 51.94C231.032 52.48 230.172 52.8 229.112 52.8C227.052 52.8 225.632 51.32 225.512 49H232.832C232.872 48.74 232.912 48.36 232.912 47.96C232.912 44.86 231.352 42.86 228.592 42.86C226.072 42.86 223.692 45.06 223.692 48.58C223.692 52.16 226.012 54.26 228.892 54.26ZM225.492 47.68C225.712 45.56 227.072 44.32 228.612 44.32C230.312 44.32 231.312 45.5 231.312 47.68H225.492ZM235.586 54H237.406V46.12C238.406 45 239.326 44.46 240.146 44.46C241.526 44.46 242.166 45.32 242.166 47.36V54H243.986V46.12C245.006 45 245.886 44.46 246.726 44.46C248.106 44.46 248.746 45.32 248.746 47.36V54H250.566V47.12C250.566 44.34 249.506 42.86 247.266 42.86C245.946 42.86 244.806 43.72 243.686 44.94C243.246 43.66 242.346 42.86 240.686 42.86C239.386 42.86 238.246 43.68 237.306 44.72H237.246L237.086 43.14H235.586V54ZM258.482 54.26C259.962 54.26 261.122 53.76 262.082 53.14L261.422 51.94C260.622 52.48 259.762 52.8 258.702 52.8C256.642 52.8 255.222 51.32 255.102 49H262.422C262.462 48.74 262.502 48.36 262.502 47.96C262.502 44.86 260.942 42.86 258.182 42.86C255.662 42.86 253.282 45.06 253.282 48.58C253.282 52.16 255.602 54.26 258.482 54.26ZM255.082 47.68C255.302 45.56 256.662 44.32 258.202 44.32C259.902 44.32 260.902 45.5 260.902 47.68H255.082ZM265.176 54H266.996V46.12C268.096 45.02 268.856 44.46 269.976 44.46C271.416 44.46 272.036 45.32 272.036 47.36V54H273.856V47.12C273.856 44.34 272.816 42.86 270.536 42.86C269.056 42.86 267.936 43.68 266.896 44.7H266.836L266.676 43.14H265.176V54ZM280.823 54.26C281.483 54.26 282.203 54.06 282.823 53.86L282.463 52.5C282.103 52.64 281.603 52.78 281.223 52.78C279.963 52.78 279.543 52.02 279.543 50.68V44.62H282.483V43.14H279.543V40.08H278.023L277.803 43.14L276.103 43.24V44.62H277.723V50.64C277.723 52.8 278.502 54.26 280.823 54.26ZM284.738 57.8C286.538 57.04 287.658 55.54 287.658 53.62C287.658 52.28 287.078 51.46 286.118 51.46C285.378 51.46 284.738 51.96 284.738 52.74C284.738 53.58 285.378 54.02 286.078 54.02C286.158 54.02 286.218 54.02 286.298 54C286.298 55.18 285.558 56.16 284.298 56.72L284.738 57.8ZM297.817 45.8C298.337 44.14 298.817 42.56 299.277 40.84H299.357C299.837 42.54 300.297 44.14 300.837 45.8L301.537 48.04H297.097L297.817 45.8ZM293.337 54H295.217L296.637 49.52H301.997L303.397 54H305.357L300.377 39.32H298.317L293.337 54ZM310.289 54.26C311.789 54.26 312.869 53.48 313.889 52.3H313.949L314.089 54H315.609V43.14H313.789V50.84C312.749 52.14 311.969 52.68 310.849 52.68C309.409 52.68 308.809 51.82 308.809 49.8V43.14H306.989V50.02C306.989 52.78 308.009 54.26 310.289 54.26ZM322.698 54.26C323.358 54.26 324.078 54.06 324.698 53.86L324.338 52.5C323.978 52.64 323.478 52.78 323.098 52.78C321.838 52.78 321.418 52.02 321.418 50.68V44.62H324.358V43.14H321.418V40.08H319.898L319.678 43.14L317.978 43.24V44.62H319.598V50.64C319.598 52.8 320.377 54.26 322.698 54.26ZM330.744 54.26C333.404 54.26 335.784 52.18 335.784 48.58C335.784 44.96 333.404 42.86 330.744 42.86C328.084 42.86 325.704 44.96 325.704 48.58C325.704 52.18 328.084 54.26 330.744 54.26ZM330.744 52.74C328.864 52.74 327.604 51.08 327.604 48.58C327.604 46.08 328.864 44.38 330.744 44.38C332.624 44.38 333.904 46.08 333.904 48.58C333.904 51.08 332.624 52.74 330.744 52.74ZM338.953 54H340.773V44.62H343.073V43.14H340.773V41.42C340.773 40.02 341.273 39.28 342.313 39.28C342.692 39.28 343.133 39.38 343.533 39.56L343.933 38.18C343.433 37.96 342.773 37.82 342.113 37.82C339.953 37.82 338.953 39.2 338.953 41.4V43.14L337.472 43.24V44.62H338.953V54ZM347.207 54.26C348.547 54.26 349.767 53.56 350.807 52.7H350.867L351.027 54H352.527V47.32C352.527 44.64 351.407 42.86 348.767 42.86C347.027 42.86 345.487 43.64 344.487 44.28L345.207 45.54C346.067 44.96 347.207 44.38 348.467 44.38C350.247 44.38 350.707 45.72 350.707 47.12C346.087 47.64 344.027 48.82 344.027 51.18C344.027 53.14 345.387 54.26 347.207 54.26ZM347.727 52.8C346.647 52.8 345.807 52.3 345.807 51.06C345.807 49.66 347.047 48.76 350.707 48.32V51.36C349.647 52.3 348.787 52.8 347.727 52.8ZM355.996 54H357.816V47.02C358.536 45.16 359.656 44.52 360.556 44.52C360.996 44.52 361.256 44.56 361.616 44.7L361.956 43.1C361.616 42.92 361.276 42.86 360.796 42.86C359.576 42.86 358.476 43.74 357.716 45.12H357.656L357.496 43.14H355.996V54ZM363.75 54H365.57V46.12C366.57 45 367.49 44.46 368.31 44.46C369.69 44.46 370.33 45.32 370.33 47.36V54H372.15V46.12C373.17 45 374.05 44.46 374.89 44.46C376.27 44.46 376.91 45.32 376.91 47.36V54H378.73V47.12C378.73 44.34 377.67 42.86 375.43 42.86C374.11 42.86 372.97 43.72 371.85 44.94C371.41 43.66 370.51 42.86 368.85 42.86C367.55 42.86 366.41 43.68 365.47 44.72H365.41L365.25 43.14H363.75V54Z" fill="white"/>
<circle r="7" transform="matrix(1 0 0 -1 8 12)" fill="#1C1D1F" stroke="#2F4D9A" stroke-width="2"/>
<path d="M39.688 324H47.624V322.016H45.064C44.504 322.016 43.72 322.08 43.128 322.144C45.288 320.032 47.064 317.728 47.064 315.584C47.064 313.376 45.576 311.936 43.336 311.936C41.72 311.936 40.664 312.56 39.576 313.728L40.856 315.008C41.464 314.352 42.168 313.792 43.032 313.792C44.168 313.792 44.808 314.512 44.808 315.712C44.808 317.536 42.904 319.76 39.688 322.64V324ZM53.1419 324.224C55.5579 324.224 57.1419 322.112 57.1419 318.032C57.1419 313.952 55.5579 311.936 53.1419 311.936C50.7259 311.936 49.1259 313.936 49.1259 318.032C49.1259 322.112 50.7259 324.224 53.1419 324.224ZM53.1419 322.384C52.1179 322.384 51.3499 321.36 51.3499 318.032C51.3499 314.72 52.1179 313.76 53.1419 313.76C54.1659 313.76 54.9179 314.72 54.9179 318.032C54.9179 321.36 54.1659 322.384 53.1419 322.384ZM58.5318 324H66.4678V322.016H63.9078C63.3478 322.016 62.5638 322.08 61.9718 322.144C64.1318 320.032 65.9078 317.728 65.9078 315.584C65.9078 313.376 64.4198 311.936 62.1798 311.936C60.5638 311.936 59.5078 312.56 58.4198 313.728L59.6998 315.008C60.3078 314.352 61.0118 313.792 61.8758 313.792C63.0118 313.792 63.6518 314.512 63.6518 315.712C63.6518 317.536 61.7478 319.76 58.5318 322.64V324ZM68.5776 324H75.6976V322.096H73.4736V312.144H71.7296C70.9776 312.624 70.1616 312.928 68.9776 313.152V314.608H71.1216V322.096H68.5776V324ZM79.2795 324.224C80.1275 324.224 80.7515 323.552 80.7515 322.688C80.7515 321.808 80.1275 321.152 79.2795 321.152C78.4475 321.152 77.8235 321.808 77.8235 322.688C77.8235 323.552 78.4475 324.224 79.2795 324.224ZM86.6106 324.224C89.0266 324.224 90.6106 322.112 90.6106 318.032C90.6106 313.952 89.0266 311.936 86.6106 311.936C84.1946 311.936 82.5946 313.936 82.5946 318.032C82.5946 322.112 84.1946 324.224 86.6106 324.224ZM86.6106 322.384C85.5866 322.384 84.8186 321.36 84.8186 318.032C84.8186 314.72 85.5866 313.76 86.6106 313.76C87.6346 313.76 88.3866 314.72 88.3866 318.032C88.3866 321.36 87.6346 322.384 86.6106 322.384ZM94.1125 315.888C94.1125 314.432 94.8325 313.712 95.7125 313.712C96.7205 313.712 97.5365 314.512 97.7445 316.656C97.2005 317.568 96.4485 317.936 95.7925 317.936C94.7685 317.936 94.1125 317.28 94.1125 315.888ZM95.3925 324.224C97.7445 324.224 99.9365 322.288 99.9365 317.808C99.9365 313.696 97.9205 311.936 95.6805 311.936C93.6485 311.936 91.9525 313.456 91.9525 315.888C91.9525 318.4 93.3765 319.616 95.3445 319.616C96.1445 319.616 97.1525 319.136 97.7765 318.336C97.6645 321.296 96.5765 322.304 95.2485 322.304C94.5445 322.304 93.8245 321.936 93.3925 321.456L92.1445 322.88C92.8485 323.6 93.9205 324.224 95.3925 324.224Z" fill="#3C6AE0"/>
<path d="M46.54 360.26C48.44 360.26 49.88 359.5 51.04 358.16L50.02 357C49.08 358.02 48.02 358.64 46.62 358.64C43.82 358.64 42.06 356.32 42.06 352.62C42.06 348.96 43.9 346.68 46.68 346.68C47.94 346.68 48.92 347.26 49.68 348.08L50.68 346.88C49.84 345.94 48.44 345.06 46.66 345.06C42.94 345.06 40.16 347.94 40.16 352.68C40.16 357.44 42.9 360.26 46.54 360.26ZM53.7539 360H62.0139V358.42H55.6139V345.34H53.7539V360ZM66.4723 354.04L67.1923 351.8C67.7123 350.14 68.1923 348.56 68.6523 346.84H68.7323C69.2123 348.54 69.6723 350.14 70.2123 351.8L70.9123 354.04H66.4723ZM72.7723 360H74.7323L69.7523 345.34H67.6923L62.7123 360H64.5923L66.0123 355.52H71.3723L72.7723 360ZM76.8008 360H78.4808V351.88C78.4808 350.62 78.3408 348.84 78.2608 347.56H78.3408L79.5008 350.9L82.2808 358.52H83.5208L86.3008 350.9L87.4608 347.56H87.5408C87.4408 348.84 87.3008 350.62 87.3008 351.88V360H89.0408V345.34H86.8008L84.0008 353.18C83.6608 354.2 83.3408 355.22 83.0008 356.24H82.9008C82.5408 355.22 82.2008 354.2 81.8608 353.18L79.0408 345.34H76.8008V360ZM92.5313 363.8C94.3313 363.04 95.4513 361.54 95.4513 359.62C95.4513 358.28 94.8713 357.46 93.9113 357.46C93.1713 357.46 92.5313 357.96 92.5313 358.74C92.5313 359.58 93.1713 360.02 93.8713 360.02C93.9513 360.02 94.0113 360.02 94.0913 360C94.0713 361.22 93.3313 362.18 92.0913 362.72L92.5313 363.8ZM106.13 360H107.99V346.9H112.43V345.34H101.69V346.9H106.13V360ZM117.619 360.26C120.279 360.26 122.659 358.18 122.659 354.58C122.659 350.96 120.279 348.86 117.619 348.86C114.959 348.86 112.579 350.96 112.579 354.58C112.579 358.18 114.959 360.26 117.619 360.26ZM117.619 358.74C115.739 358.74 114.479 357.08 114.479 354.58C114.479 352.08 115.739 350.38 117.619 350.38C119.499 350.38 120.779 352.08 120.779 354.58C120.779 357.08 119.499 358.74 117.619 358.74ZM125.528 360H127.328V357.14L129.368 354.76L132.548 360H134.528L130.408 353.5L134.048 349.14H132.028L127.368 354.88H127.328V344.08H125.528V360ZM140.552 360.26C142.032 360.26 143.192 359.76 144.152 359.14L143.492 357.94C142.692 358.48 141.832 358.8 140.772 358.8C138.712 358.8 137.292 357.32 137.172 355H144.492C144.532 354.74 144.572 354.36 144.572 353.96C144.572 350.86 143.012 348.86 140.252 348.86C137.732 348.86 135.352 351.06 135.352 354.58C135.352 358.16 137.672 360.26 140.552 360.26ZM137.152 353.7C137.372 351.56 138.732 350.32 140.272 350.32C141.972 350.32 142.972 351.5 142.972 353.7H137.152ZM147.246 360H149.066V352.12C150.166 351.02 150.926 350.46 152.046 350.46C153.486 350.46 154.106 351.32 154.106 353.36V360H155.926V353.12C155.926 350.34 154.886 348.86 152.606 348.86C151.126 348.86 150.006 349.68 148.966 350.7H148.906L148.746 349.14H147.246V360ZM157.853 363.58H159.193L165.173 344.14H163.853L157.853 363.58ZM167.465 360H175.725V358.42H169.325V345.34H167.465V360ZM178.305 360H180.165V354.18H182.585C185.785 354.18 187.985 352.74 187.985 349.64C187.985 346.44 185.785 345.34 182.485 345.34H178.305V360ZM180.165 352.68V346.84H182.265C184.845 346.84 186.145 347.52 186.145 349.64C186.145 351.74 184.925 352.68 182.345 352.68H180.165ZM199.494 360.26C202.554 360.26 204.474 358.42 204.474 356.1C204.474 353.92 203.154 352.92 201.454 352.18L199.354 351.28C198.214 350.8 196.934 350.26 196.934 348.84C196.934 347.52 198.014 346.68 199.674 346.68C201.034 346.68 202.114 347.22 203.014 348.06L203.994 346.88C202.954 345.8 201.414 345.06 199.674 345.06C197.014 345.06 195.054 346.7 195.054 348.96C195.054 351.1 196.674 352.14 198.034 352.72L200.154 353.64C201.534 354.26 202.594 354.74 202.594 356.24C202.594 357.68 201.434 358.64 199.514 358.64C197.994 358.64 196.514 357.92 195.454 356.82L194.354 358.08C195.634 359.42 197.414 360.26 199.494 360.26ZM210.061 360.26C210.721 360.26 211.441 360.06 212.061 359.86L211.701 358.5C211.341 358.64 210.841 358.78 210.461 358.78C209.201 358.78 208.781 358.02 208.781 356.68V350.62H211.721V349.14H208.781V346.1H207.261L207.041 349.14L205.341 349.24V350.62H206.961V356.64C206.961 358.82 207.741 360.26 210.061 360.26ZM216.192 360.26C217.532 360.26 218.752 359.56 219.792 358.7H219.852L220.012 360H221.512V353.32C221.512 350.64 220.392 348.86 217.752 348.86C216.012 348.86 214.472 349.64 213.472 350.28L214.192 351.54C215.052 350.96 216.192 350.38 217.452 350.38C219.232 350.38 219.692 351.72 219.692 353.12C215.072 353.64 213.012 354.82 213.012 357.18C213.012 359.14 214.372 360.26 216.192 360.26ZM216.712 358.8C215.632 358.8 214.792 358.3 214.792 357.06C214.792 355.66 216.032 354.76 219.692 354.32V357.36C218.632 358.3 217.772 358.8 216.712 358.8ZM224.981 360H226.781V357.14L228.821 354.76L232.001 360H233.981L229.861 353.5L233.501 349.14H231.481L226.821 354.88H226.781V344.08H224.981V360ZM236.016 360H237.836V349.14H236.016V360ZM236.936 346.9C237.656 346.9 238.196 346.4 238.196 345.72C238.196 344.98 237.656 344.54 236.936 344.54C236.216 344.54 235.676 344.98 235.676 345.72C235.676 346.4 236.216 346.9 236.936 346.9ZM241.524 360H243.344V352.12C244.444 351.02 245.204 350.46 246.324 350.46C247.764 350.46 248.384 351.32 248.384 353.36V360H250.204V353.12C250.204 350.34 249.164 348.86 246.884 348.86C245.404 348.86 244.284 349.68 243.244 350.7H243.184L243.024 349.14H241.524V360ZM257.41 365C260.77 365 262.89 363.26 262.89 361.24C262.89 359.46 261.63 358.66 259.11 358.66H256.99C255.53 358.66 255.09 358.18 255.09 357.48C255.09 356.88 255.39 356.52 255.79 356.18C256.27 356.42 256.87 356.56 257.41 356.56C259.61 356.56 261.37 355.1 261.37 352.78C261.37 351.84 261.01 351.04 260.49 350.54H262.71V349.14H258.93C258.55 349 258.01 348.86 257.41 348.86C255.21 348.86 253.33 350.36 253.33 352.74C253.33 354.04 254.03 355.08 254.75 355.66V355.74C254.19 356.14 253.53 356.86 253.53 357.76C253.53 358.62 253.95 359.2 254.53 359.54V359.62C253.51 360.28 252.91 361.16 252.91 362.08C252.91 363.96 254.75 365 257.41 365ZM257.41 355.32C256.15 355.32 255.09 354.32 255.09 352.74C255.09 351.14 256.13 350.2 257.41 350.2C258.69 350.2 259.71 351.16 259.71 352.74C259.71 354.32 258.65 355.32 257.41 355.32ZM257.67 363.76C255.69 363.76 254.51 363 254.51 361.84C254.51 361.2 254.85 360.56 255.63 360C256.11 360.12 256.63 360.18 257.03 360.18H258.91C260.35 360.18 261.13 360.52 261.13 361.52C261.13 362.66 259.75 363.76 257.67 363.76Z" fill="white"/>
<circle r="7" transform="matrix(1 0 0 -1 8 318)" fill="#1C1D1F" stroke="#2F4D9A" stroke-width="2"/>
<path d="M39.688 120H47.624V118.016H45.064C44.504 118.016 43.72 118.08 43.128 118.144C45.288 116.032 47.064 113.728 47.064 111.584C47.064 109.376 45.576 107.936 43.336 107.936C41.72 107.936 40.664 108.56 39.576 109.728L40.856 111.008C41.464 110.352 42.168 109.792 43.032 109.792C44.168 109.792 44.808 110.512 44.808 111.712C44.808 113.536 42.904 115.76 39.688 118.64V120ZM53.1419 120.224C55.5579 120.224 57.1419 118.112 57.1419 114.032C57.1419 109.952 55.5579 107.936 53.1419 107.936C50.7259 107.936 49.1259 109.936 49.1259 114.032C49.1259 118.112 50.7259 120.224 53.1419 120.224ZM53.1419 118.384C52.1179 118.384 51.3499 117.36 51.3499 114.032C51.3499 110.72 52.1179 109.76 53.1419 109.76C54.1659 109.76 54.9179 110.72 54.9179 114.032C54.9179 117.36 54.1659 118.384 53.1419 118.384ZM58.5318 120H66.4678V118.016H63.9078C63.3478 118.016 62.5638 118.08 61.9718 118.144C64.1318 116.032 65.9078 113.728 65.9078 111.584C65.9078 109.376 64.4198 107.936 62.1798 107.936C60.5638 107.936 59.5078 108.56 58.4198 109.728L59.6998 111.008C60.3078 110.352 61.0118 109.792 61.8758 109.792C63.0118 109.792 63.6518 110.512 63.6518 111.712C63.6518 113.536 61.7478 115.76 58.5318 118.64V120ZM68.5776 120H75.6976V118.096H73.4736V108.144H71.7296C70.9776 108.624 70.1616 108.928 68.9776 109.152V110.608H71.1216V118.096H68.5776V120ZM79.2795 120.224C80.1275 120.224 80.7515 119.552 80.7515 118.688C80.7515 117.808 80.1275 117.152 79.2795 117.152C78.4475 117.152 77.8235 117.808 77.8235 118.688C77.8235 119.552 78.4475 120.224 79.2795 120.224ZM86.6106 120.224C89.0266 120.224 90.6106 118.112 90.6106 114.032C90.6106 109.952 89.0266 107.936 86.6106 107.936C84.1946 107.936 82.5946 109.936 82.5946 114.032C82.5946 118.112 84.1946 120.224 86.6106 120.224ZM86.6106 118.384C85.5866 118.384 84.8186 117.36 84.8186 114.032C84.8186 110.72 85.5866 109.76 86.6106 109.76C87.6346 109.76 88.3866 110.72 88.3866 114.032C88.3866 117.36 87.6346 118.384 86.6106 118.384ZM94.2885 120H96.6725C96.8645 115.36 97.2325 112.944 99.9845 109.584V108.144H92.1125V110.128H97.4405C95.1845 113.264 94.4965 115.888 94.2885 120Z" fill="#3C6AE0"/>
<path d="M41 156H42.68V147.88C42.68 146.62 42.54 144.84 42.46 143.56H42.54L43.7 146.9L46.48 154.52H47.72L50.5 146.9L51.66 143.56H51.74C51.64 144.84 51.5 146.62 51.5 147.88V156H53.24V141.32H51L48.2 149.18C47.86 150.2 47.54 151.22 47.2 152.24H47.1C46.74 151.22 46.4 150.2 46.06 149.18L43.24 141.32H41V156ZM61.4505 156.26C62.9305 156.26 64.0905 155.76 65.0505 155.14L64.3905 153.94C63.5905 154.48 62.7305 154.8 61.6705 154.8C59.6105 154.8 58.1905 153.32 58.0705 151H65.3905C65.4305 150.74 65.4705 150.36 65.4705 149.96C65.4705 146.86 63.9105 144.86 61.1505 144.86C58.6305 144.86 56.2505 147.06 56.2505 150.58C56.2505 154.16 58.5705 156.26 61.4505 156.26ZM58.0505 149.68C58.2705 147.56 59.6305 146.32 61.1705 146.32C62.8705 146.32 63.8705 147.5 63.8705 149.68H58.0505ZM68.1447 156H69.9647V148.12C70.9647 147 71.8847 146.46 72.7047 146.46C74.0847 146.46 74.7247 147.32 74.7247 149.36V156H76.5447V148.12C77.5647 147 78.4447 146.46 79.2847 146.46C80.6647 146.46 81.3047 147.32 81.3047 149.36V156H83.1247V149.12C83.1247 146.34 82.0647 144.86 79.8247 144.86C78.5047 144.86 77.3647 145.72 76.2447 146.94C75.8047 145.66 74.9047 144.86 73.2447 144.86C71.9447 144.86 70.8047 145.68 69.8647 146.72H69.8047L69.6447 145.14H68.1447V156ZM91.4403 156.26C93.9403 156.26 96.1603 154.12 96.1603 150.38C96.1603 147.06 94.6403 144.86 91.8203 144.86C90.6203 144.86 89.4003 145.54 88.4203 146.4L88.4803 144.44V140.08H86.6603V156H88.1203L88.2803 154.88H88.3603C89.3003 155.74 90.4403 156.26 91.4403 156.26ZM91.1403 154.74C90.4203 154.74 89.4403 154.44 88.4803 153.6V147.9C89.5203 146.92 90.4803 146.4 91.4003 146.4C93.4603 146.4 94.2603 148.02 94.2603 150.42C94.2603 153.12 92.9403 154.74 91.1403 154.74ZM103.404 156.26C104.884 156.26 106.044 155.76 107.004 155.14L106.344 153.94C105.544 154.48 104.684 154.8 103.624 154.8C101.564 154.8 100.144 153.32 100.024 151H107.344C107.384 150.74 107.424 150.36 107.424 149.96C107.424 146.86 105.864 144.86 103.104 144.86C100.584 144.86 98.2036 147.06 98.2036 150.58C98.2036 154.16 100.524 156.26 103.404 156.26ZM100.004 149.68C100.224 147.56 101.584 146.32 103.124 146.32C104.824 146.32 105.824 147.5 105.824 149.68H100.004ZM110.098 156H111.918V149.02C112.638 147.16 113.758 146.52 114.658 146.52C115.098 146.52 115.358 146.56 115.718 146.7L116.058 145.1C115.718 144.92 115.378 144.86 114.898 144.86C113.678 144.86 112.578 145.74 111.818 147.12H111.758L111.598 145.14H110.098V156ZM120.614 156.26C123.174 156.26 124.574 154.8 124.574 153.04C124.574 150.98 122.834 150.34 121.254 149.74C120.034 149.28 118.914 148.9 118.914 147.86C118.914 147.02 119.554 146.3 120.934 146.3C121.894 146.3 122.654 146.7 123.394 147.26L124.274 146.08C123.434 145.42 122.254 144.86 120.914 144.86C118.554 144.86 117.154 146.22 117.154 147.94C117.154 149.78 118.814 150.52 120.334 151.08C121.534 151.54 122.814 152.02 122.814 153.14C122.814 154.08 122.114 154.84 120.674 154.84C119.374 154.84 118.394 154.32 117.454 153.56L116.554 154.76C117.594 155.62 119.074 156.26 120.614 156.26ZM127.129 156H128.949V148.12C130.049 147.02 130.809 146.46 131.929 146.46C133.369 146.46 133.989 147.32 133.989 149.36V156H135.809V149.12C135.809 146.34 134.769 144.86 132.489 144.86C131.009 144.86 129.889 145.68 128.889 146.68L128.949 144.44V140.08H127.129V156ZM139.278 156H141.098V145.14H139.278V156ZM140.198 142.9C140.918 142.9 141.418 142.42 141.418 141.68C141.418 140.98 140.918 140.5 140.198 140.5C139.478 140.5 138.978 140.98 138.978 141.68C138.978 142.42 139.478 142.9 140.198 142.9ZM144.785 160.58H146.605V156.9L146.565 155C147.545 155.8 148.585 156.26 149.565 156.26C152.065 156.26 154.285 154.12 154.285 150.4C154.285 147.06 152.765 144.86 149.965 144.86C148.705 144.86 147.485 145.58 146.505 146.38H146.445L146.285 145.14H144.785V160.58ZM149.265 154.74C148.545 154.74 147.585 154.44 146.605 153.6V147.9C147.665 146.92 148.605 146.4 149.525 146.4C151.585 146.4 152.385 148.02 152.385 150.42C152.385 153.12 151.065 154.74 149.265 154.74ZM161.82 156H163.58V148.3C163.58 146.76 163.44 145.2 163.36 143.72H163.44L165.02 146.74L170.36 156H172.26V141.32H170.5V148.96C170.5 150.48 170.64 152.12 170.74 153.6H170.64L169.08 150.58L163.74 141.32H161.82V156ZM176.254 156H178.114V149.42H183.714V147.86H178.114V142.9H184.714V141.32H176.254V156ZM190.349 156H192.209V142.9H196.649V141.32H185.909V142.9H190.349V156ZM196.379 159.8C198.179 159.04 199.299 157.54 199.299 155.62C199.299 154.28 198.719 153.46 197.759 153.46C197.019 153.46 196.379 153.96 196.379 154.74C196.379 155.58 197.019 156.02 197.719 156.02C197.799 156.02 197.859 156.02 197.939 156C197.939 157.18 197.199 158.16 195.939 158.72L196.379 159.8ZM206.918 156H210.678C215.098 156 217.518 153.26 217.518 148.62C217.518 143.96 215.098 141.32 210.598 141.32H206.918V156ZM208.778 154.48V142.84H210.438C213.898 142.84 215.598 144.9 215.598 148.62C215.598 152.32 213.898 154.48 210.438 154.48H208.778ZM224.868 156.26C226.348 156.26 227.508 155.76 228.468 155.14L227.808 153.94C227.008 154.48 226.148 154.8 225.088 154.8C223.028 154.8 221.608 153.32 221.488 151H228.808C228.848 150.74 228.888 150.36 228.888 149.96C228.888 146.86 227.328 144.86 224.568 144.86C222.048 144.86 219.668 147.06 219.668 150.58C219.668 154.16 221.988 156.26 224.868 156.26ZM221.468 149.68C221.688 147.56 223.048 146.32 224.588 146.32C226.288 146.32 227.288 147.5 227.288 149.68H221.468ZM229.866 156H231.786L233.246 153.46C233.626 152.8 233.986 152.14 234.366 151.52H234.466C234.866 152.14 235.266 152.8 235.626 153.46L237.226 156H239.226L235.646 150.52L238.946 145.14H237.046L235.706 147.52C235.386 148.14 235.066 148.74 234.726 149.34H234.646C234.286 148.74 233.906 148.14 233.566 147.52L232.106 145.14H230.146L233.446 150.34L229.866 156ZM248.34 156.26C249.68 156.26 250.9 155.56 251.94 154.7H252L252.16 156H253.66V149.32C253.66 146.64 252.54 144.86 249.9 144.86C248.16 144.86 246.62 145.64 245.62 146.28L246.34 147.54C247.2 146.96 248.34 146.38 249.6 146.38C251.38 146.38 251.84 147.72 251.84 149.12C247.22 149.64 245.16 150.82 245.16 153.18C245.16 155.14 246.52 156.26 248.34 156.26ZM248.86 154.8C247.78 154.8 246.94 154.3 246.94 153.06C246.94 151.66 248.18 150.76 251.84 150.32V153.36C250.78 154.3 249.92 154.8 248.86 154.8ZM260.789 161C264.149 161 266.289 159.26 266.289 157.24C266.289 155.46 265.009 154.66 262.489 154.66H260.369C258.909 154.66 258.469 154.18 258.469 153.48C258.469 152.88 258.769 152.52 259.169 152.18C259.649 152.42 260.249 152.56 260.789 152.56C262.989 152.56 264.749 151.1 264.749 148.78C264.749 147.84 264.389 147.04 263.869 146.54H266.089V145.14H262.309C261.929 145 261.389 144.86 260.789 144.86C258.589 144.86 256.709 146.36 256.709 148.74C256.709 150.04 257.409 151.08 258.129 151.66V151.74C257.569 152.14 256.909 152.86 256.909 153.76C256.909 154.62 257.329 155.2 257.909 155.54V155.62C256.889 156.28 256.309 157.16 256.309 158.08C256.309 159.96 258.129 161 260.789 161ZM260.789 151.32C259.529 151.32 258.469 150.32 258.469 148.74C258.469 147.14 259.509 146.2 260.789 146.2C262.069 146.2 263.109 147.16 263.109 148.74C263.109 150.32 262.029 151.32 260.789 151.32ZM261.049 159.76C259.089 159.76 257.909 159 257.909 157.84C257.909 157.2 258.229 156.56 259.009 156C259.489 156.12 260.009 156.18 260.409 156.18H262.289C263.729 156.18 264.509 156.52 264.509 157.52C264.509 158.66 263.129 159.76 261.049 159.76ZM272.059 161C275.419 161 277.559 159.26 277.559 157.24C277.559 155.46 276.279 154.66 273.759 154.66H271.639C270.179 154.66 269.739 154.18 269.739 153.48C269.739 152.88 270.039 152.52 270.439 152.18C270.919 152.42 271.519 152.56 272.059 152.56C274.259 152.56 276.019 151.1 276.019 148.78C276.019 147.84 275.659 147.04 275.139 146.54H277.359V145.14H273.579C273.199 145 272.659 144.86 272.059 144.86C269.859 144.86 267.979 146.36 267.979 148.74C267.979 150.04 268.679 151.08 269.399 151.66V151.74C268.839 152.14 268.179 152.86 268.179 153.76C268.179 154.62 268.599 155.2 269.179 155.54V155.62C268.159 156.28 267.579 157.16 267.579 158.08C267.579 159.96 269.399 161 272.059 161ZM272.059 151.32C270.799 151.32 269.739 150.32 269.739 148.74C269.739 147.14 270.779 146.2 272.059 146.2C273.339 146.2 274.379 147.16 274.379 148.74C274.379 150.32 273.299 151.32 272.059 151.32ZM272.319 159.76C270.359 159.76 269.179 159 269.179 157.84C269.179 157.2 269.499 156.56 270.279 156C270.759 156.12 271.279 156.18 271.679 156.18H273.559C274.999 156.18 275.779 156.52 275.779 157.52C275.779 158.66 274.399 159.76 272.319 159.76ZM279.668 156H281.488V149.02C282.208 147.16 283.328 146.52 284.228 146.52C284.668 146.52 284.928 146.56 285.288 146.7L285.628 145.1C285.288 144.92 284.948 144.86 284.468 144.86C283.248 144.86 282.148 145.74 281.388 147.12H281.328L281.168 145.14H279.668V156ZM291.587 156.26C293.067 156.26 294.227 155.76 295.187 155.14L294.527 153.94C293.727 154.48 292.867 154.8 291.807 154.8C289.747 154.8 288.327 153.32 288.207 151H295.527C295.567 150.74 295.607 150.36 295.607 149.96C295.607 146.86 294.047 144.86 291.287 144.86C288.767 144.86 286.387 147.06 286.387 150.58C286.387 154.16 288.707 156.26 291.587 156.26ZM288.187 149.68C288.407 147.56 289.767 146.32 291.307 146.32C293.007 146.32 294.007 147.5 294.007 149.68H288.187ZM301.727 161C305.087 161 307.227 159.26 307.227 157.24C307.227 155.46 305.947 154.66 303.427 154.66H301.307C299.847 154.66 299.407 154.18 299.407 153.48C299.407 152.88 299.707 152.52 300.107 152.18C300.587 152.42 301.187 152.56 301.727 152.56C303.927 152.56 305.687 151.1 305.687 148.78C305.687 147.84 305.327 147.04 304.807 146.54H307.027V145.14H303.247C302.867 145 302.327 144.86 301.727 144.86C299.527 144.86 297.647 146.36 297.647 148.74C297.647 150.04 298.347 151.08 299.067 151.66V151.74C298.507 152.14 297.847 152.86 297.847 153.76C297.847 154.62 298.267 155.2 298.847 155.54V155.62C297.827 156.28 297.247 157.16 297.247 158.08C297.247 159.96 299.067 161 301.727 161ZM301.727 151.32C300.467 151.32 299.407 150.32 299.407 148.74C299.407 147.14 300.447 146.2 301.727 146.2C303.007 146.2 304.047 147.16 304.047 148.74C304.047 150.32 302.967 151.32 301.727 151.32ZM301.987 159.76C300.027 159.76 298.847 159 298.847 157.84C298.847 157.2 299.167 156.56 299.947 156C300.427 156.12 300.947 156.18 301.347 156.18H303.227C304.667 156.18 305.447 156.52 305.447 157.52C305.447 158.66 304.067 159.76 301.987 159.76ZM311.485 156.26C312.825 156.26 314.045 155.56 315.085 154.7H315.145L315.305 156H316.805V149.32C316.805 146.64 315.685 144.86 313.045 144.86C311.305 144.86 309.765 145.64 308.765 146.28L309.485 147.54C310.345 146.96 311.485 146.38 312.745 146.38C314.525 146.38 314.985 147.72 314.985 149.12C310.365 149.64 308.305 150.82 308.305 153.18C308.305 155.14 309.665 156.26 311.485 156.26ZM312.005 154.8C310.925 154.8 310.085 154.3 310.085 153.06C310.085 151.66 311.325 150.76 314.985 150.32V153.36C313.925 154.3 313.065 154.8 312.005 154.8ZM323.401 156.26C324.061 156.26 324.781 156.06 325.401 155.86L325.041 154.5C324.681 154.64 324.181 154.78 323.801 154.78C322.541 154.78 322.121 154.02 322.121 152.68V146.62H325.061V145.14H322.121V142.08H320.601L320.381 145.14L318.681 145.24V146.62H320.301V152.64C320.301 154.8 321.081 156.26 323.401 156.26ZM331.447 156.26C334.107 156.26 336.487 154.18 336.487 150.58C336.487 146.96 334.107 144.86 331.447 144.86C328.787 144.86 326.407 146.96 326.407 150.58C326.407 154.18 328.787 156.26 331.447 156.26ZM331.447 154.74C329.567 154.74 328.307 153.08 328.307 150.58C328.307 148.08 329.567 146.38 331.447 146.38C333.327 146.38 334.607 148.08 334.607 150.58C334.607 153.08 333.327 154.74 331.447 154.74ZM339.356 156H341.176V149.02C341.896 147.16 343.016 146.52 343.916 146.52C344.356 146.52 344.616 146.56 344.976 146.7L345.316 145.1C344.976 144.92 344.636 144.86 344.156 144.86C342.936 144.86 341.836 145.74 341.076 147.12H341.016L340.856 145.14H339.356V156ZM350.05 159.94L351.19 159.4C349.45 156.56 348.63 153.18 348.63 149.78C348.63 146.38 349.45 143.02 351.19 140.16L350.05 139.64C348.21 142.62 347.11 145.86 347.11 149.78C347.11 153.72 348.21 156.94 350.05 159.94ZM358.107 156.26C361.167 156.26 363.087 154.42 363.087 152.1C363.087 149.92 361.767 148.92 360.067 148.18L357.967 147.28C356.827 146.8 355.547 146.26 355.547 144.84C355.547 143.52 356.627 142.68 358.287 142.68C359.647 142.68 360.727 143.22 361.627 144.06L362.607 142.88C361.567 141.8 360.027 141.06 358.287 141.06C355.627 141.06 353.667 142.7 353.667 144.96C353.667 147.1 355.287 148.14 356.647 148.72L358.767 149.64C360.147 150.26 361.207 150.74 361.207 152.24C361.207 153.68 360.047 154.64 358.127 154.64C356.607 154.64 355.127 153.92 354.087 152.82L352.967 154.08C354.247 155.42 356.027 156.26 358.107 156.26ZM365.801 156H367.621V148.12C368.621 147 369.541 146.46 370.361 146.46C371.741 146.46 372.381 147.32 372.381 149.36V156H374.201V148.12C375.221 147 376.101 146.46 376.941 146.46C378.321 146.46 378.961 147.32 378.961 149.36V156H380.781V149.12C380.781 146.34 379.721 144.86 377.481 144.86C376.161 144.86 375.021 145.72 373.901 146.94C373.461 145.66 372.561 144.86 370.901 144.86C369.601 144.86 368.461 145.68 367.521 146.72H367.461L367.301 145.14H365.801V156ZM386.817 156.26C388.157 156.26 389.377 155.56 390.417 154.7H390.477L390.637 156H392.137V149.32C392.137 146.64 391.017 144.86 388.377 144.86C386.637 144.86 385.097 145.64 384.097 146.28L384.817 147.54C385.677 146.96 386.817 146.38 388.077 146.38C389.857 146.38 390.317 147.72 390.317 149.12C385.697 149.64 383.637 150.82 383.637 153.18C383.637 155.14 384.997 156.26 386.817 156.26ZM387.337 154.8C386.257 154.8 385.417 154.3 385.417 153.06C385.417 151.66 386.657 150.76 390.317 150.32V153.36C389.257 154.3 388.397 154.8 387.337 154.8ZM395.606 156H397.426V149.02C398.146 147.16 399.266 146.52 400.166 146.52C400.606 146.52 400.866 146.56 401.226 146.7L401.566 145.1C401.226 144.92 400.886 144.86 400.406 144.86C399.186 144.86 398.086 145.74 397.326 147.12H397.266L397.106 145.14H395.606V156ZM406.78 156.26C407.44 156.26 408.16 156.06 408.78 155.86L408.42 154.5C408.06 154.64 407.56 154.78 407.18 154.78C405.92 154.78 405.5 154.02 405.5 152.68V146.62H408.44V145.14H405.5V142.08H403.98L403.76 145.14L402.06 145.24V146.62H403.68V152.64C403.68 154.8 404.46 156.26 406.78 156.26ZM419.611 156.26C422.671 156.26 424.591 154.42 424.591 152.1C424.591 149.92 423.271 148.92 421.571 148.18L419.471 147.28C418.331 146.8 417.051 146.26 417.051 144.84C417.051 143.52 418.131 142.68 419.791 142.68C421.151 142.68 422.231 143.22 423.131 144.06L424.111 142.88C423.071 141.8 421.531 141.06 419.791 141.06C417.131 141.06 415.171 142.7 415.171 144.96C415.171 147.1 416.791 148.14 418.151 148.72L420.271 149.64C421.651 150.26 422.711 150.74 422.711 152.24C422.711 153.68 421.551 154.64 419.631 154.64C418.111 154.64 416.631 153.92 415.591 152.82L414.471 154.08C415.751 155.42 417.531 156.26 419.611 156.26ZM429.025 156H431.165L432.685 150.18C432.965 149.14 433.185 148.12 433.425 147.02H433.525C433.785 148.12 433.985 149.12 434.265 150.14L435.845 156H438.045L440.965 145.14H439.245L437.645 151.42C437.405 152.46 437.205 153.44 436.965 154.46H436.885C436.625 153.44 436.385 152.46 436.125 151.42L434.425 145.14H432.645L430.965 151.42C430.685 152.44 430.465 153.44 430.225 154.46H430.125C429.925 153.44 429.705 152.46 429.485 151.42L427.865 145.14H426.005L429.025 156ZM445.625 156.26C446.965 156.26 448.185 155.56 449.225 154.7H449.285L449.445 156H450.945V149.32C450.945 146.64 449.825 144.86 447.185 144.86C445.445 144.86 443.905 145.64 442.905 146.28L443.625 147.54C444.485 146.96 445.625 146.38 446.885 146.38C448.665 146.38 449.125 147.72 449.125 149.12C444.505 149.64 442.445 150.82 442.445 153.18C442.445 155.14 443.805 156.26 445.625 156.26ZM446.145 154.8C445.065 154.8 444.225 154.3 444.225 153.06C444.225 151.66 445.465 150.76 449.125 150.32V153.36C448.065 154.3 447.205 154.8 446.145 154.8ZM454.414 160.58H456.234V156.9L456.194 155C457.174 155.8 458.214 156.26 459.194 156.26C461.694 156.26 463.914 154.12 463.914 150.4C463.914 147.06 462.394 144.86 459.594 144.86C458.334 144.86 457.114 145.58 456.134 146.38H456.074L455.914 145.14H454.414V160.58ZM458.894 154.74C458.174 154.74 457.214 154.44 456.234 153.6V147.9C457.294 146.92 458.234 146.4 459.154 146.4C461.214 146.4 462.014 148.02 462.014 150.42C462.014 153.12 460.694 154.74 458.894 154.74ZM466.957 159.94C468.817 156.94 469.917 153.72 469.917 149.78C469.917 145.86 468.817 142.62 466.957 139.64L465.837 140.16C467.557 143.02 468.397 146.38 468.397 149.78C468.397 153.18 467.557 156.56 465.837 159.4L466.957 159.94Z" fill="white"/>
<circle r="7" transform="matrix(1 0 0 -1 8 114)" fill="#1C1D1F" stroke="#2F4D9A" stroke-width="2"/>
<path d="M39.688 222H47.624V220.016H45.064C44.504 220.016 43.72 220.08 43.128 220.144C45.288 218.032 47.064 215.728 47.064 213.584C47.064 211.376 45.576 209.936 43.336 209.936C41.72 209.936 40.664 210.56 39.576 211.728L40.856 213.008C41.464 212.352 42.168 211.792 43.032 211.792C44.168 211.792 44.808 212.512 44.808 213.712C44.808 215.536 42.904 217.76 39.688 220.64V222ZM53.1419 222.224C55.5579 222.224 57.1419 220.112 57.1419 216.032C57.1419 211.952 55.5579 209.936 53.1419 209.936C50.7259 209.936 49.1259 211.936 49.1259 216.032C49.1259 220.112 50.7259 222.224 53.1419 222.224ZM53.1419 220.384C52.1179 220.384 51.3499 219.36 51.3499 216.032C51.3499 212.72 52.1179 211.76 53.1419 211.76C54.1659 211.76 54.9179 212.72 54.9179 216.032C54.9179 219.36 54.1659 220.384 53.1419 220.384ZM58.5318 222H66.4678V220.016H63.9078C63.3478 220.016 62.5638 220.08 61.9718 220.144C64.1318 218.032 65.9078 215.728 65.9078 213.584C65.9078 211.376 64.4198 209.936 62.1798 209.936C60.5638 209.936 59.5078 210.56 58.4198 211.728L59.6998 213.008C60.3078 212.352 61.0118 211.792 61.8758 211.792C63.0118 211.792 63.6518 212.512 63.6518 213.712C63.6518 215.536 61.7478 217.76 58.5318 220.64V222ZM68.5776 222H75.6976V220.096H73.4736V210.144H71.7296C70.9776 210.624 70.1616 210.928 68.9776 211.152V212.608H71.1216V220.096H68.5776V222ZM79.2795 222.224C80.1275 222.224 80.7515 221.552 80.7515 220.688C80.7515 219.808 80.1275 219.152 79.2795 219.152C78.4475 219.152 77.8235 219.808 77.8235 220.688C77.8235 221.552 78.4475 222.224 79.2795 222.224ZM86.6106 222.224C89.0266 222.224 90.6106 220.112 90.6106 216.032C90.6106 211.952 89.0266 209.936 86.6106 209.936C84.1946 209.936 82.5946 211.936 82.5946 216.032C82.5946 220.112 84.1946 222.224 86.6106 222.224ZM86.6106 220.384C85.5866 220.384 84.8186 219.36 84.8186 216.032C84.8186 212.72 85.5866 211.76 86.6106 211.76C87.6346 211.76 88.3866 212.72 88.3866 216.032C88.3866 219.36 87.6346 220.384 86.6106 220.384ZM96.0165 222.224C98.4165 222.224 100.001 220.848 100.001 219.056C100.001 217.44 99.1045 216.48 98.0165 215.888V215.808C98.8005 215.248 99.5365 214.272 99.5365 213.104C99.5365 211.216 98.1925 209.952 96.0965 209.952C94.0485 209.952 92.5285 211.168 92.5285 213.072C92.5285 214.336 93.1845 215.232 94.0965 215.888V215.968C92.9925 216.544 92.0645 217.536 92.0645 219.056C92.0645 220.912 93.7605 222.224 96.0165 222.224ZM96.7685 215.232C95.5205 214.736 94.6085 214.192 94.6085 213.072C94.6085 212.128 95.2485 211.6 96.0485 211.6C97.0405 211.6 97.6165 212.288 97.6165 213.248C97.6165 213.952 97.3445 214.624 96.7685 215.232ZM96.0805 220.56C94.9765 220.56 94.0965 219.872 94.0965 218.8C94.0965 217.92 94.5445 217.12 95.1845 216.608C96.7205 217.232 97.8085 217.744 97.8085 218.976C97.8085 220 97.0885 220.56 96.0805 220.56Z" fill="#3C6AE0"/>
<path d="M40 258H50.1V256.42H42.28L50.02 244.42V243.34H40.7V244.9H47.74L40 256.9V258ZM55.0392 258.26C56.3792 258.26 57.5992 257.56 58.6392 256.7H58.6992L58.8592 258H60.3592V251.32C60.3592 248.64 59.2392 246.86 56.5992 246.86C54.8592 246.86 53.3192 247.64 52.3192 248.28L53.0392 249.54C53.8992 248.96 55.0392 248.38 56.2992 248.38C58.0792 248.38 58.5392 249.72 58.5392 251.12C53.9192 251.64 51.8592 252.82 51.8592 255.18C51.8592 257.14 53.2192 258.26 55.0392 258.26ZM55.5592 256.8C54.4792 256.8 53.6392 256.3 53.6392 255.06C53.6392 253.66 54.8792 252.76 58.5392 252.32V255.36C57.4792 256.3 56.6192 256.8 55.5592 256.8ZM63.8283 262.58H65.6483V258.9L65.6083 257C66.5883 257.8 67.6283 258.26 68.6083 258.26C71.1083 258.26 73.3283 256.12 73.3283 252.4C73.3283 249.06 71.8083 246.86 69.0083 246.86C67.7483 246.86 66.5283 247.58 65.5483 248.38H65.4883L65.3283 247.14H63.8283V262.58ZM68.3083 256.74C67.5883 256.74 66.6283 256.44 65.6483 255.6V249.9C66.7083 248.92 67.6483 248.4 68.5683 248.4C70.6283 248.4 71.4283 250.02 71.4283 252.42C71.4283 255.12 70.1083 256.74 68.3083 256.74ZM76.2306 262.58H78.0506V258.9L78.0106 257C78.9906 257.8 80.0306 258.26 81.0106 258.26C83.5106 258.26 85.7306 256.12 85.7306 252.4C85.7306 249.06 84.2106 246.86 81.4106 246.86C80.1506 246.86 78.9306 247.58 77.9506 248.38H77.8906L77.7306 247.14H76.2306V262.58ZM80.7106 256.74C79.9906 256.74 79.0306 256.44 78.0506 255.6V249.9C79.1106 248.92 80.0506 248.4 80.9706 248.4C83.0306 248.4 83.8306 250.02 83.8306 252.42C83.8306 255.12 82.5106 256.74 80.7106 256.74ZM93.013 258.26C94.493 258.26 95.653 257.76 96.613 257.14L95.953 255.94C95.153 256.48 94.293 256.8 93.233 256.8C91.173 256.8 89.753 255.32 89.633 253H96.953C96.993 252.74 97.033 252.36 97.033 251.96C97.033 248.86 95.473 246.86 92.713 246.86C90.193 246.86 87.813 249.06 87.813 252.58C87.813 256.16 90.133 258.26 93.013 258.26ZM89.613 251.7C89.833 249.56 91.193 248.32 92.733 248.32C94.433 248.32 95.433 249.5 95.433 251.7H89.613ZM99.7072 258H101.527V251.02C102.247 249.16 103.367 248.52 104.267 248.52C104.707 248.52 104.967 248.56 105.327 248.7L105.667 247.1C105.327 246.92 104.987 246.86 104.507 246.86C103.287 246.86 102.187 247.74 101.427 249.12H101.367L101.207 247.14H99.7072V258ZM110.401 261.94L111.541 261.4C109.801 258.56 108.981 255.18 108.981 251.78C108.981 248.38 109.801 245.02 111.541 242.16L110.401 241.64C108.561 244.62 107.461 247.86 107.461 251.78C107.461 255.72 108.561 258.94 110.401 261.94ZM114.379 258H116.239V252.18H118.659C121.859 252.18 124.059 250.74 124.059 247.64C124.059 244.44 121.859 243.34 118.559 243.34H114.379V258ZM116.239 250.68V244.84H118.339C120.919 244.84 122.219 245.52 122.219 247.64C122.219 249.74 120.999 250.68 118.419 250.68H116.239ZM130.529 258.26C133.189 258.26 135.569 256.18 135.569 252.58C135.569 248.96 133.189 246.86 130.529 246.86C127.869 246.86 125.489 248.96 125.489 252.58C125.489 256.18 127.869 258.26 130.529 258.26ZM130.529 256.74C128.649 256.74 127.389 255.08 127.389 252.58C127.389 250.08 128.649 248.38 130.529 248.38C132.409 248.38 133.689 250.08 133.689 252.58C133.689 255.08 132.409 256.74 130.529 256.74ZM142.658 258.26C145.318 258.26 147.698 256.18 147.698 252.58C147.698 248.96 145.318 246.86 142.658 246.86C139.998 246.86 137.618 248.96 137.618 252.58C137.618 256.18 139.998 258.26 142.658 258.26ZM142.658 256.74C140.778 256.74 139.518 255.08 139.518 252.58C139.518 250.08 140.778 248.38 142.658 248.38C144.538 248.38 145.818 250.08 145.818 252.58C145.818 255.08 144.538 256.74 142.658 256.74ZM152.487 258.26C152.967 258.26 153.287 258.2 153.547 258.1L153.287 256.7C153.087 256.74 153.007 256.74 152.907 256.74C152.627 256.74 152.387 256.52 152.387 255.96V242.08H150.567V255.84C150.567 257.38 151.127 258.26 152.487 258.26ZM165.122 258.26C166.602 258.26 167.762 257.76 168.722 257.14L168.062 255.94C167.262 256.48 166.402 256.8 165.342 256.8C163.282 256.8 161.862 255.32 161.742 253H169.062C169.102 252.74 169.142 252.36 169.142 251.96C169.142 248.86 167.582 246.86 164.822 246.86C162.302 246.86 159.922 249.06 159.922 252.58C159.922 256.16 162.242 258.26 165.122 258.26ZM161.722 251.7C161.942 249.56 163.302 248.32 164.842 248.32C166.542 248.32 167.542 249.5 167.542 251.7H161.722ZM170.12 258H172.04L173.5 255.46C173.88 254.8 174.24 254.14 174.62 253.52H174.72C175.12 254.14 175.52 254.8 175.88 255.46L177.48 258H179.48L175.9 252.52L179.2 247.14H177.3L175.96 249.54C175.64 250.14 175.32 250.74 174.98 251.34H174.9C174.54 250.74 174.16 250.14 173.82 249.54L172.36 247.14H170.4L173.7 252.34L170.12 258ZM181.621 262.58H183.441V258.9L183.401 257C184.381 257.8 185.421 258.26 186.401 258.26C188.901 258.26 191.121 256.12 191.121 252.4C191.121 249.06 189.601 246.86 186.801 246.86C185.541 246.86 184.321 247.58 183.341 248.38H183.281L183.121 247.14H181.621V262.58ZM186.101 256.74C185.381 256.74 184.421 256.44 183.441 255.6V249.9C184.501 248.92 185.441 248.4 186.361 248.4C188.421 248.4 189.221 250.02 189.221 252.42C189.221 255.12 187.901 256.74 186.101 256.74ZM195.944 258.26C196.424 258.26 196.744 258.2 197.004 258.1L196.744 256.7C196.544 256.74 196.464 256.74 196.364 256.74C196.084 256.74 195.844 256.52 195.844 255.96V242.08H194.024V255.84C194.024 257.38 194.584 258.26 195.944 258.26ZM203.947 258.26C206.607 258.26 208.987 256.18 208.987 252.58C208.987 248.96 206.607 246.86 203.947 246.86C201.287 246.86 198.907 248.96 198.907 252.58C198.907 256.18 201.287 258.26 203.947 258.26ZM203.947 256.74C202.067 256.74 200.807 255.08 200.807 252.58C200.807 250.08 202.067 248.38 203.947 248.38C205.827 248.38 207.107 250.08 207.107 252.58C207.107 255.08 205.827 256.74 203.947 256.74ZM211.856 258H213.676V251.02C214.396 249.16 215.516 248.52 216.416 248.52C216.856 248.52 217.116 248.56 217.476 248.7L217.816 247.1C217.476 246.92 217.136 246.86 216.656 246.86C215.436 246.86 214.336 247.74 213.576 249.12H213.516L213.356 247.14H211.856V258ZM223.775 258.26C225.255 258.26 226.415 257.76 227.375 257.14L226.715 255.94C225.915 256.48 225.055 256.8 223.995 256.8C221.935 256.8 220.515 255.32 220.395 253H227.715C227.755 252.74 227.795 252.36 227.795 251.96C227.795 248.86 226.235 246.86 223.475 246.86C220.955 246.86 218.575 249.06 218.575 252.58C218.575 256.16 220.895 258.26 223.775 258.26ZM220.375 251.7C220.595 249.56 221.955 248.32 223.495 248.32C225.195 248.32 226.195 249.5 226.195 251.7H220.375ZM230.469 258H232.289V251.02C233.009 249.16 234.129 248.52 235.029 248.52C235.469 248.52 235.729 248.56 236.089 248.7L236.429 247.1C236.089 246.92 235.749 246.86 235.269 246.86C234.049 246.86 232.949 247.74 232.189 249.12H232.129L231.969 247.14H230.469V258ZM238.363 261.94C240.223 258.94 241.323 255.72 241.323 251.78C241.323 247.86 240.223 244.62 238.363 241.64L237.243 242.16C238.963 245.02 239.803 248.38 239.803 251.78C239.803 255.18 238.963 258.56 237.243 261.4L238.363 261.94Z" fill="white"/>
<circle r="7" transform="matrix(1 0 0 -1 8 216)" fill="#1C1D1F" stroke="#2F4D9A" stroke-width="2"/>
<path d="M9 326C9 325.448 8.55228 325 8 325C7.44772 325 7 325.448 7 326H9ZM7 356.5C7 357.052 7.44772 357.5 8 357.5C8.55228 357.5 9 357.052 9 356.5H7ZM7 330.692C7 331.245 7.44772 331.692 8 331.692C8.55228 331.692 9 331.245 9 330.692H7ZM9 336.558C9 336.005 8.55228 335.558 8 335.558C7.44772 335.558 7 336.005 7 336.558H9ZM7 345.942C7 346.495 7.44772 346.942 8 346.942C8.55228 346.942 9 346.495 9 345.942H7ZM9 351.808C9 351.255 8.55228 350.808 8 350.808C7.44772 350.808 7 351.255 7 351.808H9ZM7 326V330.692H9V326H7ZM7 336.558V345.942H9V336.558H7ZM7 351.808V356.5H9V351.808H7Z" fill="#2F4D9A"/>
<path d="M8 361V363" stroke="#2F4D9A" stroke-width="2" stroke-miterlimit="2.9238" stroke-linecap="round" stroke-linejoin="round"/>
</svg>
