<svg width="28" height="28" viewBox="0 0 28 28" fill="none" xmlns="http://www.w3.org/2000/svg">
<path fill-rule="evenodd" clip-rule="evenodd" d="M14 0C6.26967 0 0 6.26733 0 14C0 21.7315 6.26967 28 14 28C21.7315 28 28 21.7315 28 14C28 6.26733 21.7315 0 14 0ZM22.1363 20.4832V20.209L20.8623 18.9583C20.7503 18.8732 20.6943 18.732 20.7177 18.5932V9.40683C20.6943 9.268 20.7503 9.12683 20.8623 9.04167L22.1667 7.791V7.51683H17.6528L14.4352 15.5435L10.7742 7.51683H6.03867V7.791L7.56467 9.6285C7.714 9.76267 7.791 9.961 7.77 10.1617V17.381C7.81433 17.6412 7.73267 17.9072 7.5495 18.0973L5.83333 20.1787V20.4528H10.6983V20.1787L8.98217 18.0973C8.79783 17.9072 8.71033 17.6435 8.7465 17.381V11.137L13.0165 20.4528H13.5123L17.1792 11.137V18.5628C17.1792 18.7612 17.1792 18.7985 17.0497 18.928L15.7313 20.209V20.4832H22.1363V20.4832Z" fill="#C0C4CB"/>
</svg>
