<svg width="24" height="24" viewBox="0 0 24 24" fill="none" xmlns="http://www.w3.org/2000/svg">
<path fill-rule="evenodd" clip-rule="evenodd" d="M20.1 18C20.5971 18 21 18.4477 21 19C21 19.5523 20.5971 20 20.1 20H3.9C3.40294 20 3 19.5523 3 19C3 18.4477 3.40294 18 3.9 18H20.1ZM20.1 11C20.5971 11 21 11.4477 21 12C21 12.5523 20.5971 13 20.1 13H3.9C3.40294 13 3 12.5523 3 12C3 11.4477 3.40294 11 3.9 11H20.1ZM20.1 4C20.5971 4 21 4.44772 21 5C21 5.55228 20.5971 6 20.1 6H3.9C3.40294 6 3 5.55228 3 5C3 4.44772 3.40294 4 3.9 4H20.1Z" fill="#ECEFF2"/>
</svg>
