<svg width="32" height="32" viewBox="0 0 32 32" fill="none" xmlns="http://www.w3.org/2000/svg">
<path fill-rule="evenodd" clip-rule="evenodd" d="M10.695 13.7001C8.82114 14.532 6.89582 15.3868 5.13523 16.3728C4.21592 17.0572 5.43775 17.5413 6.58405 17.9954C6.76628 18.0676 6.94656 18.139 7.11608 18.2104C7.25716 18.2545 7.40057 18.3009 7.54593 18.348C8.82082 18.761 10.2423 19.2215 11.48 18.5288C13.5132 17.3412 15.4319 15.9683 17.3492 14.5964C17.9773 14.1469 18.6053 13.6975 19.2371 13.2548C19.2667 13.2356 19.3001 13.2136 19.3367 13.1895C19.8748 12.8347 21.0854 12.0369 20.6376 13.1363C19.5788 14.3136 18.4447 15.3558 17.3045 16.4037C16.536 17.1099 15.7647 17.8187 15.0117 18.5732C14.356 19.1149 13.675 20.2044 14.4093 20.963C16.1006 22.1669 17.8183 23.3415 19.5349 24.5155C20.0935 24.8975 20.6522 25.2795 21.2096 25.6624C22.1544 26.4294 23.631 25.809 23.8387 24.6105C23.9311 24.0591 24.0238 23.5079 24.1166 22.9565C24.6291 19.9096 25.1418 16.8615 25.5948 13.8047C25.6563 13.3251 25.7261 12.8457 25.7959 12.366C25.9651 11.2033 26.1346 10.0392 26.1875 8.87024C26.0511 7.70367 24.66 7.9602 23.8859 8.22252C19.9068 9.76204 15.9675 11.4157 12.0437 13.0985C11.5992 13.2987 11.1486 13.4987 10.695 13.7001Z" fill="#C0C4CB"/>
</svg>
