<svg width="32" height="32" viewBox="0 0 32 32" fill="none" xmlns="http://www.w3.org/2000/svg">
<path d="M12.5332 26.3569C9.76035 26.3569 7.17558 25.5504 5 24.1588C6.84714 24.2783 10.1069 23.9921 12.1345 22.0581C9.08435 21.9182 7.7088 19.5788 7.52938 18.5791C7.78854 18.6791 9.02454 18.7991 9.72229 18.5191C6.21363 17.6394 5.67537 14.5603 5.79498 13.6206C6.45285 14.0804 7.56925 14.2404 8.00783 14.2004C4.73839 11.8611 5.91459 8.34209 6.49273 7.58231C8.83899 10.8329 12.3553 12.6585 16.7055 12.76C16.6234 12.4003 16.5801 12.0258 16.5801 11.6411C16.5801 8.88051 18.8115 6.64258 21.564 6.64258C23.0022 6.64258 24.2981 7.25351 25.2077 8.23073C26.1688 8.00553 27.6151 7.47835 28.3222 7.02247C27.9658 8.3021 26.8562 9.36957 26.1851 9.76522C26.1906 9.77867 26.1796 9.7517 26.1851 9.76522C26.7746 9.67604 28.3698 9.36947 29 8.94191C28.6884 9.66079 27.512 10.8561 26.5466 11.5252C26.7262 19.4466 20.6656 26.3569 12.5332 26.3569Z" fill="#C0C4CB"/>
</svg>
